<?xml version="1.0" encoding="UTF-8"?>
<svg xmlns="http://www.w3.org/2000/svg" version="1.1" xmlns:xlink="http://www.w3.org/1999/xlink" viewBox="0 0 115.2 364.25">
  <!-- Generator: Adobe Illustrator 29.0.1, SVG Export Plug-In . SVG Version: 2.1.0 Build 192)  -->
  <defs>
    <style>
      .st0 {
        fill: #851621;
      }

      .st1 {
        fill: url(#radial-gradient11);
      }

      .st1, .st2, .st3, .st4, .st5, .st6, .st7, .st8, .st9, .st10 {
        stroke-miterlimit: 10;
      }

      .st1, .st3, .st4, .st5, .st6, .st7, .st8, .st10 {
        stroke-width: 5px;
      }

      .st1, .st3, .st4, .st7, .st8, .st10 {
        stroke: #a93d48;
      }

      .st11 {
        clip-path: url(#clippath-6);
      }

      .st12 {
        clip-path: url(#clippath-7);
      }

      .st13 {
        fill: url(#radial-gradient20);
      }

      .st14 {
        clip-path: url(#clippath-4);
      }

      .st15 {
        fill: #f1f2f2;
      }

      .st16 {
        fill: #231f20;
      }

      .st2 {
        fill: url(#radial-gradient21);
      }

      .st2, .st9 {
        stroke: #fff;
        stroke-width: 2px;
      }

      .st17 {
        clip-path: url(#clippath-9);
      }

      .st18 {
        clip-path: url(#clippath-10);
      }

      .st3 {
        fill: url(#radial-gradient9);
      }

      .st19 {
        fill: url(#radial-gradient10);
      }

      .st20 {
        fill: url(#radial-gradient24);
      }

      .st21 {
        fill: #ed1c24;
      }

      .st22 {
        clip-path: url(#clippath-11);
      }

      .st23 {
        fill: none;
      }

      .st24 {
        fill: url(#radial-gradient);
      }

      .st4 {
        fill: url(#radial-gradient3);
      }

      .st25 {
        fill: url(#radial-gradient22);
      }

      .st26 {
        clip-path: url(#clippath-1);
      }

      .st27 {
        clip-path: url(#clippath-5);
      }

      .st5 {
        fill: url(#radial-gradient19);
      }

      .st5, .st6 {
        stroke: #414042;
      }

      .st28 {
        clip-path: url(#clippath-8);
      }

      .st29 {
        fill: url(#radial-gradient18);
      }

      .st30 {
        clip-path: url(#clippath-3);
      }

      .st31 {
        fill: #be1e2d;
      }

      .st32 {
        fill: url(#radial-gradient14);
      }

      .st33 {
        fill: url(#radial-gradient13);
      }

      .st34 {
        clip-path: url(#clippath-12);
      }

      .st6 {
        fill: url(#radial-gradient15);
      }

      .st7 {
        fill: url(#radial-gradient7);
      }

      .st35 {
        fill: url(#radial-gradient8);
      }

      .st36 {
        fill: url(#radial-gradient12);
      }

      .st37 {
        fill: url(#radial-gradient25);
      }

      .st38 {
        display: none;
      }

      .st39 {
        fill: url(#radial-gradient17);
      }

      .st40 {
        fill: url(#radial-gradient6);
      }

      .st41 {
        fill: url(#radial-gradient2);
      }

      .st8 {
        fill: url(#radial-gradient1);
      }

      .st9 {
        fill: url(#radial-gradient23);
      }

      .st42 {
        clip-path: url(#clippath-2);
      }

      .st43 {
        fill: url(#radial-gradient4);
      }

      .st44 {
        clip-path: url(#clippath-13);
      }

      .st45 {
        fill: #bcbec0;
      }

      .st46 {
        clip-path: url(#clippath);
      }

      .st47 {
        fill: url(#radial-gradient16);
      }

      .st10 {
        fill: url(#radial-gradient5);
      }
    </style>
    <clipPath id="clippath">
      <rect class="st23" x="14.51" y="230.32" width="14.17" height="14.17"/>
    </clipPath>
    <clipPath id="clippath-1">
      <rect class="st23" x="50.51" y="230.32" width="14.17" height="14.17"/>
    </clipPath>
    <clipPath id="clippath-2">
      <rect class="st23" x="86.51" y="230.32" width="14.17" height="14.17"/>
    </clipPath>
    <clipPath id="clippath-3">
      <rect class="st23" x="14.51" y="284.19" width="14.17" height="14.17"/>
    </clipPath>
    <clipPath id="clippath-4">
      <rect class="st23" x="50.51" y="284.19" width="14.17" height="14.17"/>
    </clipPath>
    <clipPath id="clippath-5">
      <rect class="st23" x="86.51" y="284.19" width="14.17" height="14.17"/>
    </clipPath>
    <radialGradient id="radial-gradient" cx="21.6" cy="262.2" fx="21.6" fy="262.2" r="13.48" gradientTransform="translate(191.73 61.52) rotate(45)" gradientUnits="userSpaceOnUse">
      <stop offset=".57" stop-color="#851621"/>
      <stop offset=".64" stop-color="#94222d"/>
      <stop offset=".75" stop-color="#bb434f"/>
      <stop offset=".8" stop-color="#cc515e"/>
      <stop offset=".82" stop-color="#c84754" stop-opacity=".99"/>
      <stop offset=".88" stop-color="#c1313f" stop-opacity=".97"/>
      <stop offset=".95" stop-color="#bd2432" stop-opacity=".95"/>
      <stop offset="1" stop-color="#bc202e" stop-opacity=".95"/>
    </radialGradient>
    <clipPath id="clippath-6">
      <circle class="st23" cx="21.6" cy="262.2" r="13.48"/>
    </clipPath>
    <radialGradient id="radial-gradient1" cx="21.6" cy="262.2" fx="21.6" fy="262.2" r="9.53" gradientTransform="translate(191.73 61.52) rotate(45)" gradientUnits="userSpaceOnUse">
      <stop offset=".57" stop-color="#be1e2d"/>
      <stop offset=".61" stop-color="#c32d3b"/>
      <stop offset=".68" stop-color="#d15460"/>
      <stop offset=".78" stop-color="#e7949c"/>
      <stop offset=".8" stop-color="#eda3ab"/>
      <stop offset=".82" stop-color="#e58d96" stop-opacity=".99"/>
      <stop offset=".86" stop-color="#d76571" stop-opacity=".98"/>
      <stop offset=".9" stop-color="#cc4653" stop-opacity=".97"/>
      <stop offset=".93" stop-color="#c4303e" stop-opacity=".96"/>
      <stop offset=".97" stop-color="#bf2231" stop-opacity=".95"/>
      <stop offset="1" stop-color="#be1e2d" stop-opacity=".95"/>
    </radialGradient>
    <radialGradient id="radial-gradient2" cx="47.06" cy="236.75" fx="47.06" fy="236.75" r="13.48" xlink:href="#radial-gradient"/>
    <clipPath id="clippath-7">
      <circle class="st23" cx="57.6" cy="262.2" r="13.48"/>
    </clipPath>
    <radialGradient id="radial-gradient3" cx="47.06" cy="236.75" fx="47.06" fy="236.75" r="9.53" xlink:href="#radial-gradient1"/>
    <radialGradient id="radial-gradient4" cx="72.51" cy="211.29" fx="72.51" fy="211.29" r="13.48" xlink:href="#radial-gradient"/>
    <clipPath id="clippath-8">
      <circle class="st23" cx="93.6" cy="262.2" r="13.48"/>
    </clipPath>
    <radialGradient id="radial-gradient5" cx="72.51" cy="211.29" fx="72.51" fy="211.29" r="9.53" xlink:href="#radial-gradient1"/>
    <radialGradient id="radial-gradient6" cx="59.7" cy="300.3" fx="59.7" fy="300.3" r="13.48" xlink:href="#radial-gradient"/>
    <clipPath id="clippath-9">
      <circle class="st23" cx="21.6" cy="316.08" r="13.48"/>
    </clipPath>
    <radialGradient id="radial-gradient7" cx="59.7" cy="300.3" fx="59.7" fy="300.3" r="9.53" xlink:href="#radial-gradient1"/>
    <radialGradient id="radial-gradient8" cx="85.15" cy="274.84" fx="85.15" fy="274.84" r="13.48" xlink:href="#radial-gradient"/>
    <clipPath id="clippath-10">
      <circle class="st23" cx="57.6" cy="316.08" r="13.48"/>
    </clipPath>
    <radialGradient id="radial-gradient9" cx="85.15" cy="274.84" fx="85.15" fy="274.84" xlink:href="#radial-gradient1"/>
    <radialGradient id="radial-gradient10" cx="110.61" cy="249.39" fx="110.61" fy="249.39" r="13.48" xlink:href="#radial-gradient"/>
    <clipPath id="clippath-11">
      <circle class="st23" cx="93.6" cy="316.08" r="13.48"/>
    </clipPath>
    <radialGradient id="radial-gradient11" cx="110.61" cy="249.39" fx="110.61" fy="249.39" xlink:href="#radial-gradient1"/>
    <radialGradient id="radial-gradient12" cx="-122.64" cy="107.79" fx="-122.64" fy="107.79" r="13.48" gradientTransform="translate(191.73 61.52) rotate(45)" gradientUnits="userSpaceOnUse">
      <stop offset=".57" stop-color="#231f20"/>
      <stop offset=".61" stop-color="#312e2f"/>
      <stop offset=".68" stop-color="#585556"/>
      <stop offset=".77" stop-color="#959595"/>
      <stop offset=".8" stop-color="#a9a9a9"/>
      <stop offset=".82" stop-color="#8f8e8f" stop-opacity=".99"/>
      <stop offset=".86" stop-color="#686667" stop-opacity=".98"/>
      <stop offset=".9" stop-color="#4a4748" stop-opacity=".96"/>
      <stop offset=".93" stop-color="#343132" stop-opacity=".96"/>
      <stop offset=".97" stop-color="#272324" stop-opacity=".95"/>
      <stop offset="1" stop-color="#231f20" stop-opacity=".95"/>
    </radialGradient>
    <radialGradient id="radial-gradient13" cx="28.8" cy="51.02" fx="28.8" fy="51.02" r="13.48" gradientTransform="matrix(1,0,0,1,0,0)" xlink:href="#radial-gradient12"/>
    <radialGradient id="radial-gradient14" cx="28.8" cy="51.02" fx="28.8" fy="51.02" r="13.48" gradientTransform="matrix(1,0,0,1,0,0)" xlink:href="#radial-gradient12"/>
    <clipPath id="clippath-12">
      <circle class="st32" cx="28.8" cy="51.02" r="13.48"/>
    </clipPath>
    <radialGradient id="radial-gradient15" r="9.53" xlink:href="#radial-gradient12"/>
    <radialGradient id="radial-gradient16" cx="-81.91" cy="67.06" fx="-81.91" fy="67.06" r="13.48" xlink:href="#radial-gradient12"/>
    <radialGradient id="radial-gradient17" cx="86.4" cy="51.02" fx="86.4" fy="51.02" r="13.48" gradientTransform="matrix(1,0,0,1,0,0)" xlink:href="#radial-gradient12"/>
    <radialGradient id="radial-gradient18" cx="86.4" cy="51.02" fx="86.4" fy="51.02" r="13.48" gradientTransform="matrix(1,0,0,1,0,0)" xlink:href="#radial-gradient12"/>
    <clipPath id="clippath-13">
      <circle class="st29" cx="86.4" cy="51.02" r="13.48"/>
    </clipPath>
    <radialGradient id="radial-gradient19" cx="-81.91" cy="67.06" fx="-81.91" fy="67.06" r="9.53" xlink:href="#radial-gradient12"/>
    <radialGradient id="radial-gradient20" cx="86.4" cy="148.82" fx="86.4" fy="148.82" r="17.01" gradientTransform="translate(-79.92 104.68) rotate(-45)" gradientUnits="userSpaceOnUse">
      <stop offset=".83" stop-color="#130c0e"/>
      <stop offset=".93" stop-color="#130c0e" stop-opacity=".65"/>
      <stop offset=".93" stop-color="#130c0e" stop-opacity=".7"/>
      <stop offset="1" stop-color="#130c0e" stop-opacity=".95"/>
    </radialGradient>
    <radialGradient id="radial-gradient21" cy="139.81" fy="139.81" r="5.66" xlink:href="#radial-gradient20"/>
    <radialGradient id="radial-gradient22" cx="28.8" cy="148.82" fx="28.8" fy="148.82" gradientTransform="translate(-85.68 248.17) rotate(-120)" xlink:href="#radial-gradient20"/>
    <radialGradient id="radial-gradient23" cx="28.8" cy="139.81" fx="28.8" fy="139.81" r="5.66" gradientTransform="translate(-85.68 248.17) rotate(-120)" xlink:href="#radial-gradient20"/>
    <radialGradient id="radial-gradient24" cx="86.4" cy="192.76" fx="86.4" fy="192.76" r="13.54" gradientUnits="userSpaceOnUse">
      <stop offset=".85" stop-color="#d1d3d4"/>
      <stop offset=".91" stop-color="#e0e1e2"/>
      <stop offset=".93" stop-color="#e6e7e8"/>
      <stop offset="1" stop-color="#e6e7e8"/>
    </radialGradient>
    <radialGradient id="radial-gradient25" cx="28.8" fx="28.8" r="13.54" xlink:href="#radial-gradient24"/>
  </defs>
  <g id="printing">
    <g>
      <path class="st16" d="M85.8,356.32c-.41,0-.77-.09-1.08-.26-.31-.17-.55-.41-.73-.71s-.26-.65-.26-1.04.08-.73.25-1.03.4-.53.69-.71c.29-.17.62-.26.98-.26s.7.08.98.25c.29.17.51.4.68.7.17.3.25.65.25,1.04,0,.02,0,.05,0,.08s0,.06,0,.09h-3.42v-.4h3.13l-.21.16c0-.28-.06-.54-.18-.76s-.29-.4-.5-.52c-.21-.12-.45-.19-.72-.19s-.51.06-.73.19c-.21.12-.38.3-.5.52-.12.22-.18.48-.18.77v.08c0,.3.07.56.2.79s.32.4.55.53c.24.13.51.19.81.19.24,0,.46-.04.67-.13.21-.08.38-.21.53-.39l.3.34c-.17.21-.39.37-.65.48s-.55.16-.86.16Z"/>
      <path class="st16" d="M90.27,356.32c-.33,0-.62-.06-.87-.19-.25-.12-.44-.31-.58-.56s-.21-.56-.21-.93v-2.28h.53v2.22c0,.42.1.73.31.95s.5.32.87.32c.27,0,.51-.06.71-.17s.36-.28.46-.49c.11-.21.16-.47.16-.77v-2.06h.53v3.92h-.51v-1.08l.08.19c-.12.29-.32.51-.58.68-.26.16-.57.24-.92.24Z"/>
      <path class="st16" d="M93.67,356.28v-3.92h.51v1.07l-.05-.19c.11-.3.29-.53.55-.68.26-.16.58-.24.96-.24v.52s-.04,0-.06,0c-.02,0-.04,0-.06,0-.41,0-.74.13-.97.38-.23.25-.35.61-.35,1.07v2h-.53Z"/>
      <path class="st16" d="M98.27,356.32c-.38,0-.72-.09-1.02-.26-.3-.17-.54-.41-.71-.71s-.26-.65-.26-1.03.09-.74.26-1.04c.17-.3.41-.53.71-.7.3-.17.64-.25,1.02-.25s.73.09,1.04.26c.3.17.54.41.71.7.17.3.26.64.26,1.04s-.09.73-.26,1.04-.41.54-.71.71c-.3.17-.65.26-1.03.26ZM98.27,355.85c.28,0,.54-.06.76-.19.22-.13.39-.31.52-.54.13-.23.19-.5.19-.8s-.06-.58-.19-.81c-.13-.23-.3-.41-.52-.54-.22-.13-.47-.19-.75-.19s-.53.06-.75.19c-.22.13-.39.31-.52.54-.13.23-.19.5-.19.81s.07.57.19.8c.13.23.3.41.52.54.22.13.46.19.74.19Z"/>
      <path class="st16" d="M101.36,357.73v-5.38h.51v1.18l-.05.79.07.79v2.62h-.53ZM103.38,356.32c-.34,0-.65-.08-.92-.24-.27-.16-.49-.38-.65-.68-.16-.3-.24-.66-.24-1.09s.08-.79.24-1.09c.16-.3.38-.52.65-.68.27-.15.58-.23.93-.23.37,0,.71.08,1,.25.3.17.53.4.7.7.17.3.25.65.25,1.04s-.08.75-.25,1.05c-.17.3-.4.53-.7.7-.3.17-.63.25-1,.25ZM103.34,355.85c.28,0,.53-.06.75-.19.22-.13.39-.31.52-.54.13-.23.19-.5.19-.8s-.06-.57-.19-.8c-.13-.23-.3-.41-.52-.54-.22-.13-.47-.19-.75-.19s-.53.06-.75.19-.4.31-.52.54c-.13.23-.19.5-.19.8s.06.57.19.8c.13.23.3.41.52.54s.47.19.75.19Z"/>
      <path class="st16" d="M106.69,351.49c-.11,0-.2-.04-.28-.11-.07-.08-.11-.17-.11-.27s.04-.19.11-.27c.08-.07.17-.11.28-.11s.2.04.28.11c.07.07.11.16.11.26s-.04.2-.11.28c-.07.07-.17.11-.28.11ZM106.42,356.28v-3.92h.53v3.92h-.53Z"/>
    </g>
    <path class="st16" d="M28.75,175.24v-5.01l.24.25h-1.47v-.48h1.77v5.23h-.54Z"/>
    <path class="st16" d="M84.57,175.24v-.38l2.17-2.13c.2-.19.35-.37.45-.51.1-.15.17-.29.2-.42.04-.13.05-.25.05-.37,0-.3-.1-.54-.31-.72-.21-.17-.51-.26-.92-.26-.31,0-.58.05-.82.14-.24.09-.44.24-.61.44l-.38-.33c.2-.24.47-.42.79-.55.32-.13.67-.19,1.07-.19.35,0,.66.06.92.17s.46.28.6.49c.14.21.21.47.21.75,0,.17-.02.34-.07.5-.05.16-.13.34-.25.52-.12.18-.3.39-.54.62l-2,1.96-.15-.21h3.25v.48h-3.67Z"/>
    <g>
      <path class="st16" d="M19.27,29.2c-.37,0-.71-.08-1.01-.25-.3-.17-.53-.41-.7-.71-.17-.3-.25-.65-.25-1.04s.08-.75.25-1.05c.17-.3.4-.53.7-.7.3-.17.63-.25,1.01-.25.34,0,.65.08.92.23.27.15.49.38.65.68.16.3.24.66.24,1.09s-.08.78-.24,1.08c-.16.3-.38.53-.65.68s-.58.24-.93.24ZM19.3,28.73c.28,0,.53-.06.75-.19s.4-.31.52-.54c.13-.23.19-.5.19-.8s-.06-.58-.19-.81c-.13-.23-.3-.41-.52-.54s-.47-.19-.75-.19-.52.06-.74.19c-.22.13-.39.31-.52.54-.13.23-.19.5-.19.81s.07.57.19.8c.13.23.3.41.52.54.22.13.47.19.74.19ZM20.79,29.17v-1.18l.05-.79-.08-.79v-2.78h.53v5.55h-.51Z"/>
      <path class="st16" d="M23.04,24.37c-.11,0-.2-.04-.28-.11-.07-.08-.11-.17-.11-.27s.04-.19.11-.27c.08-.07.17-.11.28-.11s.2.04.28.11c.07.07.11.16.11.26s-.04.2-.11.28c-.07.07-.17.11-.28.11ZM22.77,29.17v-3.92h.53v3.92h-.53Z"/>
      <path class="st16" d="M26.36,29.02c-.37,0-.71-.08-1.01-.24s-.54-.39-.71-.68-.26-.62-.26-.99.09-.7.26-.99c.17-.29.41-.51.71-.67.3-.16.64-.24,1.01-.24.35,0,.66.07.94.22.28.15.5.36.67.64.17.28.25.63.25,1.04s-.08.75-.25,1.04c-.16.28-.39.5-.67.65s-.59.22-.94.22ZM26.46,30.65c-.36,0-.7-.05-1.03-.16s-.6-.25-.8-.45l.27-.4c.18.16.41.29.68.39.27.1.56.15.86.15.5,0,.86-.12,1.1-.35.23-.23.35-.59.35-1.08v-.98l.07-.67-.05-.67v-1.19h.51v3.45c0,.68-.17,1.17-.5,1.49-.33.32-.82.48-1.47.48ZM26.42,28.54c.29,0,.55-.06.77-.18.22-.12.4-.29.53-.51s.19-.47.19-.75-.06-.53-.19-.75c-.13-.21-.31-.38-.53-.5-.22-.12-.48-.18-.77-.18s-.54.06-.77.18-.4.29-.53.5c-.13.21-.19.46-.19.75s.06.53.19.75c.13.22.3.39.53.51s.48.18.77.18Z"/>
      <path class="st16" d="M30.18,24.37c-.11,0-.2-.04-.28-.11-.07-.08-.11-.17-.11-.27s.04-.19.11-.27c.08-.07.17-.11.28-.11s.2.04.28.11c.07.07.11.16.11.26s-.04.2-.11.28c-.07.07-.17.11-.28.11ZM29.91,29.17v-3.92h.53v3.92h-.53Z"/>
      <path class="st16" d="M31.3,25.68v-.44h2.43v.44h-2.43ZM33.16,29.2c-.37,0-.65-.1-.85-.3s-.3-.48-.3-.84v-3.69h.53v3.66c0,.23.06.41.18.53s.29.19.5.19c.23,0,.43-.07.58-.2l.19.38c-.11.09-.23.16-.38.21-.15.04-.3.07-.45.07Z"/>
      <path class="st16" d="M36.06,29.2c-.29,0-.55-.05-.77-.15s-.38-.23-.5-.4c-.11-.17-.17-.37-.17-.59,0-.2.05-.39.15-.56.1-.17.26-.3.48-.4.22-.1.52-.15.89-.15h1.35v.4h-1.34c-.38,0-.64.07-.79.2-.15.13-.22.3-.22.5,0,.22.09.4.26.54s.42.2.73.2.56-.07.77-.21.38-.33.47-.59l.12.37c-.1.26-.27.47-.52.62s-.56.23-.93.23ZM37.41,29.17v-.87l-.02-.14v-1.45c0-.33-.09-.59-.28-.77-.19-.18-.46-.27-.83-.27-.25,0-.5.04-.73.13-.23.08-.42.2-.58.34l-.24-.4c.2-.17.44-.3.72-.39.28-.09.57-.14.88-.14.51,0,.9.13,1.18.38.28.25.42.63.42,1.15v2.44h-.51Z"/>
      <path class="st16" d="M39.36,29.17v-5.55h.53v5.55h-.53Z"/>
    </g>
    <g>
      <path class="st16" d="M70.63,29.2c-.29,0-.55-.05-.77-.15s-.38-.23-.5-.4c-.11-.17-.17-.37-.17-.59,0-.2.05-.39.15-.56.1-.17.26-.3.48-.4.22-.1.52-.15.89-.15h1.35v.4h-1.34c-.38,0-.64.07-.79.2-.15.13-.22.3-.22.5,0,.22.09.4.26.54s.42.2.73.2.56-.07.77-.21.38-.33.47-.59l.12.37c-.1.26-.27.47-.52.62s-.56.23-.93.23ZM71.98,29.17v-.87l-.02-.14v-1.45c0-.33-.09-.59-.28-.77-.19-.18-.46-.27-.83-.27-.25,0-.5.04-.73.13-.23.08-.42.2-.58.34l-.24-.4c.2-.17.44-.3.72-.39.28-.09.57-.14.88-.14.51,0,.9.13,1.18.38.28.25.42.63.42,1.15v2.44h-.51Z"/>
      <path class="st16" d="M75.94,25.2c.32,0,.6.06.84.18.24.12.43.31.57.56.14.25.21.56.21.94v2.28h-.53v-2.23c0-.41-.1-.73-.31-.94s-.5-.32-.87-.32c-.28,0-.52.06-.73.17-.21.11-.37.27-.48.49s-.17.47-.17.77v2.06h-.53v-3.92h.51v1.08l-.08-.2c.12-.28.32-.51.6-.67.27-.16.6-.24.98-.24Z"/>
      <path class="st16" d="M80.09,29.2c-.29,0-.55-.05-.77-.15s-.38-.23-.5-.4c-.11-.17-.17-.37-.17-.59,0-.2.05-.39.15-.56.1-.17.26-.3.48-.4.22-.1.52-.15.89-.15h1.35v.4h-1.34c-.38,0-.64.07-.79.2-.15.13-.22.3-.22.5,0,.22.09.4.26.54s.42.2.73.2.56-.07.77-.21.38-.33.47-.59l.12.37c-.1.26-.27.47-.52.62s-.56.23-.93.23ZM81.45,29.17v-.87l-.02-.14v-1.45c0-.33-.09-.59-.28-.77-.19-.18-.46-.27-.83-.27-.25,0-.5.04-.73.13-.23.08-.42.2-.58.34l-.24-.4c.2-.17.44-.3.72-.39.28-.09.57-.14.88-.14.51,0,.9.13,1.18.38.28.25.42.63.42,1.15v2.44h-.51Z"/>
      <path class="st16" d="M83.4,29.17v-5.55h.53v5.55h-.53Z"/>
      <path class="st16" d="M87.01,29.2c-.38,0-.72-.09-1.02-.26-.3-.17-.54-.41-.71-.71s-.26-.65-.26-1.03.09-.74.26-1.04c.17-.3.41-.53.71-.7.3-.17.64-.25,1.02-.25s.73.09,1.04.26c.3.17.54.41.71.7.17.3.26.64.26,1.04s-.09.73-.26,1.04-.41.54-.71.71c-.3.17-.65.26-1.03.26ZM87.01,28.73c.28,0,.54-.06.76-.19.22-.13.39-.31.52-.54.13-.23.19-.5.19-.8s-.06-.58-.19-.81c-.13-.23-.3-.41-.52-.54-.22-.13-.47-.19-.75-.19s-.53.06-.75.19c-.22.13-.39.31-.52.54-.13.23-.19.5-.19.81s.07.57.19.8c.13.23.3.41.52.54.22.13.46.19.74.19Z"/>
      <path class="st16" d="M91.67,29.02c-.37,0-.71-.08-1.01-.24s-.54-.39-.71-.68-.26-.62-.26-.99.09-.7.26-.99c.17-.29.41-.51.71-.67.3-.16.64-.24,1.01-.24.35,0,.66.07.94.22.28.15.5.36.67.64.17.28.25.63.25,1.04s-.08.75-.25,1.04c-.16.28-.39.5-.67.65s-.59.22-.94.22ZM91.77,30.65c-.36,0-.7-.05-1.03-.16s-.6-.25-.8-.45l.27-.4c.18.16.41.29.68.39.27.1.56.15.86.15.5,0,.86-.12,1.1-.35.23-.23.35-.59.35-1.08v-.98l.07-.67-.05-.67v-1.19h.51v3.45c0,.68-.17,1.17-.5,1.49-.33.32-.82.48-1.47.48ZM91.73,28.54c.29,0,.55-.06.77-.18.22-.12.4-.29.53-.51s.19-.47.19-.75-.06-.53-.19-.75c-.13-.21-.31-.38-.53-.5-.22-.12-.48-.18-.77-.18s-.54.06-.77.18-.4.29-.53.5c-.13.21-.19.46-.19.75s.06.53.19.75c.13.22.3.39.53.51s.48.18.77.18Z"/>
      <path class="st16" d="M96.84,29.2c-.33,0-.62-.06-.87-.19-.25-.12-.44-.31-.58-.56s-.21-.56-.21-.93v-2.28h.53v2.22c0,.42.1.73.31.95s.5.32.87.32c.27,0,.51-.06.71-.17s.36-.28.46-.49c.11-.21.16-.47.16-.77v-2.06h.53v3.92h-.51v-1.08l.08.19c-.12.29-.32.51-.58.68-.26.16-.57.24-.92.24Z"/>
      <path class="st16" d="M101.91,29.2c-.41,0-.77-.09-1.08-.26-.31-.17-.55-.41-.73-.71s-.26-.65-.26-1.04.08-.73.25-1.03.4-.53.69-.71c.29-.17.62-.26.98-.26s.7.08.98.25c.29.17.51.4.68.7.17.3.25.65.25,1.04,0,.02,0,.05,0,.08s0,.06,0,.09h-3.42v-.4h3.13l-.21.16c0-.28-.06-.54-.18-.76s-.29-.4-.5-.52c-.21-.12-.45-.19-.72-.19s-.51.06-.73.19c-.21.12-.38.3-.5.52-.12.22-.18.48-.18.77v.08c0,.3.07.56.2.79s.32.4.55.53c.24.13.51.19.81.19.24,0,.46-.04.67-.13.21-.08.38-.21.53-.39l.3.34c-.17.21-.39.37-.65.48s-.55.16-.86.16Z"/>
    </g>
    <g>
      <path class="st16" d="M54.91,11.08c-.29,0-.55-.05-.77-.15-.22-.1-.38-.23-.5-.4-.11-.17-.17-.37-.17-.59,0-.2.05-.39.15-.56s.26-.3.48-.4c.22-.1.52-.15.89-.15h1.35v.4h-1.34c-.38,0-.64.07-.79.2-.15.13-.22.3-.22.5,0,.22.09.4.26.54.17.13.42.2.73.2s.56-.07.77-.21.38-.33.47-.59l.12.37c-.1.26-.27.47-.52.62-.25.15-.56.23-.93.23ZM56.27,11.04v-.87l-.02-.14v-1.45c0-.33-.09-.59-.28-.77-.19-.18-.46-.27-.83-.27-.25,0-.5.04-.73.13-.23.08-.42.2-.58.34l-.24-.4c.2-.17.44-.3.72-.39.28-.09.57-.14.88-.14.51,0,.9.13,1.18.38.28.25.42.63.42,1.15v2.44h-.51Z"/>
      <path class="st16" d="M58.22,11.04v-5.55h.53v5.55h-.53Z"/>
      <path class="st16" d="M60.23,11.04v-5.55h.53v5.55h-.53Z"/>
      <path class="st16" d="M63.91,11.08c-.41,0-.77-.09-1.08-.26-.31-.17-.55-.41-.73-.71s-.26-.65-.26-1.04.08-.73.25-1.03.4-.53.69-.71c.29-.17.62-.26.98-.26s.7.08.98.25c.29.17.51.4.68.7.17.3.25.65.25,1.04,0,.02,0,.05,0,.08s0,.06,0,.09h-3.42v-.4h3.13l-.21.16c0-.28-.06-.54-.18-.76s-.29-.4-.5-.52c-.21-.12-.45-.19-.72-.19s-.51.06-.73.19c-.21.12-.38.3-.5.52-.12.22-.18.48-.18.77v.08c0,.3.07.56.2.79s.32.4.55.53c.24.13.51.19.81.19.24,0,.46-.04.67-.13.21-.08.38-.21.53-.39l.3.34c-.17.21-.39.37-.65.48s-.55.16-.86.16Z"/>
      <path class="st16" d="M68.76,7.08c.32,0,.6.06.84.18.24.12.43.31.57.56.14.25.21.56.21.94v2.28h-.53v-2.23c0-.41-.1-.73-.31-.94s-.5-.32-.87-.32c-.28,0-.52.06-.73.17-.21.11-.37.27-.48.49s-.17.47-.17.77v2.06h-.53v-3.92h.51v1.08l-.08-.2c.12-.28.32-.51.6-.67.27-.16.6-.24.98-.24Z"/>
      <path class="st16" d="M74.82,11.08c-.32,0-.63-.05-.92-.14-.29-.09-.52-.21-.68-.35l.24-.42c.16.12.36.22.61.31.25.09.51.13.79.13.37,0,.64-.06.81-.18.17-.12.25-.27.25-.47,0-.14-.05-.26-.14-.34-.09-.08-.21-.14-.36-.19-.15-.04-.32-.08-.5-.11-.18-.03-.37-.06-.55-.1-.18-.04-.35-.1-.5-.18-.15-.08-.27-.18-.36-.32-.09-.13-.14-.31-.14-.54s.06-.41.18-.58c.12-.17.3-.3.53-.4.23-.1.51-.15.85-.15.25,0,.51.03.76.1s.46.16.63.27l-.23.43c-.17-.12-.36-.21-.56-.26-.2-.05-.4-.08-.6-.08-.35,0-.61.06-.78.18s-.25.28-.25.47c0,.15.05.27.14.35.09.08.21.15.37.2.15.05.32.09.5.12.18.03.36.07.55.11s.35.1.5.17.27.17.37.31.14.31.14.52c0,.23-.06.43-.19.59-.13.17-.31.3-.55.39-.24.09-.53.14-.88.14Z"/>
      <path class="st16" d="M77.45,12.53c-.18,0-.36-.03-.53-.09-.17-.06-.31-.15-.43-.27l.25-.4c.1.09.21.17.33.22.12.05.25.08.39.08.17,0,.33-.05.45-.15.13-.1.25-.27.36-.51l.25-.58.06-.08,1.62-3.64h.52l-1.97,4.4c-.11.25-.23.46-.36.61-.13.15-.28.26-.43.32s-.33.09-.52.09ZM78.49,11.15l-1.81-4.04h.55l1.6,3.6-.34.43Z"/>
      <path class="st16" d="M83.47,7.08c.32,0,.6.06.84.18.24.12.43.31.57.56.14.25.21.56.21.94v2.28h-.53v-2.23c0-.41-.1-.73-.31-.94s-.5-.32-.87-.32c-.28,0-.52.06-.73.17-.21.11-.37.27-.48.49s-.17.47-.17.77v2.06h-.53v-3.92h.51v1.08l-.08-.2c.12-.28.32-.51.6-.67.27-.16.6-.24.98-.24Z"/>
      <path class="st16" d="M85.91,7.56v-.44h2.43v.44h-2.43ZM87.76,11.08c-.37,0-.65-.1-.85-.3s-.3-.48-.3-.84v-3.69h.53v3.66c0,.23.06.41.18.53s.29.19.5.19c.23,0,.43-.07.58-.2l.19.38c-.11.09-.23.16-.38.21-.15.04-.3.07-.45.07Z"/>
      <path class="st16" d="M91.56,7.08c.32,0,.6.06.84.18.24.12.43.31.57.56.14.25.21.56.21.94v2.28h-.53v-2.23c0-.41-.1-.73-.31-.94s-.5-.32-.87-.32c-.28,0-.52.06-.73.17-.21.11-.37.27-.48.49s-.17.47-.17.77v2.06h-.53v-5.55h.53v2.7l-.1-.2c.12-.28.32-.51.6-.67.27-.16.6-.24.98-.24Z"/>
      <path class="st16" d="M96.28,11.08c-.41,0-.77-.09-1.08-.26-.31-.17-.55-.41-.73-.71s-.26-.65-.26-1.04.08-.73.25-1.03.4-.53.69-.71c.29-.17.62-.26.98-.26s.7.08.98.25c.29.17.51.4.68.7.17.3.25.65.25,1.04,0,.02,0,.05,0,.08s0,.06,0,.09h-3.42v-.4h3.13l-.21.16c0-.28-.06-.54-.18-.76s-.29-.4-.5-.52c-.21-.12-.45-.19-.72-.19s-.51.06-.73.19c-.21.12-.38.3-.5.52-.12.22-.18.48-.18.77v.08c0,.3.07.56.2.79s.32.4.55.53c.24.13.51.19.81.19.24,0,.46-.04.67-.13.21-.08.38-.21.53-.39l.3.34c-.17.21-.39.37-.65.48s-.55.16-.86.16Z"/>
      <path class="st16" d="M100.18,11.08c-.32,0-.63-.05-.92-.14-.29-.09-.52-.21-.68-.35l.24-.42c.16.12.36.22.61.31.25.09.51.13.79.13.37,0,.64-.06.81-.18.17-.12.25-.27.25-.47,0-.14-.05-.26-.14-.34-.09-.08-.21-.14-.36-.19-.15-.04-.32-.08-.5-.11-.18-.03-.37-.06-.55-.1-.18-.04-.35-.1-.5-.18-.15-.08-.27-.18-.36-.32-.09-.13-.14-.31-.14-.54s.06-.41.18-.58c.12-.17.3-.3.53-.4.23-.1.51-.15.85-.15.25,0,.51.03.76.1s.46.16.63.27l-.23.43c-.17-.12-.36-.21-.56-.26-.2-.05-.4-.08-.6-.08-.35,0-.61.06-.78.18s-.25.28-.25.47c0,.15.05.27.14.35.09.08.21.15.37.2.15.05.32.09.5.12.18.03.36.07.55.11s.35.1.5.17.27.17.37.31.14.31.14.52c0,.23-.06.43-.19.59-.13.17-.31.3-.55.39-.24.09-.53.14-.88.14Z"/>
      <path class="st16" d="M103.05,6.25c-.11,0-.2-.04-.28-.11-.07-.08-.11-.17-.11-.27s.04-.19.11-.27c.08-.07.17-.11.28-.11s.2.04.28.11c.07.07.11.16.11.26s-.04.2-.11.28c-.07.07-.17.11-.28.11ZM102.78,11.04v-3.92h.53v3.92h-.53Z"/>
      <path class="st16" d="M105.84,11.08c-.32,0-.63-.05-.92-.14-.29-.09-.52-.21-.68-.35l.24-.42c.16.12.36.22.61.31.25.09.51.13.79.13.37,0,.64-.06.81-.18.17-.12.25-.27.25-.47,0-.14-.05-.26-.14-.34-.09-.08-.21-.14-.36-.19-.15-.04-.32-.08-.5-.11-.18-.03-.37-.06-.55-.1-.18-.04-.35-.1-.5-.18-.15-.08-.27-.18-.36-.32-.09-.13-.14-.31-.14-.54s.06-.41.18-.58c.12-.17.3-.3.53-.4.23-.1.51-.15.85-.15.25,0,.51.03.76.1s.46.16.63.27l-.23.43c-.17-.12-.36-.21-.56-.26-.2-.05-.4-.08-.6-.08-.35,0-.61.06-.78.18s-.25.28-.25.47c0,.15.05.27.14.35.09.08.21.15.37.2.15.05.32.09.5.12.18.03.36.07.55.11s.35.1.5.17.27.17.37.31.14.31.14.52c0,.23-.06.43-.19.59-.13.17-.31.3-.55.39-.24.09-.53.14-.88.14Z"/>
    </g>
    <g class="st46">
      <path class="st31" d="M28.69,237.4c0,3.91-3.17,7.09-7.09,7.09s-7.09-3.17-7.09-7.09,3.17-7.09,7.09-7.09,7.09,3.17,7.09,7.09"/>
    </g>
    <g class="st26">
      <path class="st31" d="M64.69,237.4c0,3.91-3.17,7.09-7.09,7.09s-7.09-3.17-7.09-7.09,3.17-7.09,7.09-7.09,7.09,3.17,7.09,7.09"/>
    </g>
    <g class="st42">
      <path class="st31" d="M100.69,237.4c0,3.91-3.17,7.09-7.09,7.09s-7.09-3.17-7.09-7.09,3.17-7.09,7.09-7.09,7.09,3.17,7.09,7.09"/>
    </g>
    <g class="st30">
      <path class="st31" d="M28.69,291.28c0,3.91-3.17,7.09-7.09,7.09s-7.09-3.17-7.09-7.09,3.17-7.09,7.09-7.09,7.09,3.17,7.09,7.09"/>
    </g>
    <g class="st14">
      <path class="st31" d="M64.69,291.28c0,3.91-3.17,7.09-7.09,7.09s-7.09-3.17-7.09-7.09,3.17-7.09,7.09-7.09,7.09,3.17,7.09,7.09"/>
    </g>
    <g class="st27">
      <path class="st31" d="M100.69,291.28c0,3.91-3.17,7.09-7.09,7.09s-7.09-3.17-7.09-7.09,3.17-7.09,7.09-7.09,7.09,3.17,7.09,7.09"/>
    </g>
  </g>
  <g id="cutouts">
    <path class="st21" d="M29.4,8.5c0,2.51-2.04,4.54-4.54,4.54h-7.2c-2.51,0-4.54-2.03-4.54-4.54s2.03-4.53,4.54-4.53h7.2c2.5,0,4.54,2.03,4.54,4.53Z"/>
    <path class="st21" d="M29.4,355.74c0,2.51-2.04,4.54-4.54,4.54h-7.2c-2.51,0-4.54-2.03-4.54-4.54s2.03-4.53,4.54-4.53h7.2c2.5,0,4.54,2.03,4.54,4.53Z"/>
    <circle class="st21" cx="28.8" cy="51.02" r="8.86"/>
    <circle class="st21" cx="21.6" cy="262.2" r="8.86"/>
    <circle class="st21" cx="57.6" cy="262.2" r="8.86"/>
    <circle class="st21" cx="93.6" cy="262.2" r="8.86"/>
    <circle class="st21" cx="21.6" cy="316.08" r="8.86"/>
    <circle class="st21" cx="57.6" cy="316.08" r="8.86"/>
    <circle class="st21" cx="93.6" cy="316.08" r="8.86"/>
    <circle class="st21" cx="21.6" cy="237.4" r="4.39"/>
    <circle class="st21" cx="57.6" cy="237.4" r="4.39"/>
    <circle class="st21" cx="93.6" cy="237.4" r="4.39"/>
    <circle class="st21" cx="21.6" cy="291.28" r="4.39"/>
    <circle class="st21" cx="57.6" cy="291.28" r="4.39"/>
    <circle class="st21" cx="93.6" cy="291.28" r="4.39"/>
    <circle class="st21" cx="28.8" cy="148.82" r="10.63"/>
    <circle class="st21" cx="28.8" cy="192.76" r="13.46"/>
    <circle class="st21" cx="86.4" cy="192.76" r="13.46"/>
    <circle class="st21" cx="86.4" cy="148.82" r="10.63"/>
    <circle class="st21" cx="86.4" cy="51.02" r="8.86"/>
    <rect class="st21" x="21.6" y="82.29" width="72" height="23.04" rx="2.88" ry="2.88"/>
  </g>
  <g id="components" class="st38">
    <rect class="st15" width="115.2" height="364.25"/>
    <g>
      <circle class="st24" cx="21.6" cy="262.2" r="13.48"/>
      <g class="st11">
        <line class="st8" x1="31.13" y1="252.67" x2="12.07" y2="271.74"/>
      </g>
      <circle class="st15" cx="21.6" cy="262.2" r="8.5"/>
      <circle class="st45" cx="21.6" cy="262.2" r="7.56"/>
      <circle class="st16" cx="21.6" cy="262.2" r="5.67"/>
    </g>
    <g>
      <circle class="st41" cx="57.6" cy="262.2" r="13.48"/>
      <g class="st12">
        <line class="st4" x1="67.13" y1="252.67" x2="48.07" y2="271.74"/>
      </g>
      <circle class="st15" cx="57.6" cy="262.2" r="8.5"/>
      <circle class="st45" cx="57.6" cy="262.2" r="7.56"/>
      <circle class="st16" cx="57.6" cy="262.2" r="5.67"/>
    </g>
    <g>
      <circle class="st43" cx="93.6" cy="262.2" r="13.48"/>
      <g class="st28">
        <line class="st10" x1="103.13" y1="252.67" x2="84.07" y2="271.74"/>
      </g>
      <circle class="st15" cx="93.6" cy="262.2" r="8.5"/>
      <circle class="st45" cx="93.6" cy="262.2" r="7.56"/>
      <circle class="st16" cx="93.6" cy="262.2" r="5.67"/>
    </g>
    <g>
      <circle class="st40" cx="21.6" cy="316.08" r="13.48"/>
      <g class="st17">
        <line class="st7" x1="31.13" y1="306.55" x2="12.07" y2="325.61"/>
      </g>
      <circle class="st15" cx="21.6" cy="316.08" r="8.5"/>
      <circle class="st45" cx="21.6" cy="316.08" r="7.56"/>
      <circle class="st16" cx="21.6" cy="316.08" r="5.67"/>
    </g>
    <g>
      <circle class="st35" cx="57.6" cy="316.08" r="13.48"/>
      <g class="st18">
        <line class="st3" x1="67.13" y1="306.55" x2="48.07" y2="325.61"/>
      </g>
      <circle class="st15" cx="57.6" cy="316.08" r="8.5"/>
      <circle class="st45" cx="57.6" cy="316.08" r="7.56"/>
      <circle class="st16" cx="57.6" cy="316.08" r="5.67"/>
    </g>
    <g>
      <circle class="st19" cx="93.6" cy="316.08" r="13.48"/>
      <g class="st22">
        <line class="st1" x1="103.13" y1="306.55" x2="84.07" y2="325.61"/>
      </g>
      <circle class="st15" cx="93.6" cy="316.08" r="8.5"/>
      <circle class="st45" cx="93.6" cy="316.08" r="7.56"/>
      <circle class="st16" cx="93.6" cy="316.08" r="5.67"/>
    </g>
    <g>
      <circle class="st36" cx="28.8" cy="51.02" r="13.48"/>
      <g>
        <circle class="st33" cx="28.8" cy="51.02" r="13.48"/>
        <g class="st34">
          <line class="st6" x1="38.33" y1="41.49" x2="19.27" y2="60.55"/>
        </g>
      </g>
      <circle class="st15" cx="28.8" cy="51.02" r="8.5"/>
      <circle class="st45" cx="28.8" cy="51.02" r="7.56"/>
      <circle class="st16" cx="28.8" cy="51.02" r="5.67"/>
    </g>
    <g>
      <circle class="st47" cx="86.4" cy="51.02" r="13.48"/>
      <g>
        <circle class="st39" cx="86.4" cy="51.02" r="13.48"/>
        <g class="st44">
          <line class="st5" x1="95.93" y1="41.49" x2="76.87" y2="60.55"/>
        </g>
      </g>
      <circle class="st15" cx="86.4" cy="51.02" r="8.5"/>
      <circle class="st45" cx="86.4" cy="51.02" r="7.56"/>
      <circle class="st16" cx="86.4" cy="51.02" r="5.67"/>
    </g>
    <rect x="21.6" y="82.29" width="72" height="23.04" rx="2.88" ry="2.88"/>
    <g>
      <circle class="st13" cx="86.4" cy="148.82" r="17.01"/>
      <line class="st2" x1="85.69" y1="148.11" x2="74.37" y2="136.79"/>
    </g>
    <g>
      <circle class="st25" cx="28.8" cy="148.82" r="17.01"/>
      <line class="st9" x1="27.93" y1="149.32" x2="14.07" y2="157.32"/>
    </g>
    <path d="M29.4,8.5c0,2.51-2.04,4.54-4.54,4.54h-7.2c-2.51,0-4.54-2.03-4.54-4.54s2.03-4.53,4.54-4.53h7.2c2.5,0,4.54,2.03,4.54,4.53Z"/>
    <path d="M29.4,355.74c0,2.51-2.04,4.54-4.54,4.54h-7.2c-2.51,0-4.54-2.03-4.54-4.54s2.03-4.53,4.54-4.53h7.2c2.5,0,4.54,2.03,4.54,4.53Z"/>
    <circle class="st20" cx="86.4" cy="192.76" r="13.54"/>
    <circle class="st37" cx="28.8" cy="192.76" r="13.54"/>
    <circle class="st0" cx="21.6" cy="237.4" r="4.25"/>
    <circle class="st0" cx="57.6" cy="237.4" r="4.25"/>
    <circle class="st0" cx="93.6" cy="237.4" r="4.25"/>
    <circle class="st0" cx="21.6" cy="291.28" r="4.25"/>
    <circle class="st0" cx="57.6" cy="291.28" r="4.25"/>
    <circle class="st0" cx="93.6" cy="291.28" r="4.25"/>
  </g>
</svg>