<?xml version="1.0" encoding="utf-8"?>
<!-- Generator: Adobe Illustrator 27.9.1, SVG Export Plug-In . SVG Version: 6.00 Build 0)  -->
<svg version="1.1" xmlns="http://www.w3.org/2000/svg" xmlns:xlink="http://www.w3.org/1999/xlink" x="0px" y="0px"
	 viewBox="0 0 115.2 364.25" style="enable-background:new 0 0 115.2 364.25;" xml:space="preserve">
<style type="text/css">
	.st0{clip-path:url(#SVGID_00000070082915273294909880000014046721599442533285_);fill:#414042;}
	.st1{clip-path:url(#SVGID_00000176015482463096981780000010266362044382956941_);fill:#BDCFC4;}
	.st2{clip-path:url(#SVGID_00000085949463686786689360000015612077511305790111_);fill:#BE1E2D;}
	.st3{clip-path:url(#SVGID_00000150783479339401066520000015734252727494805408_);fill:#BE1E2D;}
	.st4{clip-path:url(#SVGID_00000101792612264422456710000002973285940459634106_);fill:#BE1E2D;}
	.st5{clip-path:url(#SVGID_00000067217642466990062620000010973397099904110249_);fill:#BE1E2D;}
	.st6{clip-path:url(#SVGID_00000134221516800732444410000004038885395376695209_);fill:#BE1E2D;}
	.st7{clip-path:url(#SVGID_00000169537148170671524260000001660599765918977417_);fill:#BE1E2D;}
	.st8{clip-path:url(#SVGID_00000008125807717275755230000017646497071678318763_);fill:#BE1E2D;}
	.st9{clip-path:url(#SVGID_00000055666472281515128930000016946393443867940268_);fill:#BE1E2D;}
	.st10{clip-path:url(#SVGID_00000128458316635615095590000010079066615535794351_);fill:#BE1E2D;}
	.st11{clip-path:url(#SVGID_00000042016704070362720960000001315661870452140204_);fill:#BE1E2D;}
	.st12{clip-path:url(#SVGID_00000069374624675663570080000012750418952203762104_);fill:#BE1E2D;}
	.st13{clip-path:url(#SVGID_00000165938286876628572400000015961049865404564363_);fill:#BE1E2D;}
	.st14{fill:#ED1C24;}
</style>
<g id="printing">
	<g>
		<path d="M85.8,356.32c-0.41,0-0.77-0.09-1.08-0.26c-0.31-0.17-0.55-0.41-0.73-0.71s-0.26-0.65-0.26-1.04
			c0-0.39,0.08-0.73,0.25-1.03s0.4-0.53,0.69-0.71c0.29-0.17,0.62-0.26,0.98-0.26c0.37,0,0.7,0.08,0.98,0.25
			c0.29,0.17,0.51,0.4,0.68,0.7c0.17,0.3,0.25,0.65,0.25,1.04c0,0.02,0,0.05,0,0.08s0,0.06,0,0.09h-3.42v-0.4h3.13l-0.21,0.16
			c0-0.28-0.06-0.54-0.18-0.76s-0.29-0.4-0.5-0.52c-0.21-0.12-0.45-0.19-0.72-0.19c-0.27,0-0.51,0.06-0.73,0.19
			c-0.21,0.12-0.38,0.3-0.5,0.52c-0.12,0.22-0.18,0.48-0.18,0.77v0.08c0,0.3,0.07,0.56,0.2,0.79s0.32,0.4,0.55,0.53
			c0.24,0.13,0.51,0.19,0.81,0.19c0.24,0,0.46-0.04,0.67-0.13c0.21-0.08,0.38-0.21,0.53-0.39l0.3,0.34
			c-0.17,0.21-0.39,0.37-0.65,0.48S86.11,356.32,85.8,356.32z"/>
		<path d="M90.27,356.32c-0.33,0-0.62-0.06-0.87-0.19c-0.25-0.12-0.44-0.31-0.58-0.56s-0.21-0.56-0.21-0.93v-2.28h0.53v2.22
			c0,0.42,0.1,0.73,0.31,0.95s0.5,0.32,0.87,0.32c0.27,0,0.51-0.06,0.71-0.17s0.36-0.28,0.46-0.49c0.11-0.21,0.16-0.47,0.16-0.77
			v-2.06h0.53v3.92h-0.51v-1.08l0.08,0.19c-0.12,0.29-0.32,0.51-0.58,0.68C90.92,356.24,90.62,356.32,90.27,356.32z"/>
		<path d="M93.67,356.28v-3.92h0.51v1.07l-0.05-0.19c0.11-0.3,0.29-0.53,0.55-0.68c0.26-0.16,0.58-0.24,0.96-0.24v0.52
			c-0.02,0-0.04,0-0.06,0c-0.02,0-0.04,0-0.06,0c-0.41,0-0.74,0.13-0.97,0.38c-0.23,0.25-0.35,0.61-0.35,1.07v2H93.67z"/>
		<path d="M98.27,356.32c-0.38,0-0.72-0.09-1.02-0.26c-0.3-0.17-0.54-0.41-0.71-0.71s-0.26-0.65-0.26-1.03
			c0-0.39,0.09-0.74,0.26-1.04c0.17-0.3,0.41-0.53,0.71-0.7c0.3-0.17,0.64-0.25,1.02-0.25c0.39,0,0.73,0.09,1.04,0.26
			c0.3,0.17,0.54,0.41,0.71,0.7c0.17,0.3,0.26,0.64,0.26,1.04c0,0.39-0.09,0.73-0.26,1.04s-0.41,0.54-0.71,0.71
			C99,356.23,98.65,356.32,98.27,356.32z M98.27,355.85c0.28,0,0.54-0.06,0.76-0.19c0.22-0.13,0.39-0.31,0.52-0.54
			c0.13-0.23,0.19-0.5,0.19-0.8c0-0.31-0.06-0.58-0.19-0.81c-0.13-0.23-0.3-0.41-0.52-0.54c-0.22-0.13-0.47-0.19-0.75-0.19
			s-0.53,0.06-0.75,0.19c-0.22,0.13-0.39,0.31-0.52,0.54c-0.13,0.23-0.19,0.5-0.19,0.81c0,0.3,0.07,0.57,0.19,0.8
			c0.13,0.23,0.3,0.41,0.52,0.54C97.74,355.79,97.99,355.85,98.27,355.85z"/>
		<path d="M101.36,357.73v-5.38h0.51v1.18l-0.05,0.79l0.07,0.79v2.62H101.36z M103.38,356.32c-0.34,0-0.65-0.08-0.92-0.24
			s-0.49-0.38-0.65-0.68c-0.16-0.3-0.24-0.66-0.24-1.09s0.08-0.79,0.24-1.09c0.16-0.3,0.38-0.52,0.65-0.68
			c0.27-0.15,0.58-0.23,0.93-0.23c0.37,0,0.71,0.08,1,0.25c0.3,0.17,0.53,0.4,0.7,0.7c0.17,0.3,0.25,0.65,0.25,1.04
			c0,0.4-0.08,0.75-0.25,1.05c-0.17,0.3-0.4,0.53-0.7,0.7C104.09,356.24,103.75,356.32,103.38,356.32z M103.34,355.85
			c0.28,0,0.53-0.06,0.75-0.19c0.22-0.13,0.39-0.31,0.52-0.54c0.13-0.23,0.19-0.5,0.19-0.8c0-0.3-0.06-0.57-0.19-0.8
			c-0.13-0.23-0.3-0.41-0.52-0.54c-0.22-0.13-0.47-0.19-0.75-0.19s-0.53,0.06-0.75,0.19s-0.4,0.31-0.52,0.54
			c-0.13,0.23-0.19,0.5-0.19,0.8c0,0.3,0.06,0.57,0.19,0.8c0.13,0.23,0.3,0.41,0.52,0.54S103.06,355.85,103.34,355.85z"/>
		<path d="M106.69,351.49c-0.11,0-0.2-0.04-0.28-0.11c-0.07-0.08-0.11-0.17-0.11-0.27s0.04-0.19,0.11-0.27
			c0.08-0.07,0.17-0.11,0.28-0.11c0.11,0,0.2,0.04,0.28,0.11c0.07,0.07,0.11,0.16,0.11,0.26c0,0.11-0.04,0.2-0.11,0.28
			C106.9,351.45,106.81,351.49,106.69,351.49z M106.42,356.28v-3.92h0.53v3.92H106.42z"/>
	</g>
	<g>
		<path d="M19.27,29.2c-0.37,0-0.71-0.08-1.01-0.25c-0.3-0.17-0.53-0.41-0.7-0.71c-0.17-0.3-0.25-0.65-0.25-1.04
			c0-0.4,0.08-0.75,0.25-1.05c0.17-0.3,0.4-0.53,0.7-0.7c0.3-0.17,0.63-0.25,1.01-0.25c0.34,0,0.65,0.08,0.92,0.23
			c0.27,0.15,0.49,0.38,0.65,0.68c0.16,0.3,0.24,0.66,0.24,1.09c0,0.42-0.08,0.78-0.24,1.08c-0.16,0.3-0.38,0.53-0.65,0.68
			S19.62,29.2,19.27,29.2z M19.3,28.73c0.28,0,0.53-0.06,0.75-0.19s0.4-0.31,0.52-0.54c0.13-0.23,0.19-0.5,0.19-0.8
			c0-0.31-0.06-0.58-0.19-0.81c-0.13-0.23-0.3-0.41-0.52-0.54s-0.47-0.19-0.75-0.19c-0.27,0-0.52,0.06-0.74,0.19
			c-0.22,0.13-0.39,0.31-0.52,0.54c-0.13,0.23-0.19,0.5-0.19,0.81c0,0.3,0.07,0.57,0.19,0.8c0.13,0.23,0.3,0.41,0.52,0.54
			C18.78,28.67,19.03,28.73,19.3,28.73z M20.79,29.17v-1.18l0.05-0.79l-0.08-0.79v-2.78h0.53v5.55H20.79z"/>
		<path d="M23.04,24.37c-0.11,0-0.2-0.04-0.28-0.11c-0.07-0.08-0.11-0.17-0.11-0.27s0.04-0.19,0.11-0.27
			c0.08-0.07,0.17-0.11,0.28-0.11c0.11,0,0.2,0.04,0.28,0.11c0.07,0.07,0.11,0.16,0.11,0.26c0,0.11-0.04,0.2-0.11,0.28
			C23.25,24.33,23.16,24.37,23.04,24.37z M22.77,29.17v-3.92h0.53v3.92H22.77z"/>
		<path d="M26.36,29.02c-0.37,0-0.71-0.08-1.01-0.24s-0.54-0.39-0.71-0.68s-0.26-0.62-0.26-0.99s0.09-0.7,0.26-0.99
			c0.17-0.29,0.41-0.51,0.71-0.67c0.3-0.16,0.64-0.24,1.01-0.24c0.35,0,0.66,0.07,0.94,0.22c0.28,0.15,0.5,0.36,0.67,0.64
			c0.17,0.28,0.25,0.63,0.25,1.04c0,0.41-0.08,0.75-0.25,1.04c-0.16,0.28-0.39,0.5-0.67,0.65S26.71,29.02,26.36,29.02z M26.46,30.65
			c-0.36,0-0.7-0.05-1.03-0.16s-0.6-0.25-0.8-0.45l0.27-0.4c0.18,0.16,0.41,0.29,0.68,0.39c0.27,0.1,0.56,0.15,0.86,0.15
			c0.5,0,0.86-0.12,1.1-0.35c0.23-0.23,0.35-0.59,0.35-1.08v-0.98l0.07-0.67l-0.05-0.67v-1.19h0.51v3.45c0,0.68-0.17,1.17-0.5,1.49
			C27.6,30.49,27.11,30.65,26.46,30.65z M26.42,28.54c0.29,0,0.55-0.06,0.77-0.18c0.22-0.12,0.4-0.29,0.53-0.51s0.19-0.47,0.19-0.75
			s-0.06-0.53-0.19-0.75c-0.13-0.21-0.31-0.38-0.53-0.5c-0.22-0.12-0.48-0.18-0.77-0.18c-0.28,0-0.54,0.06-0.77,0.18
			s-0.4,0.29-0.53,0.5c-0.13,0.21-0.19,0.46-0.19,0.75s0.06,0.53,0.19,0.75c0.13,0.22,0.3,0.39,0.53,0.51S26.13,28.54,26.42,28.54z"
			/>
		<path d="M30.18,24.37c-0.11,0-0.2-0.04-0.28-0.11c-0.07-0.08-0.11-0.17-0.11-0.27s0.04-0.19,0.11-0.27
			c0.08-0.07,0.17-0.11,0.28-0.11c0.11,0,0.2,0.04,0.28,0.11c0.07,0.07,0.11,0.16,0.11,0.26c0,0.11-0.04,0.2-0.11,0.28
			C30.38,24.33,30.29,24.37,30.18,24.37z M29.91,29.17v-3.92h0.53v3.92H29.91z"/>
		<path d="M31.3,25.68v-0.44h2.43v0.44H31.3z M33.16,29.2c-0.37,0-0.65-0.1-0.85-0.3s-0.3-0.48-0.3-0.84v-3.69h0.53v3.66
			c0,0.23,0.06,0.41,0.18,0.53s0.29,0.19,0.5,0.19c0.23,0,0.43-0.07,0.58-0.2l0.19,0.38c-0.11,0.09-0.23,0.16-0.38,0.21
			C33.46,29.18,33.31,29.2,33.16,29.2z"/>
		<path d="M36.06,29.2c-0.29,0-0.55-0.05-0.77-0.15s-0.38-0.23-0.5-0.4c-0.11-0.17-0.17-0.37-0.17-0.59c0-0.2,0.05-0.39,0.15-0.56
			c0.1-0.17,0.26-0.3,0.48-0.4c0.22-0.1,0.52-0.15,0.89-0.15h1.35v0.4h-1.34c-0.38,0-0.64,0.07-0.79,0.2
			c-0.15,0.13-0.22,0.3-0.22,0.5c0,0.22,0.09,0.4,0.26,0.54s0.42,0.2,0.73,0.2c0.3,0,0.56-0.07,0.77-0.21s0.38-0.33,0.47-0.59
			l0.12,0.37c-0.1,0.26-0.27,0.47-0.52,0.62S36.43,29.2,36.06,29.2z M37.41,29.17V28.3l-0.02-0.14v-1.45c0-0.33-0.09-0.59-0.28-0.77
			c-0.19-0.18-0.46-0.27-0.83-0.27c-0.25,0-0.5,0.04-0.73,0.13c-0.23,0.08-0.42,0.2-0.58,0.34l-0.24-0.4
			c0.2-0.17,0.44-0.3,0.72-0.39c0.28-0.09,0.57-0.14,0.88-0.14c0.51,0,0.9,0.13,1.18,0.38c0.28,0.25,0.42,0.63,0.42,1.15v2.44H37.41
			z"/>
		<path d="M39.36,29.17v-5.55h0.53v5.55H39.36z"/>
	</g>
	<g>
		<path d="M70.63,29.2c-0.29,0-0.55-0.05-0.77-0.15s-0.38-0.23-0.5-0.4c-0.11-0.17-0.17-0.37-0.17-0.59c0-0.2,0.05-0.39,0.15-0.56
			c0.1-0.17,0.26-0.3,0.48-0.4c0.22-0.1,0.52-0.15,0.89-0.15h1.35v0.4h-1.34c-0.38,0-0.64,0.07-0.79,0.2
			c-0.15,0.13-0.22,0.3-0.22,0.5c0,0.22,0.09,0.4,0.26,0.54s0.42,0.2,0.73,0.2c0.3,0,0.56-0.07,0.77-0.21s0.38-0.33,0.47-0.59
			l0.12,0.37c-0.1,0.26-0.27,0.47-0.52,0.62S71,29.2,70.63,29.2z M71.98,29.17V28.3l-0.02-0.14v-1.45c0-0.33-0.09-0.59-0.28-0.77
			c-0.19-0.18-0.46-0.27-0.83-0.27c-0.25,0-0.5,0.04-0.73,0.13c-0.23,0.08-0.42,0.2-0.58,0.34l-0.24-0.4
			c0.2-0.17,0.44-0.3,0.72-0.39c0.28-0.09,0.57-0.14,0.88-0.14c0.51,0,0.9,0.13,1.18,0.38c0.28,0.25,0.42,0.63,0.42,1.15v2.44H71.98
			z"/>
		<path d="M75.94,25.2c0.32,0,0.6,0.06,0.84,0.18c0.24,0.12,0.43,0.31,0.57,0.56c0.14,0.25,0.21,0.56,0.21,0.94v2.28h-0.53v-2.23
			c0-0.41-0.1-0.73-0.31-0.94s-0.5-0.32-0.87-0.32c-0.28,0-0.52,0.06-0.73,0.17c-0.21,0.11-0.37,0.27-0.48,0.49
			s-0.17,0.47-0.17,0.77v2.06h-0.53v-3.92h0.51v1.08l-0.08-0.2c0.12-0.28,0.32-0.51,0.6-0.67C75.23,25.28,75.56,25.2,75.94,25.2z"/>
		<path d="M80.09,29.2c-0.29,0-0.55-0.05-0.77-0.15s-0.38-0.23-0.5-0.4c-0.11-0.17-0.17-0.37-0.17-0.59c0-0.2,0.05-0.39,0.15-0.56
			c0.1-0.17,0.26-0.3,0.48-0.4c0.22-0.1,0.52-0.15,0.89-0.15h1.35v0.4h-1.34c-0.38,0-0.64,0.07-0.79,0.2
			c-0.15,0.13-0.22,0.3-0.22,0.5c0,0.22,0.09,0.4,0.26,0.54s0.42,0.2,0.73,0.2c0.3,0,0.56-0.07,0.77-0.21s0.38-0.33,0.47-0.59
			l0.12,0.37c-0.1,0.26-0.27,0.47-0.52,0.62S80.47,29.2,80.09,29.2z M81.45,29.17V28.3l-0.02-0.14v-1.45c0-0.33-0.09-0.59-0.28-0.77
			c-0.19-0.18-0.46-0.27-0.83-0.27c-0.25,0-0.5,0.04-0.73,0.13c-0.23,0.08-0.42,0.2-0.58,0.34l-0.24-0.4
			c0.2-0.17,0.44-0.3,0.72-0.39c0.28-0.09,0.57-0.14,0.88-0.14c0.51,0,0.9,0.13,1.18,0.38c0.28,0.25,0.42,0.63,0.42,1.15v2.44H81.45
			z"/>
		<path d="M83.4,29.17v-5.55h0.53v5.55H83.4z"/>
		<path d="M87.01,29.2c-0.38,0-0.72-0.09-1.02-0.26c-0.3-0.17-0.54-0.41-0.71-0.71s-0.26-0.65-0.26-1.03c0-0.39,0.09-0.74,0.26-1.04
			c0.17-0.3,0.41-0.53,0.71-0.7c0.3-0.17,0.64-0.25,1.02-0.25c0.39,0,0.73,0.09,1.04,0.26c0.3,0.17,0.54,0.41,0.71,0.7
			c0.17,0.3,0.26,0.64,0.26,1.04c0,0.39-0.09,0.73-0.26,1.04s-0.41,0.54-0.71,0.71C87.74,29.12,87.39,29.2,87.01,29.2z M87.01,28.73
			c0.28,0,0.54-0.06,0.76-0.19c0.22-0.13,0.39-0.31,0.52-0.54c0.13-0.23,0.19-0.5,0.19-0.8c0-0.31-0.06-0.58-0.19-0.81
			c-0.13-0.23-0.3-0.41-0.52-0.54c-0.22-0.13-0.47-0.19-0.75-0.19s-0.53,0.06-0.75,0.19c-0.22,0.13-0.39,0.31-0.52,0.54
			c-0.13,0.23-0.19,0.5-0.19,0.81c0,0.3,0.07,0.57,0.19,0.8c0.13,0.23,0.3,0.41,0.52,0.54C86.48,28.67,86.73,28.73,87.01,28.73z"/>
		<path d="M91.67,29.02c-0.37,0-0.71-0.08-1.01-0.24s-0.54-0.39-0.71-0.68s-0.26-0.62-0.26-0.99s0.09-0.7,0.26-0.99
			c0.17-0.29,0.41-0.51,0.71-0.67c0.3-0.16,0.64-0.24,1.01-0.24c0.35,0,0.66,0.07,0.94,0.22c0.28,0.15,0.5,0.36,0.67,0.64
			c0.17,0.28,0.25,0.63,0.25,1.04c0,0.41-0.08,0.75-0.25,1.04c-0.16,0.28-0.39,0.5-0.67,0.65S92.02,29.02,91.67,29.02z M91.77,30.65
			c-0.36,0-0.7-0.05-1.03-0.16s-0.6-0.25-0.8-0.45l0.27-0.4c0.18,0.16,0.41,0.29,0.68,0.39c0.27,0.1,0.56,0.15,0.86,0.15
			c0.5,0,0.86-0.12,1.1-0.35c0.23-0.23,0.35-0.59,0.35-1.08v-0.98l0.07-0.67l-0.05-0.67v-1.19h0.51v3.45c0,0.68-0.17,1.17-0.5,1.49
			C92.91,30.49,92.42,30.65,91.77,30.65z M91.73,28.54c0.29,0,0.55-0.06,0.77-0.18c0.22-0.12,0.4-0.29,0.53-0.51
			s0.19-0.47,0.19-0.75s-0.06-0.53-0.19-0.75c-0.13-0.21-0.31-0.38-0.53-0.5c-0.22-0.12-0.48-0.18-0.77-0.18
			c-0.28,0-0.54,0.06-0.77,0.18s-0.4,0.29-0.53,0.5c-0.13,0.21-0.19,0.46-0.19,0.75s0.06,0.53,0.19,0.75
			c0.13,0.22,0.3,0.39,0.53,0.51S91.44,28.54,91.73,28.54z"/>
		<path d="M96.84,29.2c-0.33,0-0.62-0.06-0.87-0.19c-0.25-0.12-0.44-0.31-0.58-0.56s-0.21-0.56-0.21-0.93v-2.28h0.53v2.22
			c0,0.42,0.1,0.73,0.31,0.95s0.5,0.32,0.87,0.32c0.27,0,0.51-0.06,0.71-0.17s0.36-0.28,0.46-0.49c0.11-0.21,0.16-0.47,0.16-0.77
			v-2.06h0.53v3.92h-0.51v-1.08l0.08,0.19c-0.12,0.29-0.32,0.51-0.58,0.68C97.5,29.12,97.19,29.2,96.84,29.2z"/>
		<path d="M101.91,29.2c-0.41,0-0.77-0.09-1.08-0.26c-0.31-0.17-0.55-0.41-0.73-0.71s-0.26-0.65-0.26-1.04
			c0-0.39,0.08-0.73,0.25-1.03s0.4-0.53,0.69-0.71c0.29-0.17,0.62-0.26,0.98-0.26c0.37,0,0.7,0.08,0.98,0.25
			c0.29,0.17,0.51,0.4,0.68,0.7c0.17,0.3,0.25,0.65,0.25,1.04c0,0.02,0,0.05,0,0.08s0,0.06,0,0.09h-3.42v-0.4h3.13l-0.21,0.16
			c0-0.28-0.06-0.54-0.18-0.76s-0.29-0.4-0.5-0.52c-0.21-0.12-0.45-0.19-0.72-0.19c-0.27,0-0.51,0.06-0.73,0.19
			c-0.21,0.12-0.38,0.3-0.5,0.52c-0.12,0.22-0.18,0.48-0.18,0.77v0.08c0,0.3,0.07,0.56,0.2,0.79s0.32,0.4,0.55,0.53
			c0.24,0.13,0.51,0.19,0.81,0.19c0.24,0,0.46-0.04,0.67-0.13c0.21-0.08,0.38-0.21,0.53-0.39l0.3,0.34
			c-0.17,0.21-0.39,0.37-0.65,0.48S102.22,29.2,101.91,29.2z"/>
	</g>
	<g>
		<path d="M54.91,11.08c-0.29,0-0.55-0.05-0.77-0.15c-0.22-0.1-0.38-0.23-0.5-0.4c-0.11-0.17-0.17-0.37-0.17-0.59
			c0-0.2,0.05-0.39,0.15-0.56s0.26-0.3,0.48-0.4c0.22-0.1,0.52-0.15,0.89-0.15h1.35v0.4h-1.34c-0.38,0-0.64,0.07-0.79,0.2
			C54.07,9.55,54,9.72,54,9.92c0,0.22,0.09,0.4,0.26,0.54c0.17,0.13,0.42,0.2,0.73,0.2c0.3,0,0.56-0.07,0.77-0.21
			s0.38-0.33,0.47-0.59l0.12,0.37c-0.1,0.26-0.27,0.47-0.52,0.62C55.6,11,55.29,11.08,54.91,11.08z M56.27,11.04v-0.87l-0.02-0.14
			V8.58c0-0.33-0.09-0.59-0.28-0.77c-0.19-0.18-0.46-0.27-0.83-0.27c-0.25,0-0.5,0.04-0.73,0.13c-0.23,0.08-0.42,0.2-0.58,0.34
			l-0.24-0.4c0.2-0.17,0.44-0.3,0.72-0.39c0.28-0.09,0.57-0.14,0.88-0.14c0.51,0,0.9,0.13,1.18,0.38c0.28,0.25,0.42,0.63,0.42,1.15
			v2.44H56.27z"/>
		<path d="M58.22,11.04V5.49h0.53v5.55H58.22z"/>
		<path d="M60.23,11.04V5.49h0.53v5.55H60.23z"/>
		<path d="M63.91,11.08c-0.41,0-0.77-0.09-1.08-0.26c-0.31-0.17-0.55-0.41-0.73-0.71s-0.26-0.65-0.26-1.04
			c0-0.39,0.08-0.73,0.25-1.03s0.4-0.53,0.69-0.71c0.29-0.17,0.62-0.26,0.98-0.26c0.37,0,0.7,0.08,0.98,0.25
			c0.29,0.17,0.51,0.4,0.68,0.7c0.17,0.3,0.25,0.65,0.25,1.04c0,0.02,0,0.05,0,0.08s0,0.06,0,0.09h-3.42v-0.4h3.13L65.17,9
			c0-0.28-0.06-0.54-0.18-0.76s-0.29-0.4-0.5-0.52c-0.21-0.12-0.45-0.19-0.72-0.19c-0.27,0-0.51,0.06-0.73,0.19
			c-0.21,0.12-0.38,0.3-0.5,0.52c-0.12,0.22-0.18,0.48-0.18,0.77V9.1c0,0.3,0.07,0.56,0.2,0.79s0.32,0.4,0.55,0.53
			c0.24,0.13,0.51,0.19,0.81,0.19c0.24,0,0.46-0.04,0.67-0.13c0.21-0.08,0.38-0.21,0.53-0.39l0.3,0.34
			c-0.17,0.21-0.39,0.37-0.65,0.48S64.22,11.08,63.91,11.08z"/>
		<path d="M68.76,7.08c0.32,0,0.6,0.06,0.84,0.18c0.24,0.12,0.43,0.31,0.57,0.56c0.14,0.25,0.21,0.56,0.21,0.94v2.28h-0.53V8.81
			c0-0.41-0.1-0.73-0.31-0.94s-0.5-0.32-0.87-0.32c-0.28,0-0.52,0.06-0.73,0.17C67.73,7.84,67.57,8,67.46,8.21s-0.17,0.47-0.17,0.77
			v2.06h-0.53V7.12h0.51v1.08l-0.08-0.2c0.12-0.28,0.32-0.51,0.6-0.67C68.05,7.16,68.38,7.08,68.76,7.08z"/>
		<path d="M74.82,11.08c-0.32,0-0.63-0.05-0.92-0.14c-0.29-0.09-0.52-0.21-0.68-0.35l0.24-0.42c0.16,0.12,0.36,0.22,0.61,0.31
			c0.25,0.09,0.51,0.13,0.79,0.13c0.37,0,0.64-0.06,0.81-0.18c0.17-0.12,0.25-0.27,0.25-0.47c0-0.14-0.05-0.26-0.14-0.34
			c-0.09-0.08-0.21-0.14-0.36-0.19c-0.15-0.04-0.32-0.08-0.5-0.11c-0.18-0.03-0.37-0.06-0.55-0.1c-0.18-0.04-0.35-0.1-0.5-0.18
			c-0.15-0.08-0.27-0.18-0.36-0.32c-0.09-0.13-0.14-0.31-0.14-0.54c0-0.21,0.06-0.41,0.18-0.58c0.12-0.17,0.3-0.3,0.53-0.4
			c0.23-0.1,0.51-0.15,0.85-0.15c0.25,0,0.51,0.03,0.76,0.1s0.46,0.16,0.63,0.27l-0.23,0.43c-0.17-0.12-0.36-0.21-0.56-0.26
			c-0.2-0.05-0.4-0.08-0.6-0.08c-0.35,0-0.61,0.06-0.78,0.18S73.89,8,73.89,8.18c0,0.15,0.05,0.27,0.14,0.35
			c0.09,0.08,0.21,0.15,0.37,0.2c0.15,0.05,0.32,0.09,0.5,0.12c0.18,0.03,0.36,0.07,0.55,0.11s0.35,0.1,0.5,0.17
			s0.27,0.17,0.37,0.31s0.14,0.31,0.14,0.52c0,0.23-0.06,0.43-0.19,0.59c-0.13,0.17-0.31,0.3-0.55,0.39
			C75.46,11.03,75.17,11.08,74.82,11.08z"/>
		<path d="M77.45,12.53c-0.18,0-0.36-0.03-0.53-0.09c-0.17-0.06-0.31-0.15-0.43-0.27l0.25-0.4c0.1,0.09,0.21,0.17,0.33,0.22
			c0.12,0.05,0.25,0.08,0.39,0.08c0.17,0,0.33-0.05,0.45-0.15c0.13-0.1,0.25-0.27,0.36-0.51l0.25-0.58l0.06-0.08l1.62-3.64h0.52
			l-1.97,4.4c-0.11,0.25-0.23,0.46-0.36,0.61c-0.13,0.15-0.28,0.26-0.43,0.32S77.64,12.53,77.45,12.53z M78.49,11.15l-1.81-4.04
			h0.55l1.6,3.6L78.49,11.15z"/>
		<path d="M83.47,7.08c0.32,0,0.6,0.06,0.84,0.18c0.24,0.12,0.43,0.31,0.57,0.56c0.14,0.25,0.21,0.56,0.21,0.94v2.28h-0.53V8.81
			c0-0.41-0.1-0.73-0.31-0.94s-0.5-0.32-0.87-0.32c-0.28,0-0.52,0.06-0.73,0.17C82.44,7.84,82.28,8,82.17,8.21S82,8.68,82,8.98v2.06
			h-0.53V7.12h0.51v1.08l-0.08-0.2c0.12-0.28,0.32-0.51,0.6-0.67C82.77,7.16,83.09,7.08,83.47,7.08z"/>
		<path d="M85.91,7.56V7.12h2.43v0.44H85.91z M87.76,11.08c-0.37,0-0.65-0.1-0.85-0.3s-0.3-0.48-0.3-0.84V6.25h0.53V9.9
			c0,0.23,0.06,0.41,0.18,0.53s0.29,0.19,0.5,0.19c0.23,0,0.43-0.07,0.58-0.2l0.19,0.38c-0.11,0.09-0.23,0.16-0.38,0.21
			C88.07,11.05,87.92,11.08,87.76,11.08z"/>
		<path d="M91.56,7.08c0.32,0,0.6,0.06,0.84,0.18c0.24,0.12,0.43,0.31,0.57,0.56c0.14,0.25,0.21,0.56,0.21,0.94v2.28h-0.53V8.81
			c0-0.41-0.1-0.73-0.31-0.94s-0.5-0.32-0.87-0.32c-0.28,0-0.52,0.06-0.73,0.17C90.53,7.84,90.37,8,90.26,8.21s-0.17,0.47-0.17,0.77
			v2.06h-0.53V5.49h0.53v2.7l-0.1-0.2c0.12-0.28,0.32-0.51,0.6-0.67C90.86,7.16,91.18,7.08,91.56,7.08z"/>
		<path d="M96.28,11.08c-0.41,0-0.77-0.09-1.08-0.26c-0.31-0.17-0.55-0.41-0.73-0.71s-0.26-0.65-0.26-1.04
			c0-0.39,0.08-0.73,0.25-1.03s0.4-0.53,0.69-0.71c0.29-0.17,0.62-0.26,0.98-0.26c0.37,0,0.7,0.08,0.98,0.25
			c0.29,0.17,0.51,0.4,0.68,0.7c0.17,0.3,0.25,0.65,0.25,1.04c0,0.02,0,0.05,0,0.08s0,0.06,0,0.09h-3.42v-0.4h3.13L97.54,9
			c0-0.28-0.06-0.54-0.18-0.76s-0.29-0.4-0.5-0.52c-0.21-0.12-0.45-0.19-0.72-0.19c-0.27,0-0.51,0.06-0.73,0.19
			c-0.21,0.12-0.38,0.3-0.5,0.52c-0.12,0.22-0.18,0.48-0.18,0.77V9.1c0,0.3,0.07,0.56,0.2,0.79s0.32,0.4,0.55,0.53
			c0.24,0.13,0.51,0.19,0.81,0.19c0.24,0,0.46-0.04,0.67-0.13c0.21-0.08,0.38-0.21,0.53-0.39l0.3,0.34
			c-0.17,0.21-0.39,0.37-0.65,0.48S96.59,11.08,96.28,11.08z"/>
		<path d="M100.18,11.08c-0.32,0-0.63-0.05-0.92-0.14c-0.29-0.09-0.52-0.21-0.68-0.35l0.24-0.42c0.16,0.12,0.36,0.22,0.61,0.31
			c0.25,0.09,0.51,0.13,0.79,0.13c0.37,0,0.64-0.06,0.81-0.18c0.17-0.12,0.25-0.27,0.25-0.47c0-0.14-0.05-0.26-0.14-0.34
			c-0.09-0.08-0.21-0.14-0.36-0.19c-0.15-0.04-0.32-0.08-0.5-0.11c-0.18-0.03-0.37-0.06-0.55-0.1c-0.18-0.04-0.35-0.1-0.5-0.18
			c-0.15-0.08-0.27-0.18-0.36-0.32c-0.09-0.13-0.14-0.31-0.14-0.54c0-0.21,0.06-0.41,0.18-0.58c0.12-0.17,0.3-0.3,0.53-0.4
			c0.23-0.1,0.51-0.15,0.85-0.15c0.25,0,0.51,0.03,0.76,0.1s0.46,0.16,0.63,0.27l-0.23,0.43c-0.17-0.12-0.36-0.21-0.56-0.26
			c-0.2-0.05-0.4-0.08-0.6-0.08c-0.35,0-0.61,0.06-0.78,0.18S99.25,8,99.25,8.18c0,0.15,0.05,0.27,0.14,0.35
			c0.09,0.08,0.21,0.15,0.37,0.2c0.15,0.05,0.32,0.09,0.5,0.12c0.18,0.03,0.36,0.07,0.55,0.11s0.35,0.1,0.5,0.17
			s0.27,0.17,0.37,0.31s0.14,0.31,0.14,0.52c0,0.23-0.06,0.43-0.19,0.59c-0.13,0.17-0.31,0.3-0.55,0.39
			C100.82,11.03,100.53,11.08,100.18,11.08z"/>
		<path d="M103.05,6.25c-0.11,0-0.2-0.04-0.28-0.11c-0.07-0.08-0.11-0.17-0.11-0.27s0.04-0.19,0.11-0.27
			c0.08-0.07,0.17-0.11,0.28-0.11c0.11,0,0.2,0.04,0.28,0.11c0.07,0.07,0.11,0.16,0.11,0.26c0,0.11-0.04,0.2-0.11,0.28
			C103.25,6.21,103.16,6.25,103.05,6.25z M102.78,11.04V7.12h0.53v3.92H102.78z"/>
		<path d="M105.84,11.08c-0.32,0-0.63-0.05-0.92-0.14c-0.29-0.09-0.52-0.21-0.68-0.35l0.24-0.42c0.16,0.12,0.36,0.22,0.61,0.31
			c0.25,0.09,0.51,0.13,0.79,0.13c0.37,0,0.64-0.06,0.81-0.18c0.17-0.12,0.25-0.27,0.25-0.47c0-0.14-0.05-0.26-0.14-0.34
			c-0.09-0.08-0.21-0.14-0.36-0.19c-0.15-0.04-0.32-0.08-0.5-0.11c-0.18-0.03-0.37-0.06-0.55-0.1c-0.18-0.04-0.35-0.1-0.5-0.18
			c-0.15-0.08-0.27-0.18-0.36-0.32c-0.09-0.13-0.14-0.31-0.14-0.54c0-0.21,0.06-0.41,0.18-0.58c0.12-0.17,0.3-0.3,0.53-0.4
			c0.23-0.1,0.51-0.15,0.85-0.15c0.25,0,0.51,0.03,0.76,0.1s0.46,0.16,0.63,0.27l-0.23,0.43c-0.17-0.12-0.36-0.21-0.56-0.26
			c-0.2-0.05-0.4-0.08-0.6-0.08c-0.35,0-0.61,0.06-0.78,0.18s-0.25,0.28-0.25,0.47c0,0.15,0.05,0.27,0.14,0.35
			c0.09,0.08,0.21,0.15,0.37,0.2c0.15,0.05,0.32,0.09,0.5,0.12c0.18,0.03,0.36,0.07,0.55,0.11s0.35,0.1,0.5,0.17
			s0.27,0.17,0.37,0.31s0.14,0.31,0.14,0.52c0,0.23-0.06,0.43-0.19,0.59c-0.13,0.17-0.31,0.3-0.55,0.39
			C106.48,11.03,106.19,11.08,105.84,11.08z"/>
	</g>
	<g>
		<defs>
			<rect id="SVGID_1_" x="11.79" y="34.02" width="34.02" height="34.02"/>
		</defs>
		<clipPath id="SVGID_00000171689138313860512480000007568740892201335206_">
			<use xlink:href="#SVGID_1_"  style="overflow:visible;"/>
		</clipPath>
		<path style="clip-path:url(#SVGID_00000171689138313860512480000007568740892201335206_);fill:#414042;" d="M45.81,51.02
			c0,9.39-7.61,17.01-17.01,17.01c-9.39,0-17.01-7.62-17.01-17.01c0-9.39,7.61-17.01,17.01-17.01
			C38.19,34.02,45.81,41.63,45.81,51.02"/>
	</g>
	<g>
		<defs>
			<rect id="SVGID_00000049942150187752254820000002781672017585971374_" x="69.39" y="34.02" width="34.02" height="34.02"/>
		</defs>
		<clipPath id="SVGID_00000142894824420572090940000012315817392871158974_">
			<use xlink:href="#SVGID_00000049942150187752254820000002781672017585971374_"  style="overflow:visible;"/>
		</clipPath>
		<path style="clip-path:url(#SVGID_00000142894824420572090940000012315817392871158974_);fill:#BDCFC4;" d="M103.41,51.02
			c0,9.39-7.61,17.01-17.01,17.01s-17.01-7.62-17.01-17.01c0-9.39,7.62-17.01,17.01-17.01S103.41,41.63,103.41,51.02"/>
	</g>
	<g>
		<defs>
			<rect id="SVGID_00000050620905267918382780000012112309915173083028_" x="4.59" y="245.2" width="34.02" height="34.02"/>
		</defs>
		<clipPath id="SVGID_00000122707616123936019060000010328522750381048979_">
			<use xlink:href="#SVGID_00000050620905267918382780000012112309915173083028_"  style="overflow:visible;"/>
		</clipPath>
		<path style="clip-path:url(#SVGID_00000122707616123936019060000010328522750381048979_);fill:#BE1E2D;" d="M38.61,262.2
			c0,9.39-7.61,17.01-17.01,17.01S4.59,271.6,4.59,262.2c0-9.39,7.62-17.01,17.01-17.01S38.61,252.81,38.61,262.2"/>
	</g>
	<g>
		<defs>
			<rect id="SVGID_00000134220108727588538370000002827634779920421027_" x="14.51" y="230.32" width="14.17" height="14.17"/>
		</defs>
		<clipPath id="SVGID_00000183232348705188939800000003714764415594409363_">
			<use xlink:href="#SVGID_00000134220108727588538370000002827634779920421027_"  style="overflow:visible;"/>
		</clipPath>
		<path style="clip-path:url(#SVGID_00000183232348705188939800000003714764415594409363_);fill:#BE1E2D;" d="M28.69,237.4
			c0,3.91-3.17,7.09-7.09,7.09c-3.91,0-7.09-3.17-7.09-7.09c0-3.91,3.17-7.09,7.09-7.09C25.51,230.31,28.69,233.49,28.69,237.4"/>
	</g>
	<g>
		<defs>
			<rect id="SVGID_00000110473226016948840170000015439551560289729436_" x="40.59" y="245.2" width="34.02" height="34.02"/>
		</defs>
		<clipPath id="SVGID_00000105391528954684377700000016812231759257306557_">
			<use xlink:href="#SVGID_00000110473226016948840170000015439551560289729436_"  style="overflow:visible;"/>
		</clipPath>
		<path style="clip-path:url(#SVGID_00000105391528954684377700000016812231759257306557_);fill:#BE1E2D;" d="M74.61,262.2
			c0,9.39-7.61,17.01-17.01,17.01s-17.01-7.61-17.01-17.01c0-9.39,7.62-17.01,17.01-17.01S74.61,252.81,74.61,262.2"/>
	</g>
	<g>
		<defs>
			<rect id="SVGID_00000091708395158699106860000004450124374656981685_" x="50.51" y="230.32" width="14.17" height="14.17"/>
		</defs>
		<clipPath id="SVGID_00000024720220405798577730000004158333665622964648_">
			<use xlink:href="#SVGID_00000091708395158699106860000004450124374656981685_"  style="overflow:visible;"/>
		</clipPath>
		<path style="clip-path:url(#SVGID_00000024720220405798577730000004158333665622964648_);fill:#BE1E2D;" d="M64.69,237.4
			c0,3.91-3.17,7.09-7.09,7.09c-3.91,0-7.09-3.17-7.09-7.09c0-3.91,3.17-7.09,7.09-7.09C61.51,230.31,64.69,233.49,64.69,237.4"/>
	</g>
	<g>
		<defs>
			<rect id="SVGID_00000040550872476826603840000011193630560622514604_" x="76.59" y="245.2" width="34.02" height="34.02"/>
		</defs>
		<clipPath id="SVGID_00000082367248851242190720000004969084432816720046_">
			<use xlink:href="#SVGID_00000040550872476826603840000011193630560622514604_"  style="overflow:visible;"/>
		</clipPath>
		<path style="clip-path:url(#SVGID_00000082367248851242190720000004969084432816720046_);fill:#BE1E2D;" d="M110.61,262.2
			c0,9.39-7.61,17.01-17.01,17.01s-17.01-7.61-17.01-17.01c0-9.39,7.62-17.01,17.01-17.01S110.61,252.81,110.61,262.2"/>
	</g>
	<g>
		<defs>
			<rect id="SVGID_00000140000923295229101110000016875790320024015536_" x="86.51" y="230.32" width="14.17" height="14.17"/>
		</defs>
		<clipPath id="SVGID_00000168804771944768234210000003516675834211100298_">
			<use xlink:href="#SVGID_00000140000923295229101110000016875790320024015536_"  style="overflow:visible;"/>
		</clipPath>
		<path style="clip-path:url(#SVGID_00000168804771944768234210000003516675834211100298_);fill:#BE1E2D;" d="M100.69,237.4
			c0,3.91-3.17,7.09-7.09,7.09c-3.91,0-7.09-3.17-7.09-7.09c0-3.91,3.17-7.09,7.09-7.09C97.51,230.31,100.69,233.49,100.69,237.4"/>
	</g>
	<g>
		<defs>
			<rect id="SVGID_00000111886790324704492720000013192496137666027680_" x="14.51" y="284.19" width="14.17" height="14.17"/>
		</defs>
		<clipPath id="SVGID_00000115482802474833137270000014093163002186732953_">
			<use xlink:href="#SVGID_00000111886790324704492720000013192496137666027680_"  style="overflow:visible;"/>
		</clipPath>
		<path style="clip-path:url(#SVGID_00000115482802474833137270000014093163002186732953_);fill:#BE1E2D;" d="M28.69,291.28
			c0,3.91-3.17,7.09-7.09,7.09c-3.91,0-7.09-3.17-7.09-7.09c0-3.91,3.17-7.09,7.09-7.09C25.51,284.19,28.69,287.36,28.69,291.28"/>
	</g>
	<g>
		<defs>
			<rect id="SVGID_00000132065441618234170360000005403485308447605931_" x="50.51" y="284.19" width="14.17" height="14.17"/>
		</defs>
		<clipPath id="SVGID_00000052815460019763533070000002595690744548385192_">
			<use xlink:href="#SVGID_00000132065441618234170360000005403485308447605931_"  style="overflow:visible;"/>
		</clipPath>
		<path style="clip-path:url(#SVGID_00000052815460019763533070000002595690744548385192_);fill:#BE1E2D;" d="M64.69,291.28
			c0,3.91-3.17,7.09-7.09,7.09c-3.91,0-7.09-3.17-7.09-7.09c0-3.91,3.17-7.09,7.09-7.09C61.51,284.19,64.69,287.36,64.69,291.28"/>
	</g>
	<g>
		<defs>
			<rect id="SVGID_00000005228599604374724370000006988669296015029405_" x="86.51" y="284.19" width="14.17" height="14.17"/>
		</defs>
		<clipPath id="SVGID_00000028290348620232141090000013118957703527157685_">
			<use xlink:href="#SVGID_00000005228599604374724370000006988669296015029405_"  style="overflow:visible;"/>
		</clipPath>
		<path style="clip-path:url(#SVGID_00000028290348620232141090000013118957703527157685_);fill:#BE1E2D;" d="M100.69,291.28
			c0,3.91-3.17,7.09-7.09,7.09c-3.91,0-7.09-3.17-7.09-7.09c0-3.91,3.17-7.09,7.09-7.09C97.51,284.19,100.69,287.36,100.69,291.28"
			/>
	</g>
	<g>
		<defs>
			<rect id="SVGID_00000183235896382565981390000008532469140653017770_" x="4.59" y="299.07" width="34.02" height="34.02"/>
		</defs>
		<clipPath id="SVGID_00000026850724953958437600000002878234136372912018_">
			<use xlink:href="#SVGID_00000183235896382565981390000008532469140653017770_"  style="overflow:visible;"/>
		</clipPath>
		<path style="clip-path:url(#SVGID_00000026850724953958437600000002878234136372912018_);fill:#BE1E2D;" d="M38.61,316.08
			c0,9.39-7.61,17.01-17.01,17.01s-17.01-7.61-17.01-17.01c0-9.39,7.62-17.01,17.01-17.01S38.61,306.69,38.61,316.08"/>
	</g>
	<g>
		<defs>
			<rect id="SVGID_00000099654747285078342020000017789323325110053028_" x="40.59" y="299.07" width="34.02" height="34.02"/>
		</defs>
		<clipPath id="SVGID_00000068666026490403858500000009744229809154324890_">
			<use xlink:href="#SVGID_00000099654747285078342020000017789323325110053028_"  style="overflow:visible;"/>
		</clipPath>
		<path style="clip-path:url(#SVGID_00000068666026490403858500000009744229809154324890_);fill:#BE1E2D;" d="M74.61,316.08
			c0,9.39-7.61,17.01-17.01,17.01s-17.01-7.61-17.01-17.01c0-9.39,7.62-17.01,17.01-17.01S74.61,306.69,74.61,316.08"/>
	</g>
	<g>
		<defs>
			<rect id="SVGID_00000149373813743765745060000015644008563704571784_" x="76.59" y="299.07" width="34.02" height="34.02"/>
		</defs>
		<clipPath id="SVGID_00000142136795535248187260000002976205082348248966_">
			<use xlink:href="#SVGID_00000149373813743765745060000015644008563704571784_"  style="overflow:visible;"/>
		</clipPath>
		<path style="clip-path:url(#SVGID_00000142136795535248187260000002976205082348248966_);fill:#BE1E2D;" d="M110.61,316.08
			c0,9.39-7.61,17.01-17.01,17.01s-17.01-7.61-17.01-17.01c0-9.39,7.62-17.01,17.01-17.01S110.61,306.69,110.61,316.08"/>
	</g>
</g>
<g id="cutouts">
	<path class="st14" d="M29.4,8.5c0,2.51-2.04,4.54-4.54,4.54h-7.2c-2.51,0-4.54-2.03-4.54-4.54c0-2.5,2.03-4.53,4.54-4.53h7.2
		C27.36,3.97,29.4,6,29.4,8.5z"/>
	<path class="st14" d="M29.4,355.74c0,2.51-2.04,4.54-4.54,4.54h-7.2c-2.51,0-4.54-2.03-4.54-4.54c0-2.5,2.03-4.53,4.54-4.53h7.2
		C27.36,351.21,29.4,353.24,29.4,355.74z"/>
	<circle class="st14" cx="28.8" cy="51.02" r="8.86"/>
	<circle class="st14" cx="21.6" cy="262.2" r="8.86"/>
	<circle class="st14" cx="57.6" cy="262.2" r="8.86"/>
	<circle class="st14" cx="93.6" cy="262.2" r="8.86"/>
	<circle class="st14" cx="21.6" cy="316.08" r="8.86"/>
	<circle class="st14" cx="57.6" cy="316.08" r="8.86"/>
	<circle class="st14" cx="93.6" cy="316.08" r="8.86"/>
	<circle class="st14" cx="21.6" cy="237.4" r="4.39"/>
	<circle class="st14" cx="57.6" cy="237.4" r="4.39"/>
	<circle class="st14" cx="93.6" cy="237.4" r="4.39"/>
	<circle class="st14" cx="21.6" cy="291.28" r="4.39"/>
	<circle class="st14" cx="57.6" cy="291.28" r="4.39"/>
	<circle class="st14" cx="93.6" cy="291.28" r="4.39"/>
	<circle class="st14" cx="28.8" cy="148.82" r="10.63"/>
	<circle class="st14" cx="28.8" cy="192.76" r="13.46"/>
	<circle class="st14" cx="86.4" cy="192.76" r="13.46"/>
	<circle class="st14" cx="86.4" cy="148.82" r="10.63"/>
	<circle class="st14" cx="86.4" cy="51.02" r="8.86"/>
	<g>
		<path class="st14" d="M93.6,102.45c0,1.58-1.3,2.88-2.88,2.88H24.48c-1.58,0-2.88-1.3-2.88-2.88V85.17c0-1.58,1.3-2.88,2.88-2.88
			h66.24c1.58,0,2.88,1.3,2.88,2.88V102.45z"/>
	</g>
	<g>
	</g>
	<g>
	</g>
	<g>
	</g>
	<g>
	</g>
	<g>
	</g>
	<g>
	</g>
</g>
</svg>
