<?xml version="1.0" encoding="utf-8"?>
<!-- Generator: Adobe Illustrator 23.0.1, SVG Export Plug-In . SVG Version: 6.00 Build 0)  -->
<svg version="1.1" id="Layer_1" xmlns="http://www.w3.org/2000/svg" xmlns:xlink="http://www.w3.org/1999/xlink" x="0px" y="0px"
	 viewBox="0 0 841.9 595.3" style="enable-background:new 0 0 841.9 595.3;" xml:space="preserve">
<style type="text/css">
	.st0{fill:none;stroke:#000000;stroke-miterlimit:10;}
	.st1{fill:none;stroke:#000000;stroke-width:0.5669;stroke-miterlimit:10;}
	.st2{fill:none;stroke:#000000;stroke-width:0.2835;stroke-linecap:round;stroke-linejoin:round;stroke-miterlimit:10;}
	.st3{fill:none;stroke:#000000;stroke-width:0.2835;stroke-linecap:round;stroke-linejoin:round;}
	.st4{fill:none;stroke:#000000;stroke-width:0.2835;stroke-linecap:round;stroke-linejoin:round;stroke-dasharray:5.6918,5.6918;}
	.st5{fill:none;stroke:#000000;stroke-width:0.2835;stroke-linecap:round;stroke-linejoin:round;stroke-dasharray:5.4505,5.4505;}
	.st6{fill:#F1F2F2;}
	.st7{fill:#BE1E2D;}
	.st8{fill:none;stroke:#808285;stroke-width:0.5669;stroke-miterlimit:10;}
	.st9{stroke:#E6E7E8;stroke-miterlimit:10;}
	.st10{stroke:#F1F2F2;stroke-width:2.8346;stroke-miterlimit:10;}
	.st11{fill:#282829;}
</style>
<rect x="232" y="116.2" class="st0" width="114.2" height="364.3"/>
<rect x="232" y="142.4" class="st0" width="114.2" height="311.8"/>
<g>
	<path class="st0" d="M323.8,216.5c0,1.6-1.3,2.8-2.8,2.8h-63.8c-1.6,0-2.8-1.3-2.8-2.8v-13.6c0-1.6,1.3-2.8,2.8-2.8H321
		c1.6,0,2.8,1.3,2.8,2.8V216.5z"/>
</g>
<circle class="st0" cx="317.9" cy="166.5" r="8.5"/>
<circle class="st0" cx="260.3" cy="166.5" r="8.5"/>
<circle class="st0" cx="317.9" cy="308.4" r="12.8"/>
<circle class="st0" cx="260.3" cy="308.4" r="12.8"/>
<circle class="st0" cx="317.9" cy="265" r="9.9"/>
<circle class="st0" cx="260.3" cy="265" r="9.9"/>
<circle class="st0" cx="325" cy="377.7" r="8.5"/>
<circle class="st0" cx="253.2" cy="377.7" r="8.5"/>
<circle class="st0" cx="289.1" cy="377.7" r="8.5"/>
<circle class="st0" cx="325" cy="353.6" r="4.3"/>
<circle class="st0" cx="289.1" cy="353.6" r="4.3"/>
<circle class="st0" cx="253.2" cy="353.6" r="4.3"/>
<circle class="st0" cx="325" cy="407.5" r="4.3"/>
<circle class="st0" cx="289.1" cy="407.5" r="4.3"/>
<circle class="st0" cx="253.2" cy="407.5" r="4.3"/>
<circle class="st0" cx="325" cy="431.6" r="8.5"/>
<circle class="st0" cx="253.2" cy="431.6" r="8.5"/>
<circle class="st0" cx="289.1" cy="431.6" r="8.5"/>
<g>
	<g>
		<line class="st1" x1="218.9" y1="144.4" x2="218.9" y2="164.5"/>
		<g>
			<polygon points="218.9,142.4 217.8,145.2 218.9,144.6 220.1,145.2 			"/>
		</g>
		<g>
			<polygon points="218.9,166.5 217.8,163.7 218.9,164.4 220.1,163.7 			"/>
		</g>
	</g>
</g>
<g>
	<g>
		<line class="st1" x1="218.9" y1="118.2" x2="218.9" y2="140.4"/>
		<g>
			<polygon points="218.9,116.2 217.8,119 218.9,118.4 220.1,119 			"/>
		</g>
		<g>
			<polygon points="218.9,142.4 217.8,139.6 218.9,140.3 220.1,139.6 			"/>
		</g>
	</g>
</g>
<g>
	<g>
		<line class="st1" x1="140.9" y1="144.4" x2="140.9" y2="375.7"/>
		<g>
			<polygon points="140.9,142.4 139.8,145.2 140.9,144.6 142.1,145.2 			"/>
		</g>
		<g>
			<polygon points="140.9,377.7 139.8,374.9 140.9,375.5 142.1,374.9 			"/>
		</g>
	</g>
</g>
<g>
	<path d="M216.3,161.2c-0.6,0-1.1-0.4-1.4-1l0,0c-0.3,0.6-0.7,0.8-1.1,0.8c-0.8,0-1.4-0.7-1.4-1.6c0-1,0.6-1.5,1.3-1.5
		c0.4,0,0.9,0.2,1.2,0.8h0c0.3-0.6,0.7-1,1.3-1c0.9,0,1.5,0.8,1.5,1.7C217.7,160.6,217.1,161.2,216.3,161.2z M213.7,160.4
		c0.5,0,0.8-0.4,0.9-1c-0.1-0.4-0.5-0.8-0.9-0.8c-0.4,0-0.8,0.2-0.8,0.9C212.9,160.1,213.3,160.4,213.7,160.4z M216.3,158.5
		c-0.6,0-0.9,0.4-1.1,1.1c0.2,0.6,0.6,0.9,1,0.9c0.5,0,1-0.4,1-1C217.2,158.9,216.8,158.5,216.3,158.5z"/>
	<path d="M217.2,157.1c-0.3,0-0.5-0.2-0.5-0.5s0.2-0.5,0.5-0.5c0.3,0,0.5,0.2,0.5,0.5C217.7,156.9,217.5,157.1,217.2,157.1z"/>
	<path d="M213.1,152.5v1.9l1.3,0.2c0-0.1,0-0.2,0-0.4c0-0.4,0.1-0.8,0.3-1.1c0.2-0.4,0.7-0.7,1.3-0.7c1,0,1.7,0.8,1.7,1.9
		c0,0.6-0.2,1-0.3,1.3l-0.5-0.2c0.1-0.2,0.3-0.6,0.3-1.1c0-0.6-0.4-1.2-1.1-1.2c-0.7,0-1.1,0.4-1.1,1.5c0,0.3,0,0.5,0.1,0.7
		l-2.4-0.3v-2.4H213.1z"/>
	<path d="M215,148.2c1.7,0,2.7,0.6,2.7,1.8c0,1-0.9,1.7-2.6,1.7c-1.7,0-2.6-0.7-2.6-1.8C212.4,148.8,213.4,148.2,215,148.2z
		 M215.1,150.9c1.3,0,2.1-0.4,2.1-1c0-0.7-0.8-1-2.1-1c-1.3,0-2.1,0.3-2.1,1C213,150.5,213.7,150.9,215.1,150.9z"/>
</g>
<g>
	<path d="M217.1,135.2c0-0.1,0-0.3,0-0.6c-0.1-0.4-0.2-0.8-0.5-1.1c-0.3-0.3-0.8-0.6-1.4-0.7v0c0.3,0.3,0.5,0.7,0.5,1.2
		c0,0.9-0.7,1.5-1.6,1.5c-1,0-1.8-0.7-1.8-1.7s0.8-1.7,2.1-1.7c1.1,0,1.9,0.4,2.4,0.9c0.4,0.4,0.6,0.9,0.7,1.5c0,0.3,0,0.5,0,0.6
		H217.1z M214.2,135c0.6,0,1.1-0.4,1.1-1c0-0.5-0.2-0.8-0.5-1c-0.1,0-0.1-0.1-0.3-0.1c-0.9,0-1.5,0.3-1.5,1
		C213,134.6,213.5,135,214.2,135z"/>
	<path d="M217.2,131.6c-0.3,0-0.5-0.2-0.5-0.5s0.2-0.5,0.5-0.5c0.3,0,0.5,0.2,0.5,0.5C217.7,131.4,217.5,131.6,217.2,131.6z"/>
	<path d="M217.6,130h-0.4l-0.5-0.5c-1.2-1.3-1.9-1.9-2.7-1.9c-0.5,0-1,0.3-1,1c0,0.5,0.2,0.8,0.4,1.1l-0.5,0.2
		c-0.3-0.4-0.5-0.9-0.5-1.4c0-1.1,0.8-1.6,1.5-1.6c0.9,0,1.7,0.7,2.7,1.8l0.4,0.4h0v-2.3h0.6V130z"/>
	<path d="M213.1,123v1.9l1.3,0.2c0-0.1,0-0.2,0-0.4c0-0.4,0.1-0.8,0.3-1.1c0.2-0.4,0.7-0.7,1.3-0.7c1,0,1.7,0.8,1.7,1.9
		c0,0.6-0.2,1-0.3,1.3l-0.5-0.2c0.1-0.2,0.3-0.6,0.3-1.1c0-0.6-0.4-1.2-1.1-1.2c-0.7,0-1.1,0.4-1.1,1.5c0,0.3,0,0.5,0.1,0.7
		l-2.4-0.3V123H213.1z"/>
</g>
<g>
	<path d="M138.3,268.4c-0.6,0-1.1-0.4-1.4-1l0,0c-0.3,0.6-0.7,0.8-1.1,0.8c-0.8,0-1.4-0.7-1.4-1.6c0-1,0.6-1.5,1.3-1.5
		c0.4,0,0.9,0.2,1.2,0.8h0c0.3-0.6,0.7-1,1.3-1c0.9,0,1.5,0.8,1.5,1.7C139.7,267.8,139.1,268.4,138.3,268.4z M135.8,267.6
		c0.5,0,0.8-0.4,0.9-1c-0.1-0.4-0.5-0.8-0.9-0.8c-0.4,0-0.8,0.2-0.8,0.9C134.9,267.3,135.3,267.6,135.8,267.6z M138.3,265.7
		c-0.6,0-0.9,0.4-1.1,1.1c0.2,0.6,0.6,0.9,1,0.9c0.5,0,1-0.4,1-1C139.2,266.1,138.8,265.7,138.3,265.7z"/>
	<path d="M138.8,264.2c0.1-0.2,0.3-0.6,0.3-1.1c0-0.9-0.6-1.2-1-1.1c-0.7,0-1,0.6-1,1.3v0.4h-0.5v-0.4c0-0.5-0.3-1.1-0.9-1.1
		c-0.4,0-0.8,0.3-0.8,0.9c0,0.4,0.2,0.8,0.3,1l-0.5,0.2c-0.2-0.3-0.4-0.8-0.4-1.3c0-1,0.6-1.5,1.2-1.5c0.5,0,1,0.3,1.2,0.9h0
		c0.1-0.6,0.6-1.1,1.3-1.1c0.8,0,1.5,0.6,1.5,1.9c0,0.6-0.2,1.1-0.3,1.3L138.8,264.2z"/>
	<path d="M139.2,260.3c-0.3,0-0.5-0.2-0.5-0.5s0.2-0.5,0.5-0.5c0.3,0,0.5,0.2,0.5,0.5C139.7,260.1,139.5,260.3,139.2,260.3z"/>
	<path d="M137,255.4c1.7,0,2.7,0.6,2.7,1.8c0,1-0.9,1.7-2.6,1.7c-1.7,0-2.6-0.7-2.6-1.8C134.4,256,135.4,255.4,137,255.4z
		 M137.1,258.1c1.3,0,2.1-0.4,2.1-1c0-0.7-0.8-1-2.1-1c-1.3,0-2.1,0.3-2.1,1C135,257.7,135.7,258.1,137.1,258.1z"/>
	<path d="M137,251.4c1.7,0,2.7,0.6,2.7,1.8c0,1-0.9,1.7-2.6,1.7c-1.7,0-2.6-0.7-2.6-1.8C134.4,252,135.4,251.4,137,251.4z
		 M137.1,254.1c1.3,0,2.1-0.4,2.1-1c0-0.7-0.8-1-2.1-1c-1.3,0-2.1,0.3-2.1,1C135,253.7,135.7,254.1,137.1,254.1z"/>
</g>
<g>
	<g>
		<line class="st1" x1="153.9" y1="144.4" x2="153.9" y2="351.6"/>
		<g>
			<polygon points="153.9,142.4 152.8,145.2 153.9,144.6 155.1,145.2 			"/>
		</g>
		<g>
			<polygon points="153.9,353.6 152.8,350.8 153.9,351.5 155.1,350.8 			"/>
		</g>
	</g>
</g>
<g>
	<path d="M147.6,256.4h0.5l4.6,2.2v0.7l-4.5-2.2h0v2.5h-0.6V256.4z"/>
	<path d="M152.6,253.6h-1.4v2.4h-0.5l-3.2-2.3v-0.7h3.2v-0.7h0.5v0.7h1.4V253.6z M150.7,253.6H149c-0.3,0-0.5,0-0.8,0v0
		c0.3,0.2,0.5,0.3,0.8,0.4l1.7,1.2h0V253.6z"/>
	<path d="M152.2,251.6c-0.3,0-0.5-0.2-0.5-0.5s0.2-0.5,0.5-0.5c0.3,0,0.5,0.2,0.5,0.5C152.7,251.4,152.5,251.6,152.2,251.6z"/>
	<path d="M148.1,247v1.9l1.3,0.2c0-0.1,0-0.2,0-0.4c0-0.4,0.1-0.8,0.3-1.1c0.2-0.4,0.7-0.7,1.3-0.7c1,0,1.7,0.8,1.7,1.9
		c0,0.6-0.2,1-0.3,1.3l-0.5-0.2c0.1-0.2,0.3-0.6,0.3-1.1c0-0.6-0.4-1.2-1.1-1.2c-0.7,0-1.1,0.4-1.1,1.5c0,0.3,0,0.5,0.1,0.7
		l-2.4-0.3V247H148.1z"/>
	<path d="M150,242.7c1.7,0,2.7,0.6,2.7,1.8c0,1-0.9,1.7-2.6,1.7c-1.7,0-2.6-0.7-2.6-1.8C147.5,243.3,148.4,242.7,150,242.7z
		 M150.1,245.4c1.3,0,2.1-0.4,2.1-1c0-0.7-0.8-1-2.1-1c-1.3,0-2.1,0.3-2.1,1C148,245,148.7,245.4,150.1,245.4z"/>
</g>
<g>
	<g>
		<line class="st1" x1="166.9" y1="144.4" x2="166.9" y2="306.4"/>
		<g>
			<polygon points="166.9,142.4 165.8,145.2 166.9,144.6 168.1,145.2 			"/>
		</g>
		<g>
			<polygon points="166.9,308.4 165.8,305.6 166.9,306.3 168.1,305.6 			"/>
		</g>
	</g>
</g>
<g>
	<path d="M161.1,248v1.9l1.3,0.2c0-0.1,0-0.2,0-0.4c0-0.4,0.1-0.8,0.3-1.1c0.2-0.4,0.7-0.7,1.3-0.7c1,0,1.7,0.8,1.7,1.9
		c0,0.6-0.2,1-0.3,1.3l-0.5-0.2c0.1-0.2,0.3-0.6,0.3-1.1c0-0.6-0.4-1.2-1.1-1.2c-0.7,0-1.1,0.4-1.1,1.5c0,0.3,0,0.5,0.1,0.7
		l-2.4-0.3V248H161.1z"/>
	<path d="M164.3,247.1c-0.6,0-1.1-0.4-1.4-1l0,0c-0.3,0.6-0.7,0.8-1.1,0.8c-0.8,0-1.4-0.7-1.4-1.6c0-1,0.6-1.5,1.3-1.5
		c0.4,0,0.9,0.2,1.2,0.8h0c0.3-0.6,0.7-1,1.3-1c0.9,0,1.5,0.8,1.5,1.7C165.7,246.5,165.1,247.1,164.3,247.1z M161.8,246.3
		c0.5,0,0.8-0.4,0.9-1c-0.1-0.4-0.5-0.8-0.9-0.8c-0.4,0-0.8,0.2-0.8,0.9C161,245.9,161.3,246.3,161.8,246.3z M164.3,244.4
		c-0.6,0-0.9,0.4-1.1,1.1c0.2,0.6,0.6,0.9,1,0.9c0.5,0,1-0.4,1-1C165.2,244.8,164.8,244.4,164.3,244.4z"/>
	<path d="M165.2,243c-0.3,0-0.5-0.2-0.5-0.5s0.2-0.5,0.5-0.5c0.3,0,0.5,0.2,0.5,0.5C165.7,242.8,165.5,243,165.2,243z"/>
	<path d="M160.6,238.1h0.5l4.6,2.2v0.7l-4.5-2.2h0v2.5h-0.6V238.1z"/>
	<path d="M161.1,234.4v1.9l1.3,0.2c0-0.1,0-0.2,0-0.4c0-0.4,0.1-0.8,0.3-1.1c0.2-0.4,0.7-0.7,1.3-0.7c1,0,1.7,0.8,1.7,1.9
		c0,0.6-0.2,1-0.3,1.3l-0.5-0.2c0.1-0.2,0.3-0.6,0.3-1.1c0-0.6-0.4-1.2-1.1-1.2c-0.7,0-1.1,0.4-1.1,1.5c0,0.3,0,0.5,0.1,0.7
		l-2.4-0.3v-2.4H161.1z"/>
</g>
<g>
	<g>
		<line class="st1" x1="218.9" y1="202.1" x2="218.9" y2="217.4"/>
		<g>
			<polygon points="218.9,200.1 217.8,202.9 218.9,202.3 220.1,202.9 			"/>
		</g>
		<g>
			<polygon points="218.9,219.4 217.8,216.6 218.9,217.2 220.1,216.6 			"/>
		</g>
	</g>
</g>
<g>
	<g>
		<line class="st1" x1="305.2" y1="195.4" x2="305.2" y2="198.2"/>
		<g>
			<polygon points="305.2,193.4 304,196.3 305.2,195.6 306.3,196.3 			"/>
		</g>
		<g>
			<polygon points="305.2,200.2 304,197.4 305.2,198.1 306.3,197.4 			"/>
		</g>
	</g>
</g>
<g>
	<path d="M213,213.5c0,0.1,0,0.3,0,0.5c0.2,1.1,1,1.6,1.8,1.8v0c-0.3-0.2-0.6-0.7-0.6-1.2c0-0.9,0.6-1.5,1.6-1.5
		c0.9,0,1.8,0.6,1.8,1.7c0,1.1-0.8,1.8-2.2,1.8c-1,0-1.8-0.4-2.3-0.9c-0.4-0.4-0.7-1-0.8-1.6c0-0.2,0-0.4,0-0.5H213z M215.9,213.7
		c-0.7,0-1.2,0.4-1.2,1c0,0.4,0.3,0.8,0.6,1c0.1,0,0.2,0.1,0.3,0.1c0.8,0,1.5-0.4,1.5-1.1C217.2,214.1,216.7,213.7,215.9,213.7z"/>
	<path d="M217.2,212.4c-0.3,0-0.5-0.2-0.5-0.5s0.2-0.5,0.5-0.5c0.3,0,0.5,0.2,0.5,0.5C217.7,212.2,217.5,212.4,217.2,212.4z"/>
	<path d="M216.3,210.9c-0.6,0-1.1-0.4-1.4-1l0,0c-0.3,0.6-0.7,0.8-1.1,0.8c-0.8,0-1.4-0.7-1.4-1.6c0-1,0.6-1.5,1.3-1.5
		c0.4,0,0.9,0.2,1.2,0.8h0c0.3-0.6,0.7-1,1.3-1c0.9,0,1.5,0.8,1.5,1.7C217.7,210.2,217.1,210.9,216.3,210.9z M213.7,210
		c0.5,0,0.8-0.4,0.9-1c-0.1-0.4-0.5-0.8-0.9-0.8c-0.4,0-0.8,0.2-0.8,0.9C212.9,209.7,213.3,210,213.7,210z M216.3,208.1
		c-0.6,0-0.9,0.4-1.1,1.1c0.2,0.6,0.6,0.9,1,0.9c0.5,0,1-0.4,1-1C217.2,208.5,216.8,208.1,216.3,208.1z"/>
	<path d="M215,203.4c1.7,0,2.7,0.6,2.7,1.8c0,1-0.9,1.7-2.6,1.7c-1.7,0-2.6-0.7-2.6-1.8C212.4,204,213.4,203.4,215,203.4z
		 M215.1,206.2c1.3,0,2.1-0.4,2.1-1c0-0.7-0.8-1-2.1-1c-1.3,0-2.1,0.3-2.1,1C213,205.8,213.7,206.2,215.1,206.2z"/>
</g>
<g>
	<g>
		<line class="st1" x1="179.9" y1="144.4" x2="179.9" y2="263"/>
		<g>
			<polygon points="179.9,142.4 178.8,145.2 179.9,144.6 181.1,145.2 			"/>
		</g>
		<g>
			<polygon points="179.9,265 178.8,262.2 179.9,262.9 181.1,262.2 			"/>
		</g>
	</g>
</g>
<g>
	<path d="M178.6,207h-1.4v2.4h-0.5l-3.2-2.3v-0.7h3.2v-0.7h0.5v0.7h1.4V207z M176.7,207H175c-0.3,0-0.5,0-0.8,0v0
		c0.3,0.2,0.5,0.3,0.8,0.4l1.7,1.2h0V207z"/>
	<path d="M177.8,205c0.1-0.2,0.3-0.6,0.3-1.1c0-0.9-0.6-1.2-1-1.1c-0.7,0-1,0.6-1,1.3v0.4h-0.5V204c0-0.5-0.3-1.1-0.9-1.1
		c-0.4,0-0.8,0.3-0.8,0.9c0,0.4,0.2,0.8,0.3,1l-0.5,0.2c-0.2-0.3-0.4-0.8-0.4-1.3c0-1,0.6-1.5,1.2-1.5c0.5,0,1,0.3,1.2,0.9h0
		c0.1-0.6,0.6-1.1,1.3-1.1c0.8,0,1.5,0.6,1.5,1.9c0,0.6-0.2,1.1-0.3,1.3L177.8,205z"/>
	<path d="M178.2,201.1c-0.3,0-0.5-0.2-0.5-0.5s0.2-0.5,0.5-0.5c0.3,0,0.5,0.2,0.5,0.5C178.7,200.9,178.5,201.1,178.2,201.1z"/>
	<path d="M178.6,199.5h-0.4l-0.5-0.5c-1.2-1.3-1.9-1.9-2.7-1.9c-0.5,0-1,0.3-1,1c0,0.5,0.2,0.8,0.4,1.1l-0.5,0.2
		c-0.3-0.4-0.5-0.9-0.5-1.4c0-1.1,0.8-1.6,1.5-1.6c0.9,0,1.7,0.7,2.7,1.8l0.4,0.4h0v-2.3h0.6V199.5z"/>
	<path d="M174.1,192.5v1.9l1.3,0.2c0-0.1,0-0.2,0-0.4c0-0.4,0.1-0.8,0.3-1.1c0.2-0.4,0.7-0.7,1.3-0.7c1,0,1.7,0.8,1.7,1.9
		c0,0.6-0.2,1-0.3,1.3l-0.5-0.2c0.1-0.2,0.3-0.6,0.3-1.1c0-0.6-0.4-1.2-1.1-1.2c-0.7,0-1.1,0.4-1.1,1.5c0,0.3,0,0.5,0.1,0.7
		l-2.4-0.3v-2.4H174.1z"/>
</g>
<g>
	<g>
		<line class="st1" x1="192.9" y1="144.4" x2="192.9" y2="217"/>
		<g>
			<polygon points="192.9,142.4 191.8,145.2 192.9,144.6 194.1,145.2 			"/>
		</g>
		<g>
			<polygon points="192.9,219 191.8,216.1 192.9,216.8 194.1,216.1 			"/>
		</g>
	</g>
</g>
<g>
	<path d="M191.6,191.6h-0.4l-0.5-0.5c-1.2-1.3-1.9-1.9-2.7-1.9c-0.5,0-1,0.3-1,1c0,0.5,0.2,0.8,0.4,1.1l-0.5,0.2
		c-0.3-0.4-0.5-0.9-0.5-1.4c0-1.1,0.8-1.6,1.5-1.6c0.9,0,1.7,0.7,2.7,1.8l0.4,0.4h0v-2.3h0.6V191.6z"/>
	<path d="M186.5,184.3h0.5l4.6,2.2v0.7l-4.5-2.2h0v2.5h-0.6V184.3z"/>
	<path d="M191.2,183.5c-0.3,0-0.5-0.2-0.5-0.5s0.2-0.5,0.5-0.5c0.3,0,0.5,0.2,0.5,0.5C191.7,183.3,191.5,183.5,191.2,183.5z"/>
	<path d="M189,178.6c1.7,0,2.7,0.6,2.7,1.8c0,1-0.9,1.7-2.6,1.7c-1.7,0-2.6-0.7-2.6-1.8C186.5,179.2,187.4,178.6,189,178.6z
		 M189.1,181.3c1.3,0,2.1-0.4,2.1-1c0-0.7-0.8-1-2.1-1c-1.3,0-2.1,0.3-2.1,1C187,180.9,187.7,181.3,189.1,181.3z"/>
	<path d="M189,174.5c1.7,0,2.7,0.6,2.7,1.8c0,1-0.9,1.7-2.6,1.7c-1.7,0-2.6-0.7-2.6-1.8C186.5,175.2,187.4,174.5,189,174.5z
		 M189.1,177.3c1.3,0,2.1-0.4,2.1-1c0-0.7-0.8-1-2.1-1c-1.3,0-2.1,0.3-2.1,1C187,176.9,187.7,177.3,189.1,177.3z"/>
</g>
<g>
	<path d="M303.9,190.2h-0.4l-0.5-0.5c-1.2-1.3-1.9-1.9-2.7-1.9c-0.5,0-1,0.3-1,1c0,0.5,0.2,0.8,0.4,1.1l-0.5,0.2
		c-0.3-0.4-0.5-0.9-0.5-1.4c0-1.1,0.8-1.6,1.5-1.6c0.9,0,1.7,0.7,2.7,1.8l0.4,0.4h0V187h0.6V190.2z"/>
	<path d="M303.5,186.1c-0.3,0-0.5-0.2-0.5-0.5s0.2-0.5,0.5-0.5c0.3,0,0.5,0.2,0.5,0.5C304,186,303.8,186.1,303.5,186.1z"/>
	<path d="M299.4,181.6v1.9l1.3,0.2c0-0.1,0-0.2,0-0.4c0-0.4,0.1-0.8,0.3-1.1c0.2-0.4,0.7-0.7,1.3-0.7c1,0,1.7,0.8,1.7,1.9
		c0,0.6-0.2,1-0.3,1.3l-0.5-0.2c0.1-0.2,0.3-0.6,0.3-1.1c0-0.6-0.4-1.2-1.1-1.2c-0.7,0-1.1,0.4-1.1,1.5c0,0.3,0,0.5,0.1,0.7
		l-2.4-0.3v-2.4H299.4z"/>
	<path d="M301.3,177.2c1.7,0,2.7,0.6,2.7,1.8c0,1-0.9,1.7-2.6,1.7c-1.7,0-2.6-0.7-2.6-1.8C298.7,177.8,299.7,177.2,301.3,177.2z
		 M301.4,180c1.3,0,2.1-0.4,2.1-1c0-0.7-0.8-1-2.1-1c-1.3,0-2.1,0.3-2.1,1C299.2,179.5,300,180,301.4,180z"/>
</g>
<g>
	<path d="M368.5,143.3l0.3-0.5l0.3,0.2l-0.3,0.5c0.4,0.4,0.6,0.9,0.6,1.4c0,1.4-1,2-1.8,2c-0.4,0-0.7-0.1-1-0.3l-0.3,0.5L366,147
		l0.3-0.5c-0.4-0.3-0.6-0.8-0.6-1.5c0-1.3,0.8-2,1.9-2C367.9,143,368.2,143.1,368.5,143.3z M368.2,143.8c-0.2-0.1-0.4-0.2-0.7-0.2
		c-0.8,0-1.2,0.8-1.2,1.5c0,0.3,0.1,0.7,0.3,0.9l0,0L368.2,143.8z M366.9,146.3c0.2,0.2,0.4,0.2,0.6,0.2c0.7,0,1.2-0.6,1.2-1.5
		c0-0.3-0.1-0.6-0.3-0.9h0L366.9,146.3z"/>
	<path d="M373,142.3c-0.1,0-0.3,0-0.5,0c-1.1,0.2-1.6,1-1.8,1.8h0c0.2-0.3,0.7-0.6,1.2-0.6c0.9,0,1.5,0.6,1.5,1.6
		c0,0.9-0.6,1.8-1.7,1.8c-1.1,0-1.8-0.8-1.8-2.2c0-1,0.4-1.8,0.9-2.3c0.4-0.4,1-0.7,1.6-0.8c0.2,0,0.4,0,0.5,0V142.3z M372.8,145.2
		c0-0.7-0.4-1.2-1-1.2c-0.4,0-0.8,0.3-1,0.6c0,0.1-0.1,0.2-0.1,0.3c0,0.8,0.4,1.5,1.1,1.5C372.4,146.5,372.8,146,372.8,145.2z"/>
	<path d="M374.1,146.5c0-0.3,0.2-0.5,0.5-0.5s0.5,0.2,0.5,0.5c0,0.3-0.2,0.5-0.5,0.5C374.3,147,374.1,146.8,374.1,146.5z"/>
	<path d="M377.2,142.5L377.2,142.5l-0.9,0.5l-0.1-0.5l1.1-0.6h0.6v5.1h-0.7V142.5z"/>
	<path d="M383.1,144.3c0,1.7-0.6,2.7-1.8,2.7c-1,0-1.7-0.9-1.7-2.6c0-1.7,0.7-2.6,1.8-2.6C382.5,141.7,383.1,142.7,383.1,144.3z
		 M380.3,144.4c0,1.3,0.4,2.1,1,2.1c0.7,0,1-0.8,1-2.1c0-1.3-0.3-2.1-1-2.1C380.7,142.3,380.3,143,380.3,144.4z"/>
</g>
<g>
	<g>
		<line class="st1" x1="114.9" y1="144.4" x2="114.9" y2="429.6"/>
		<g>
			<polygon points="114.9,142.4 113.8,145.2 114.9,144.6 116.1,145.2 			"/>
		</g>
		<g>
			<polygon points="114.9,431.6 113.8,428.7 114.9,429.4 116.1,428.7 			"/>
		</g>
	</g>
</g>
<g>
	<path d="M109.2,284.2L109.2,284.2l0.5,0.9l-0.5,0.1l-0.6-1.1v-0.6h5.1v0.7H109.2z"/>
	<path d="M111,278.3c1.7,0,2.7,0.6,2.7,1.8c0,1-0.9,1.7-2.6,1.7c-1.7,0-2.6-0.7-2.6-1.8C108.5,278.9,109.4,278.3,111,278.3z
		 M111.1,281.1c1.3,0,2.1-0.4,2.1-1c0-0.7-0.8-1-2.1-1c-1.3,0-2.1,0.3-2.1,1C109,280.6,109.7,281.1,111.1,281.1z"/>
	<path d="M113.6,277.7h-0.4l-0.5-0.5c-1.2-1.3-1.9-1.9-2.7-1.9c-0.5,0-1,0.3-1,1c0,0.5,0.2,0.8,0.4,1.1l-0.5,0.2
		c-0.3-0.4-0.5-0.9-0.5-1.4c0-1.1,0.8-1.6,1.5-1.6c0.9,0,1.7,0.7,2.7,1.8l0.4,0.4h0v-2.3h0.6V277.7z"/>
	<path d="M113.2,273.6c-0.3,0-0.5-0.2-0.5-0.5s0.2-0.5,0.5-0.5c0.3,0,0.5,0.2,0.5,0.5C113.7,273.4,113.5,273.6,113.2,273.6z"/>
	<path d="M111,268.7c1.7,0,2.7,0.6,2.7,1.8c0,1-0.9,1.7-2.6,1.7c-1.7,0-2.6-0.7-2.6-1.8C108.5,269.3,109.4,268.7,111,268.7z
		 M111.1,271.4c1.3,0,2.1-0.4,2.1-1c0-0.7-0.8-1-2.1-1c-1.3,0-2.1,0.3-2.1,1C109,271,109.7,271.4,111.1,271.4z"/>
	<path d="M111,264.7c1.7,0,2.7,0.6,2.7,1.8c0,1-0.9,1.7-2.6,1.7c-1.7,0-2.6-0.7-2.6-1.8C108.5,265.3,109.4,264.7,111,264.7z
		 M111.1,267.4c1.3,0,2.1-0.4,2.1-1c0-0.7-0.8-1-2.1-1c-1.3,0-2.1,0.3-2.1,1C109,267,109.7,267.4,111.1,267.4z"/>
</g>
<g>
	<g>
		<line class="st1" x1="88.9" y1="118.2" x2="88.9" y2="478.5"/>
		<g>
			<polygon points="88.9,116.2 87.7,119 88.9,118.4 90,119 			"/>
		</g>
		<g>
			<polygon points="88.9,480.5 87.7,477.6 88.9,478.3 90,477.6 			"/>
		</g>
	</g>
</g>
<g>
	<path d="M83.2,301.5L83.2,301.5l0.5,0.9l-0.5,0.1l-0.6-1.1v-0.6h5.1v0.7H83.2z"/>
	<path d="M87.6,299h-0.4l-0.5-0.5c-1.2-1.3-1.9-1.9-2.7-1.9c-0.5,0-1,0.3-1,1c0,0.5,0.2,0.8,0.4,1.1l-0.5,0.2
		c-0.3-0.4-0.5-0.9-0.5-1.4c0-1.1,0.8-1.6,1.5-1.6c0.9,0,1.7,0.7,2.7,1.8L87,298h0v-2.3h0.6V299z"/>
	<path d="M86.3,295.1c-0.6,0-1.1-0.4-1.4-1l0,0c-0.3,0.6-0.7,0.8-1.1,0.8c-0.8,0-1.4-0.7-1.4-1.6c0-1,0.6-1.5,1.3-1.5
		c0.4,0,0.9,0.2,1.2,0.8h0c0.3-0.6,0.7-1,1.3-1c0.9,0,1.5,0.8,1.5,1.7C87.7,294.4,87,295.1,86.3,295.1z M83.7,294.2
		c0.5,0,0.8-0.4,0.9-1c-0.1-0.4-0.5-0.8-0.9-0.8c-0.4,0-0.8,0.2-0.8,0.9C82.9,293.9,83.3,294.2,83.7,294.2z M86.3,292.3
		c-0.6,0-0.9,0.4-1.1,1.1c0.2,0.6,0.6,0.9,1,0.9c0.5,0,1-0.4,1-1C87.2,292.7,86.8,292.3,86.3,292.3z"/>
	<path d="M87.2,290.9c-0.3,0-0.5-0.2-0.5-0.5s0.2-0.5,0.5-0.5c0.3,0,0.5,0.2,0.5,0.5C87.7,290.7,87.5,290.9,87.2,290.9z"/>
	<path d="M83.1,286.3v1.9l1.3,0.2c0-0.1,0-0.2,0-0.4c0-0.4,0.1-0.8,0.3-1.1c0.2-0.4,0.7-0.7,1.3-0.7c1,0,1.7,0.8,1.7,1.9
		c0,0.6-0.2,1-0.3,1.3l-0.5-0.2c0.1-0.2,0.3-0.6,0.3-1.1c0-0.6-0.4-1.2-1.1-1.2c-0.7,0-1.1,0.4-1.1,1.5c0,0.3,0,0.5,0.1,0.7
		l-2.4-0.3v-2.4H83.1z"/>
	<path d="M85,282c1.7,0,2.7,0.6,2.7,1.8c0,1-0.9,1.7-2.6,1.7c-1.7,0-2.6-0.7-2.6-1.8C82.4,282.6,83.4,282,85,282z M85.1,284.7
		c1.3,0,2.1-0.4,2.1-1c0-0.7-0.8-1-2.1-1c-1.3,0-2.1,0.3-2.1,1C83,284.3,83.7,284.7,85.1,284.7z"/>
</g>
<g>
	<g>
		<line class="st1" x1="101.9" y1="144.4" x2="101.9" y2="452.2"/>
		<g>
			<polygon points="101.9,142.4 100.8,145.2 101.9,144.6 103.1,145.2 			"/>
		</g>
		<g>
			<polygon points="101.9,454.2 100.8,451.4 101.9,452.1 103.1,451.4 			"/>
		</g>
	</g>
</g>
<g>
	<path d="M96.2,292.9L96.2,292.9l0.5,0.9l-0.5,0.1l-0.6-1.1v-0.6h5.1v0.7H96.2z"/>
	<path d="M96.2,288.9L96.2,288.9l0.5,0.9l-0.5,0.1l-0.6-1.1v-0.6h5.1v0.7H96.2z"/>
	<path d="M98,283c1.7,0,2.7,0.6,2.7,1.8c0,1-0.9,1.7-2.6,1.7c-1.7,0-2.6-0.7-2.6-1.8C95.5,283.6,96.4,283,98,283z M98.1,285.7
		c1.3,0,2.1-0.4,2.1-1c0-0.7-0.8-1-2.1-1c-1.3,0-2.1,0.3-2.1,1C96,285.3,96.7,285.7,98.1,285.7z"/>
	<path d="M100.2,282.3c-0.3,0-0.5-0.2-0.5-0.5s0.2-0.5,0.5-0.5c0.3,0,0.5,0.2,0.5,0.5C100.7,282.1,100.5,282.3,100.2,282.3z"/>
	<path d="M98,277.3c1.7,0,2.7,0.6,2.7,1.8c0,1-0.9,1.7-2.6,1.7c-1.7,0-2.6-0.7-2.6-1.8C95.5,277.9,96.4,277.3,98,277.3z M98.1,280.1
		c1.3,0,2.1-0.4,2.1-1c0-0.7-0.8-1-2.1-1c-1.3,0-2.1,0.3-2.1,1C96,279.7,96.7,280.1,98.1,280.1z"/>
	<path d="M98,273.3c1.7,0,2.7,0.6,2.7,1.8c0,1-0.9,1.7-2.6,1.7c-1.7,0-2.6-0.7-2.6-1.8C95.5,273.9,96.4,273.3,98,273.3z M98.1,276.1
		c1.3,0,2.1-0.4,2.1-1c0-0.7-0.8-1-2.1-1c-1.3,0-2.1,0.3-2.1,1C96,275.6,96.7,276.1,98.1,276.1z"/>
</g>
<g>
	<g>
		<line class="st1" x1="127.9" y1="144.4" x2="127.9" y2="405.5"/>
		<g>
			<polygon points="127.9,142.4 126.8,145.2 127.9,144.6 129.1,145.2 			"/>
		</g>
		<g>
			<polygon points="127.9,407.5 126.8,404.6 127.9,405.3 129.1,404.6 			"/>
		</g>
	</g>
</g>
<g>
	<path d="M126.1,276.6c0-0.1,0-0.3,0-0.6c-0.1-0.4-0.2-0.8-0.5-1.1c-0.3-0.3-0.8-0.6-1.4-0.7v0c0.3,0.3,0.5,0.7,0.5,1.2
		c0,0.9-0.7,1.5-1.6,1.5c-1,0-1.8-0.7-1.8-1.7s0.8-1.7,2.1-1.7c1.1,0,1.9,0.4,2.4,0.9c0.4,0.4,0.6,0.9,0.7,1.5c0,0.3,0,0.5,0,0.6
		H126.1z M123.2,276.4c0.6,0,1.1-0.4,1.1-1c0-0.5-0.2-0.8-0.5-1c-0.1,0-0.1-0.1-0.3-0.1c-0.9,0-1.5,0.3-1.5,1
		C122,276,122.5,276.4,123.2,276.4z"/>
	<path d="M125.8,272.9c0.1-0.2,0.3-0.6,0.3-1.1c0-0.9-0.6-1.2-1-1.1c-0.7,0-1,0.6-1,1.3v0.4h-0.5v-0.4c0-0.5-0.3-1.1-0.9-1.1
		c-0.4,0-0.8,0.3-0.8,0.9c0,0.4,0.2,0.8,0.3,1l-0.5,0.2c-0.2-0.3-0.4-0.8-0.4-1.3c0-1,0.6-1.5,1.2-1.5c0.5,0,1,0.3,1.2,0.9h0
		c0.1-0.6,0.6-1.1,1.3-1.1c0.8,0,1.5,0.6,1.5,1.9c0,0.6-0.2,1.1-0.3,1.3L125.8,272.9z"/>
	<path d="M126.2,269c-0.3,0-0.5-0.2-0.5-0.5s0.2-0.5,0.5-0.5c0.3,0,0.5,0.2,0.5,0.5C126.7,268.8,126.5,269,126.2,269z"/>
	<path d="M122.1,264.4v1.9l1.3,0.2c0-0.1,0-0.2,0-0.4c0-0.4,0.1-0.8,0.3-1.1c0.2-0.4,0.7-0.7,1.3-0.7c1,0,1.7,0.8,1.7,1.9
		c0,0.6-0.2,1-0.3,1.3l-0.5-0.2c0.1-0.2,0.3-0.6,0.3-1.1c0-0.6-0.4-1.2-1.1-1.2c-0.7,0-1.1,0.4-1.1,1.5c0,0.3,0,0.5,0.1,0.7
		l-2.4-0.3v-2.4H122.1z"/>
	<path d="M124,260c1.7,0,2.7,0.6,2.7,1.8c0,1-0.9,1.7-2.6,1.7c-1.7,0-2.6-0.7-2.6-1.8C121.5,260.6,122.4,260,124,260z M124.1,262.8
		c1.3,0,2.1-0.4,2.1-1c0-0.7-0.8-1-2.1-1c-1.3,0-2.1,0.3-2.1,1C122,262.3,122.7,262.8,124.1,262.8z"/>
</g>
<g>
	<g>
		<line class="st1" x1="257.9" y1="107.8" x2="234" y2="107.8"/>
		<g>
			<polygon points="259.9,107.8 257.1,106.7 257.7,107.8 257.1,109 			"/>
		</g>
		<g>
			<polygon points="232,107.8 234.8,106.7 234.1,107.8 234.8,109 			"/>
		</g>
	</g>
</g>
<g>
	<path d="M239.2,101.8L239.2,101.8l-0.9,0.5l-0.1-0.5l1.1-0.6h0.6v5.1h-0.7V101.8z"/>
	<path d="M245,103.6c0,1.7-0.6,2.7-1.8,2.7c-1,0-1.7-0.9-1.7-2.6c0-1.7,0.7-2.6,1.8-2.6C244.4,101,245,102,245,103.6z M242.3,103.7
		c0,1.3,0.4,2.1,1,2.1c0.7,0,1-0.8,1-2.1c0-1.3-0.3-2.1-1-2.1C242.7,101.6,242.3,102.3,242.3,103.7z"/>
	<path d="M245.7,105.8c0-0.3,0.2-0.5,0.5-0.5s0.5,0.2,0.5,0.5c0,0.3-0.2,0.5-0.5,0.5C245.9,106.3,245.7,106.1,245.7,105.8z"/>
	<path d="M250.7,103.6c0,1.7-0.6,2.7-1.8,2.7c-1,0-1.7-0.9-1.7-2.6c0-1.7,0.7-2.6,1.8-2.6C250.1,101,250.7,102,250.7,103.6z
		 M247.9,103.7c0,1.3,0.4,2.1,1,2.1c0.7,0,1-0.8,1-2.1c0-1.3-0.3-2.1-1-2.1C248.3,101.6,247.9,102.3,247.9,103.7z"/>
	<path d="M254.7,103.6c0,1.7-0.6,2.7-1.8,2.7c-1,0-1.7-0.9-1.7-2.6c0-1.7,0.7-2.6,1.8-2.6C254.1,101,254.7,102,254.7,103.6z
		 M251.9,103.7c0,1.3,0.4,2.1,1,2.1c0.7,0,1-0.8,1-2.1c0-1.3-0.3-2.1-1-2.1C252.4,101.6,251.9,102.3,251.9,103.7z"/>
</g>
<g>
	<g>
		<line class="st1" x1="344.2" y1="91.5" x2="234" y2="91.5"/>
		<g>
			<polygon points="346.2,91.5 343.4,90.4 344.1,91.5 343.4,92.7 			"/>
		</g>
		<g>
			<polygon points="232,91.5 234.8,90.4 234.1,91.5 234.8,92.7 			"/>
		</g>
	</g>
</g>
<g>
	<path d="M282.4,89.9v-1.4h-2.4v-0.5l2.3-3.2h0.7V88h0.7v0.5h-0.7v1.4H282.4z M282.4,88v-1.7c0-0.3,0-0.5,0-0.8h0
		c-0.2,0.3-0.3,0.5-0.4,0.8l-1.2,1.7v0H282.4z"/>
	<path d="M287.7,87.3c0,1.7-0.6,2.7-1.8,2.7c-1,0-1.7-0.9-1.7-2.6c0-1.7,0.7-2.6,1.8-2.6C287.1,84.7,287.7,85.7,287.7,87.3z
		 M284.9,87.4c0,1.3,0.4,2.1,1,2.1c0.7,0,1-0.8,1-2.1c0-1.3-0.3-2.1-1-2.1C285.4,85.3,284.9,86,284.9,87.4z"/>
	<path d="M288.4,89.5c0-0.3,0.2-0.5,0.5-0.5s0.5,0.2,0.5,0.5c0,0.3-0.2,0.5-0.5,0.5C288.6,90,288.4,89.8,288.4,89.5z"/>
	<path d="M290.1,89.1c0.2,0.1,0.6,0.3,1.1,0.3c0.9,0,1.2-0.6,1.1-1c0-0.7-0.6-1-1.3-1h-0.4v-0.5h0.4c0.5,0,1.1-0.3,1.1-0.9
		c0-0.4-0.3-0.8-0.9-0.8c-0.4,0-0.8,0.2-1,0.3l-0.2-0.5c0.3-0.2,0.8-0.4,1.3-0.4c1,0,1.5,0.6,1.5,1.2c0,0.5-0.3,1-0.9,1.2v0
		c0.6,0.1,1.1,0.6,1.1,1.3c0,0.8-0.6,1.5-1.9,1.5c-0.6,0-1.1-0.2-1.3-0.3L290.1,89.1z"/>
	<path d="M297.3,87.3c0,1.7-0.6,2.7-1.8,2.7c-1,0-1.7-0.9-1.7-2.6c0-1.7,0.7-2.6,1.8-2.6C296.7,84.7,297.3,85.7,297.3,87.3z
		 M294.6,87.4c0,1.3,0.4,2.1,1,2.1c0.7,0,1-0.8,1-2.1c0-1.3-0.3-2.1-1-2.1C295,85.3,294.6,86,294.6,87.4z"/>
</g>
<g>
	<g>
		<line class="st1" x1="251.2" y1="339.5" x2="234" y2="339.5"/>
		<g>
			<polygon points="253.2,339.5 250.4,338.3 251.1,339.5 250.4,340.6 			"/>
		</g>
		<g>
			<polygon points="232,339.5 234.8,338.3 234.1,339.5 234.8,340.6 			"/>
		</g>
	</g>
</g>
<g>
	<path d="M240.1,332.8v0.5l-2.2,4.6h-0.7l2.2-4.5v0h-2.5v-0.6H240.1z"/>
	<path d="M240.9,337.4c0-0.3,0.2-0.5,0.5-0.5s0.5,0.2,0.5,0.5c0,0.3-0.2,0.5-0.5,0.5C241,337.9,240.9,337.7,240.9,337.4z"/>
	<path d="M245.4,333.3h-1.9l-0.2,1.3c0.1,0,0.2,0,0.4,0c0.4,0,0.8,0.1,1.1,0.3c0.4,0.2,0.7,0.7,0.7,1.3c0,1-0.8,1.7-1.9,1.7
		c-0.6,0-1-0.2-1.3-0.3l0.2-0.5c0.2,0.1,0.6,0.3,1.1,0.3c0.6,0,1.2-0.4,1.2-1.1c0-0.7-0.4-1.1-1.5-1.1c-0.3,0-0.5,0-0.7,0.1l0.3-2.4
		h2.4V333.3z"/>
	<path d="M249.8,335.3c0,1.7-0.6,2.7-1.8,2.7c-1,0-1.7-0.9-1.7-2.6c0-1.7,0.7-2.6,1.8-2.6C249.2,332.7,249.8,333.6,249.8,335.3z
		 M247,335.3c0,1.3,0.4,2.1,1,2.1c0.7,0,1-0.8,1-2.1c0-1.3-0.3-2.1-1-2.1C247.5,333.2,247,334,247,335.3z"/>
</g>
<polyline class="st2" points="210.2,166.5 260.3,166.5 260.3,103.5 "/>
<line class="st2" x1="232" y1="142.4" x2="93.3" y2="142.4"/>
<line class="st2" x1="232" y1="116.2" x2="80.2" y2="116.2"/>
<polyline class="st2" points="132.2,377.7 232,377.7 253.2,377.7 253.2,335.1 "/>
<polyline class="st2" points="106.3,431.6 232,431.6 253.2,431.6 "/>
<line class="st2" x1="93.3" y1="454.2" x2="232" y2="454.2"/>
<line class="st2" x1="80.2" y1="480.5" x2="232" y2="480.5"/>
<polyline class="st2" points="119.3,407.5 232,407.5 253.2,407.5 "/>
<line class="st2" x1="232" y1="87.2" x2="232" y2="142.4"/>
<line class="st2" x1="346.2" y1="87.2" x2="346.2" y2="142.4"/>
<g>
	<g>
		<line class="st3" x1="289.1" y1="116.2" x2="289.1" y2="119"/>
		<line class="st4" x1="289.1" y1="124.7" x2="289.1" y2="474.8"/>
		<line class="st3" x1="289.1" y1="477.6" x2="289.1" y2="480.5"/>
	</g>
</g>
<g>
	<g>
		<line class="st3" x1="260.3" y1="166.5" x2="260.3" y2="169.4"/>
		<line class="st5" x1="260.3" y1="174.8" x2="260.3" y2="302.9"/>
		<line class="st3" x1="260.3" y1="305.6" x2="260.3" y2="308.4"/>
	</g>
</g>
<line class="st2" x1="253.2" y1="353.8" x2="145.3" y2="353.8"/>
<line class="st2" x1="260.3" y1="308.4" x2="158.3" y2="308.4"/>
<line class="st2" x1="255.8" y1="200.1" x2="210.2" y2="200.1"/>
<line class="st2" x1="255.8" y1="219.4" x2="184.3" y2="219.4"/>
<line class="st2" x1="260.3" y1="265" x2="171.3" y2="265"/>
<g>
	<g>
		<line class="st1" x1="256.4" y1="229.2" x2="321.8" y2="229.2"/>
		<g>
			<polygon points="254.4,229.2 257.2,230.3 256.5,229.2 257.2,228 			"/>
		</g>
		<g>
			<polygon points="323.8,229.2 321,230.3 321.7,229.2 321,228 			"/>
		</g>
	</g>
</g>
<g>
	<path d="M368,228.3v-0.4l0.5-0.5c1.3-1.2,1.9-1.9,1.9-2.7c0-0.5-0.3-1-1-1c-0.5,0-0.8,0.2-1.1,0.4l-0.2-0.5
		c0.4-0.3,0.9-0.5,1.4-0.5c1.1,0,1.6,0.8,1.6,1.5c0,0.9-0.7,1.7-1.8,2.7l-0.4,0.4v0h2.3v0.6H368z"/>
	<path d="M374.1,228.3v-1.4h-2.4v-0.5l2.3-3.2h0.7v3.2h0.7v0.5h-0.7v1.4H374.1z M374.1,226.4v-1.7c0-0.3,0-0.5,0-0.8h0
		c-0.2,0.3-0.3,0.5-0.4,0.8l-1.2,1.7v0H374.1z"/>
	<path d="M376,227.9c0-0.3,0.2-0.5,0.5-0.5s0.5,0.2,0.5,0.5c0,0.3-0.2,0.5-0.5,0.5C376.2,228.4,376,228.2,376,227.9z"/>
	<path d="M380.6,223.8h-1.9l-0.2,1.3c0.1,0,0.2,0,0.4,0c0.4,0,0.8,0.1,1.1,0.3c0.4,0.2,0.7,0.7,0.7,1.3c0,1-0.8,1.7-1.9,1.7
		c-0.6,0-1-0.2-1.3-0.3l0.2-0.5c0.2,0.1,0.6,0.3,1.1,0.3c0.6,0,1.2-0.4,1.2-1.1c0-0.7-0.4-1.1-1.5-1.1c-0.3,0-0.5,0-0.7,0.1l0.3-2.4
		h2.4V223.8z"/>
	<path d="M385,225.7c0,1.7-0.6,2.7-1.8,2.7c-1,0-1.7-0.9-1.7-2.6c0-1.7,0.7-2.6,1.8-2.6C384.4,223.1,385,224.1,385,225.7z
		 M382.2,225.8c0,1.3,0.4,2.1,1,2.1c0.7,0,1-0.8,1-2.1c0-1.3-0.3-2.1-1-2.1C382.7,223.7,382.2,224.4,382.2,225.8z"/>
</g>
<line class="st2" x1="323.8" y1="229.2" x2="385.2" y2="229.2"/>
<line class="st2" x1="323.8" y1="237.8" x2="323.8" y2="209.5"/>
<line class="st2" x1="305.2" y1="193.4" x2="305.2" y2="175"/>
<line class="st2" x1="254.4" y1="209.5" x2="254.4" y2="237.8"/>
<g>
	<g>
		<polyline class="st1" points="384.3,148.2 353.2,148.2 327.2,161.7 		"/>
		<g>
			<polygon points="325.4,162.6 327.4,160.3 327.3,161.6 328.5,162.3 			"/>
		</g>
	</g>
</g>
<g>
	<path d="M368.5,286.9l0.3-0.5l0.3,0.2l-0.3,0.5c0.4,0.4,0.6,0.9,0.6,1.4c0,1.4-1,2-1.8,2c-0.4,0-0.7-0.1-1-0.3l-0.3,0.5l-0.3-0.2
		l0.3-0.5c-0.4-0.3-0.6-0.8-0.6-1.5c0-1.3,0.8-2,1.9-2C367.9,286.6,368.2,286.7,368.5,286.9z M368.2,287.4c-0.2-0.1-0.4-0.2-0.7-0.2
		c-0.8,0-1.2,0.8-1.2,1.5c0,0.3,0.1,0.7,0.3,0.9l0,0L368.2,287.4z M366.9,289.8c0.2,0.2,0.4,0.2,0.6,0.2c0.7,0,1.2-0.6,1.2-1.5
		c0-0.3-0.1-0.6-0.3-0.9h0L366.9,289.8z"/>
	<path d="M370.5,290c0.1,0,0.3,0,0.6,0c0.4-0.1,0.8-0.2,1.1-0.5c0.3-0.3,0.6-0.8,0.7-1.4h0c-0.3,0.3-0.7,0.5-1.2,0.5
		c-0.9,0-1.5-0.7-1.5-1.6c0-1,0.7-1.8,1.7-1.8s1.7,0.8,1.7,2.1c0,1.1-0.4,1.9-0.9,2.4c-0.4,0.4-0.9,0.6-1.5,0.7c-0.3,0-0.5,0-0.6,0
		V290z M370.7,287.1c0,0.6,0.4,1.1,1,1.1c0.5,0,0.8-0.2,1-0.5c0-0.1,0.1-0.1,0.1-0.3c0-0.9-0.3-1.5-1-1.5
		C371.1,285.8,370.7,286.4,370.7,287.1z"/>
	<path d="M374.1,290.1c0-0.3,0.2-0.5,0.5-0.5s0.5,0.2,0.5,0.5c0,0.3-0.2,0.5-0.5,0.5C374.3,290.6,374.1,290.4,374.1,290.1z"/>
	<path d="M377.2,286L377.2,286l-0.9,0.5l-0.1-0.5l1.1-0.6h0.6v5.1h-0.7V286z"/>
	<path d="M383.1,287.9c0,1.7-0.6,2.7-1.8,2.7c-1,0-1.7-0.9-1.7-2.6c0-1.7,0.7-2.6,1.8-2.6C382.5,285.3,383.1,286.3,383.1,287.9z
		 M380.3,288c0,1.3,0.4,2.1,1,2.1c0.7,0,1-0.8,1-2.1c0-1.3-0.3-2.1-1-2.1C380.7,285.8,380.3,286.6,380.3,288z"/>
</g>
<g>
	<g>
		<polyline class="st1" points="384.3,291.8 353.2,291.8 331.2,302.1 		"/>
		<g>
			<polygon points="329.4,303 331.5,300.8 331.4,302.1 332.5,302.8 			"/>
		</g>
	</g>
</g>
<g>
	<path d="M368.5,335.3l0.3-0.5l0.3,0.2l-0.3,0.5c0.4,0.4,0.6,0.9,0.6,1.4c0,1.4-1,2-1.8,2c-0.4,0-0.7-0.1-1-0.3l-0.3,0.5L366,339
		l0.3-0.5c-0.4-0.3-0.6-0.8-0.6-1.5c0-1.3,0.8-2,1.9-2C367.9,335.1,368.2,335.2,368.5,335.3z M368.2,335.8c-0.2-0.1-0.4-0.2-0.7-0.2
		c-0.8,0-1.2,0.8-1.2,1.5c0,0.3,0.1,0.7,0.3,0.9l0,0L368.2,335.8z M366.9,338.3c0.2,0.2,0.4,0.2,0.6,0.2c0.7,0,1.2-0.6,1.2-1.5
		c0-0.3-0.1-0.6-0.3-0.9h0L366.9,338.3z"/>
	<path d="M370.2,338.1c0.2,0.1,0.6,0.3,1.1,0.3c0.9,0,1.2-0.6,1.1-1c0-0.7-0.6-1-1.3-1h-0.4V336h0.4c0.5,0,1.1-0.3,1.1-0.9
		c0-0.4-0.3-0.8-0.9-0.8c-0.4,0-0.8,0.2-1,0.3l-0.2-0.5c0.3-0.2,0.8-0.4,1.3-0.4c1,0,1.5,0.6,1.5,1.2c0,0.5-0.3,1-0.9,1.2v0
		c0.6,0.1,1.1,0.6,1.1,1.3c0,0.8-0.6,1.5-1.9,1.5c-0.6,0-1.1-0.2-1.3-0.3L370.2,338.1z"/>
	<path d="M374.1,338.5c0-0.3,0.2-0.5,0.5-0.5s0.5,0.2,0.5,0.5c0,0.3-0.2,0.5-0.5,0.5C374.3,339,374.1,338.8,374.1,338.5z"/>
	<path d="M375.7,338.9v-0.4l0.5-0.5c1.3-1.2,1.9-1.9,1.9-2.7c0-0.5-0.3-1-1-1c-0.5,0-0.8,0.2-1.1,0.4l-0.2-0.5
		c0.4-0.3,0.9-0.5,1.4-0.5c1.1,0,1.6,0.8,1.6,1.5c0,0.9-0.7,1.7-1.8,2.7l-0.4,0.4v0h2.3v0.6H375.7z"/>
	<path d="M383.1,336.3c0,1.7-0.6,2.7-1.8,2.7c-1,0-1.7-0.9-1.7-2.6c0-1.7,0.7-2.6,1.8-2.6C382.5,333.8,383.1,334.7,383.1,336.3z
		 M380.3,336.4c0,1.3,0.4,2.1,1,2.1c0.7,0,1-0.8,1-2.1c0-1.3-0.3-2.1-1-2.1C380.7,334.3,380.3,335,380.3,336.4z"/>
</g>
<g>
	<g>
		<polyline class="st1" points="384.3,340.2 353.2,340.2 330.6,350.9 		"/>
		<g>
			<polygon points="328.8,351.8 330.9,349.5 330.7,350.9 331.8,351.6 			"/>
		</g>
	</g>
</g>
<g>
	<path d="M368.5,359.2l0.3-0.5l0.3,0.2l-0.3,0.5c0.4,0.4,0.6,0.9,0.6,1.4c0,1.4-1,2-1.8,2c-0.4,0-0.7-0.1-1-0.3l-0.3,0.5l-0.3-0.2
		l0.3-0.5c-0.4-0.3-0.6-0.8-0.6-1.5c0-1.3,0.8-2,1.9-2C367.9,358.9,368.2,359,368.5,359.2z M368.2,359.6c-0.2-0.1-0.4-0.2-0.7-0.2
		c-0.8,0-1.2,0.8-1.2,1.5c0,0.3,0.1,0.7,0.3,0.9l0,0L368.2,359.6z M366.9,362.1c0.2,0.2,0.4,0.2,0.6,0.2c0.7,0,1.2-0.6,1.2-1.5
		c0-0.3-0.1-0.6-0.3-0.9h0L366.9,362.1z"/>
	<path d="M373,358.2c-0.1,0-0.3,0-0.5,0c-1.1,0.2-1.6,1-1.8,1.8h0c0.2-0.3,0.7-0.6,1.2-0.6c0.9,0,1.5,0.6,1.5,1.6
		c0,0.9-0.6,1.8-1.7,1.8c-1.1,0-1.8-0.8-1.8-2.2c0-1,0.4-1.8,0.9-2.3c0.4-0.4,1-0.7,1.6-0.8c0.2,0,0.4,0,0.5,0V358.2z M372.8,361.1
		c0-0.7-0.4-1.2-1-1.2c-0.4,0-0.8,0.3-1,0.6c0,0.1-0.1,0.2-0.1,0.3c0,0.8,0.4,1.5,1.1,1.5C372.4,362.3,372.8,361.8,372.8,361.1z"/>
	<path d="M374.1,362.4c0-0.3,0.2-0.5,0.5-0.5s0.5,0.2,0.5,0.5c0,0.3-0.2,0.5-0.5,0.5C374.3,362.9,374.1,362.6,374.1,362.4z"/>
	<path d="M377.2,358.3L377.2,358.3l-0.9,0.5l-0.1-0.5l1.1-0.6h0.6v5.1h-0.7V358.3z"/>
	<path d="M383.1,360.2c0,1.7-0.6,2.7-1.8,2.7c-1,0-1.7-0.9-1.7-2.6c0-1.7,0.7-2.6,1.8-2.6C382.5,357.6,383.1,358.6,383.1,360.2z
		 M380.3,360.3c0,1.3,0.4,2.1,1,2.1c0.7,0,1-0.8,1-2.1c0-1.3-0.3-2.1-1-2.1C380.7,358.1,380.3,358.9,380.3,360.3z"/>
</g>
<g>
	<g>
		<polyline class="st1" points="384.3,364.1 353.2,364.1 334.4,373.1 		"/>
		<g>
			<polygon points="332.6,374 334.6,371.8 334.5,373.1 335.6,373.8 			"/>
		</g>
	</g>
</g>
<g>
	<path d="M368.5,270.7l0.3-0.5l0.3,0.2l-0.3,0.5c0.4,0.4,0.6,0.9,0.6,1.4c0,1.4-1,2-1.8,2c-0.4,0-0.7-0.1-1-0.3l-0.3,0.5l-0.3-0.2
		l0.3-0.5c-0.4-0.3-0.6-0.8-0.6-1.5c0-1.3,0.8-2,1.9-2C367.9,270.4,368.2,270.5,368.5,270.7z M368.2,271.2c-0.2-0.1-0.4-0.2-0.7-0.2
		c-0.8,0-1.2,0.8-1.2,1.5c0,0.3,0.1,0.7,0.3,0.9l0,0L368.2,271.2z M366.9,273.7c0.2,0.2,0.4,0.2,0.6,0.2c0.7,0,1.2-0.6,1.2-1.5
		c0-0.3-0.1-0.6-0.3-0.9h0L366.9,273.7z"/>
	<path d="M373.3,269.2v0.5l-2.2,4.6h-0.7l2.2-4.5v0h-2.5v-0.6H373.3z"/>
	<path d="M374.1,273.9c0-0.3,0.2-0.5,0.5-0.5s0.5,0.2,0.5,0.5c0,0.3-0.2,0.5-0.5,0.5C374.3,274.4,374.1,274.2,374.1,273.9z"/>
	<path d="M379.1,271.7c0,1.7-0.6,2.7-1.8,2.7c-1,0-1.7-0.9-1.7-2.6c0-1.7,0.7-2.6,1.8-2.6C378.4,269.1,379.1,270.1,379.1,271.7z
		 M376.3,271.8c0,1.3,0.4,2.1,1,2.1c0.7,0,1-0.8,1-2.1c0-1.3-0.3-2.1-1-2.1C376.7,269.7,376.3,270.4,376.3,271.8z"/>
	<path d="M383.1,271.7c0,1.7-0.6,2.7-1.8,2.7c-1,0-1.7-0.9-1.7-2.6c0-1.7,0.7-2.6,1.8-2.6C382.5,269.1,383.1,270.1,383.1,271.7z
		 M380.3,271.8c0,1.3,0.4,2.1,1,2.1c0.7,0,1-0.8,1-2.1c0-1.3-0.3-2.1-1-2.1C380.7,269.7,380.3,270.4,380.3,271.8z"/>
</g>
<g>
	<g>
		<polyline class="st1" points="384.3,275.6 353.2,275.6 329.3,268.4 		"/>
		<g>
			<polygon points="327.4,267.9 330.4,267.6 329.4,268.5 329.7,269.8 			"/>
		</g>
	</g>
</g>
<g>
	<g>
		<rect x="443.4" y="116.2" class="st0" width="114.2" height="364.3"/>
		<circle class="st0" cx="529.3" cy="166.5" r="8.5"/>
		<circle class="st0" cx="471.7" cy="166.5" r="8.5"/>
		<circle class="st0" cx="529.3" cy="308.4" r="12.8"/>
		<circle class="st0" cx="471.7" cy="308.4" r="12.8"/>
		<circle class="st0" cx="529.3" cy="265" r="9.9"/>
		<circle class="st0" cx="471.7" cy="265" r="9.9"/>
		<circle class="st0" cx="536.3" cy="377.7" r="8.5"/>
		<circle class="st0" cx="464.6" cy="377.7" r="8.5"/>
		<circle class="st0" cx="500.5" cy="377.7" r="8.5"/>
		<circle class="st0" cx="536.3" cy="353.6" r="4.3"/>
		<circle class="st0" cx="500.5" cy="353.6" r="4.3"/>
		<circle class="st0" cx="464.6" cy="353.6" r="4.3"/>
		<circle class="st0" cx="536.3" cy="407.5" r="4.3"/>
		<circle class="st0" cx="500.5" cy="407.5" r="4.3"/>
		<circle class="st0" cx="464.6" cy="407.5" r="4.3"/>
		<circle class="st0" cx="536.3" cy="431.6" r="8.5"/>
		<circle class="st0" cx="464.6" cy="431.6" r="8.5"/>
		<circle class="st0" cx="500.5" cy="431.6" r="8.5"/>
		<g>
			<path class="st0" d="M474.5,124.7c0,2.5-2,4.5-4.5,4.5h-5.3c-2.5,0-4.5-2-4.5-4.5c0-2.5,2-4.5,4.5-4.5h5.3
				C472.4,120.2,474.5,122.2,474.5,124.7z"/>
		</g>
		<g>
			<path class="st0" d="M474.5,471.9c0,2.5-2,4.5-4.5,4.5h-5.3c-2.5,0-4.5-2-4.5-4.5s2-4.5,4.5-4.5h5.3
				C472.4,467.4,474.5,469.5,474.5,471.9z"/>
		</g>
		<g>
			<path class="st0" d="M535.2,216.5c0,1.6-1.3,2.8-2.8,2.8h-63.8c-1.6,0-2.8-1.3-2.8-2.8v-13.6c0-1.6,1.3-2.8,2.8-2.8h63.8
				c1.6,0,2.8,1.3,2.8,2.8V216.5z"/>
		</g>
	</g>
</g>
<g>
	<g>
		<path class="st6" d="M615.8,116.2v364.3H730V116.2H615.8z M639.7,476.5h-5.3c-2.5,0-4.5-2-4.5-4.5l0,0c0-2.5,2-4.5,4.5-4.5h5.3
			c2.5,0,4.5,2,4.5,4.5l0,0C644.2,474.5,642.2,476.5,639.7,476.5z M639.7,129.2h-5.3c-2.5,0-4.5-2-4.5-4.5v0c0-2.5,2-4.5,4.5-4.5
			h5.3c2.5,0,4.5,2,4.5,4.5v0C644.2,127.2,642.2,129.2,639.7,129.2z"/>
	</g>
	<polygon class="st7" points="644.2,365.3 629.9,365.3 622.8,377.7 629.9,390.1 644.2,390.1 651.3,377.7 	"/>
	<circle class="st8" cx="701.7" cy="308.4" r="12.8"/>
	<circle class="st8" cx="644.1" cy="308.4" r="12.8"/>
	<circle class="st0" cx="701.7" cy="166.5" r="8.5"/>
	<circle class="st0" cx="644.1" cy="166.5" r="8.5"/>
	<circle cx="701.7" cy="265" r="17.7"/>
	<circle cx="644.1" cy="265" r="17.7"/>
	<circle class="st0" cx="701.7" cy="265" r="9.9"/>
	<circle class="st0" cx="644.1" cy="265" r="9.9"/>
	<circle class="st9" cx="637" cy="377.7" r="8.5"/>
	<polygon class="st7" points="680,365.3 665.7,365.3 658.6,377.7 665.7,390.1 680,390.1 687.1,377.7 	"/>
	<circle class="st9" cx="672.9" cy="377.7" r="8.5"/>
	<polygon class="st7" points="715.9,365.3 701.6,365.3 694.5,377.7 701.6,390.1 715.9,390.1 723,377.7 	"/>
	<circle class="st9" cx="708.7" cy="377.7" r="8.5"/>
	<polygon points="708.8,154.2 694.5,154.2 687.4,166.5 694.5,178.9 708.8,178.9 715.9,166.5 	"/>
	<circle class="st9" cx="701.7" cy="166.5" r="8.5"/>
	<circle class="st0" cx="644.1" cy="166.5" r="8.5"/>
	<polygon points="651.2,154.2 637,154.2 629.8,166.5 637,178.9 651.2,178.9 658.4,166.5 	"/>
	<circle class="st9" cx="644.1" cy="166.5" r="8.5"/>
	<polygon class="st7" points="644.2,419.2 629.9,419.2 622.8,431.6 629.9,443.9 644.2,443.9 651.3,431.6 	"/>
	<circle class="st9" cx="637" cy="431.6" r="8.5"/>
	<polygon class="st7" points="680,419.2 665.7,419.2 658.6,431.6 665.7,443.9 680,443.9 687.1,431.6 	"/>
	<circle class="st9" cx="672.9" cy="431.6" r="8.5"/>
	<polygon class="st7" points="715.9,419.2 701.6,419.2 694.5,431.6 701.6,443.9 715.9,443.9 723,431.6 	"/>
	<circle class="st9" cx="708.7" cy="431.6" r="8.5"/>
	<circle class="st7" cx="708.7" cy="353.6" r="4.3"/>
	<circle class="st7" cx="672.9" cy="353.6" r="4.3"/>
	<circle class="st7" cx="637" cy="353.6" r="4.3"/>
	<circle class="st7" cx="708.7" cy="407.5" r="4.3"/>
	<circle class="st7" cx="672.9" cy="407.5" r="4.3"/>
	<circle class="st7" cx="637" cy="407.5" r="4.3"/>
	<line class="st10" x1="697.3" y1="269.4" x2="688.8" y2="277.2"/>
	<line class="st10" x1="639.3" y1="269.4" x2="631.2" y2="277.2"/>
	<g>
		<path class="st11" d="M667.5,123.5c0.3,0.3,0.5,0.7,0.5,1.3v2.7h-0.6v-0.7c-0.1,0.2-0.3,0.4-0.6,0.5c-0.3,0.1-0.6,0.2-0.9,0.2
			c-0.5,0-0.9-0.1-1.2-0.4c-0.3-0.2-0.4-0.5-0.4-0.9c0-0.4,0.1-0.7,0.4-0.9s0.7-0.3,1.3-0.3h1.4v-0.3c0-0.4-0.1-0.7-0.3-0.9
			c-0.2-0.2-0.5-0.3-0.9-0.3c-0.3,0-0.5,0-0.8,0.1s-0.5,0.2-0.7,0.4l-0.3-0.4c0.2-0.2,0.5-0.3,0.8-0.4c0.3-0.1,0.6-0.2,1-0.2
			C666.7,123.1,667.2,123.2,667.5,123.5z M666.8,126.9c0.2-0.2,0.4-0.4,0.5-0.7v-0.7H666c-0.8,0-1.1,0.3-1.1,0.8
			c0,0.3,0.1,0.5,0.3,0.6c0.2,0.1,0.5,0.2,0.8,0.2C666.3,127.1,666.6,127,666.8,126.9z"/>
		<path class="st11" d="M669.6,121.3h0.6v6.2h-0.6V121.3z"/>
		<path class="st11" d="M671.8,121.3h0.6v6.2h-0.6V121.3z"/>
		<path class="st11" d="M677.9,125.5h-3.7c0,0.5,0.2,0.8,0.5,1.1c0.3,0.3,0.7,0.4,1.2,0.4c0.3,0,0.5,0,0.8-0.1
			c0.2-0.1,0.4-0.2,0.6-0.4l0.3,0.4c-0.2,0.2-0.4,0.4-0.7,0.5c-0.3,0.1-0.6,0.2-1,0.2c-0.5,0-0.9-0.1-1.2-0.3
			c-0.3-0.2-0.6-0.5-0.8-0.8c-0.2-0.3-0.3-0.7-0.3-1.2c0-0.4,0.1-0.8,0.3-1.2c0.2-0.3,0.4-0.6,0.8-0.8c0.3-0.2,0.7-0.3,1.1-0.3
			s0.8,0.1,1.1,0.3c0.3,0.2,0.6,0.5,0.8,0.8c0.2,0.3,0.3,0.7,0.3,1.2L677.9,125.5z M674.7,124c-0.3,0.3-0.4,0.6-0.5,1.1h3.1
			c0-0.4-0.2-0.8-0.5-1.1c-0.3-0.3-0.6-0.4-1.1-0.4C675.3,123.6,675,123.7,674.7,124z"/>
		<path class="st11" d="M682.6,123.6c0.3,0.3,0.5,0.8,0.5,1.4v2.5h-0.6V125c0-0.5-0.1-0.8-0.3-1c-0.2-0.2-0.6-0.4-1-0.4
			c-0.5,0-0.8,0.1-1.1,0.4c-0.3,0.3-0.4,0.7-0.4,1.2v2.3h-0.6v-4.4h0.6v0.8c0.2-0.3,0.4-0.5,0.7-0.6s0.6-0.2,1-0.2
			C681.9,123.1,682.3,123.2,682.6,123.6z"/>
		<path class="st11" d="M687.1,127.4c-0.3-0.1-0.6-0.2-0.8-0.4l0.3-0.5c0.2,0.1,0.4,0.3,0.7,0.4s0.6,0.1,0.9,0.1
			c0.4,0,0.7-0.1,0.9-0.2c0.2-0.1,0.3-0.3,0.3-0.5c0-0.2-0.1-0.3-0.2-0.4s-0.2-0.2-0.4-0.2c-0.2,0-0.4-0.1-0.6-0.1
			c-0.4-0.1-0.6-0.1-0.9-0.2c-0.2-0.1-0.4-0.2-0.6-0.4c-0.2-0.2-0.2-0.4-0.2-0.7c0-0.4,0.2-0.7,0.5-0.9c0.3-0.2,0.7-0.4,1.3-0.4
			c0.3,0,0.6,0,0.9,0.1c0.3,0.1,0.5,0.2,0.7,0.3l-0.3,0.5c-0.4-0.3-0.8-0.4-1.3-0.4c-0.4,0-0.7,0.1-0.9,0.2
			c-0.2,0.1-0.3,0.3-0.3,0.5c0,0.2,0.1,0.3,0.2,0.4s0.2,0.2,0.4,0.2c0.2,0,0.4,0.1,0.7,0.1c0.4,0.1,0.6,0.1,0.8,0.2
			c0.2,0.1,0.4,0.2,0.5,0.3c0.1,0.2,0.2,0.4,0.2,0.7c0,0.4-0.2,0.7-0.5,0.9c-0.3,0.2-0.8,0.3-1.3,0.3
			C687.7,127.6,687.4,127.5,687.1,127.4z"/>
		<path class="st11" d="M694.6,123.1l-2.2,4.9c-0.2,0.4-0.4,0.7-0.6,0.9c-0.2,0.2-0.5,0.3-0.8,0.3c-0.2,0-0.4,0-0.6-0.1
			s-0.3-0.2-0.5-0.3l0.3-0.4c0.2,0.2,0.5,0.3,0.8,0.3c0.2,0,0.4-0.1,0.5-0.2c0.1-0.1,0.3-0.3,0.4-0.6l0.2-0.4l-2-4.4h0.6l1.7,3.7
			l1.7-3.7H694.6z"/>
		<path class="st11" d="M699,123.6c0.3,0.3,0.5,0.8,0.5,1.4v2.5h-0.6V125c0-0.5-0.1-0.8-0.3-1c-0.2-0.2-0.6-0.4-1-0.4
			c-0.5,0-0.8,0.1-1.1,0.4c-0.3,0.3-0.4,0.7-0.4,1.2v2.3h-0.6v-4.4h0.6v0.8c0.2-0.3,0.4-0.5,0.7-0.6s0.6-0.2,1-0.2
			C698.2,123.1,698.7,123.2,699,123.6z"/>
		<path class="st11" d="M703.4,127.2c-0.1,0.1-0.2,0.2-0.4,0.2s-0.3,0.1-0.5,0.1c-0.4,0-0.7-0.1-1-0.3c-0.2-0.2-0.3-0.5-0.3-0.9
			v-2.7h-0.8v-0.5h0.8v-1h0.6v1h1.3v0.5h-1.3v2.6c0,0.3,0.1,0.5,0.2,0.6c0.1,0.1,0.3,0.2,0.6,0.2c0.1,0,0.2,0,0.4-0.1
			c0.1,0,0.2-0.1,0.3-0.2L703.4,127.2z"/>
		<path class="st11" d="M708,123.6c0.3,0.3,0.5,0.8,0.5,1.4v2.5h-0.6V125c0-0.5-0.1-0.8-0.3-1c-0.2-0.2-0.6-0.4-1-0.4
			c-0.5,0-0.8,0.1-1.1,0.4c-0.3,0.3-0.4,0.7-0.4,1.2v2.3h-0.6v-6.2h0.6v2.6c0.2-0.3,0.4-0.5,0.7-0.6c0.3-0.1,0.6-0.2,1-0.2
			C707.3,123.1,707.7,123.2,708,123.6z"/>
		<path class="st11" d="M714,125.5h-3.7c0,0.5,0.2,0.8,0.5,1.1c0.3,0.3,0.7,0.4,1.2,0.4c0.3,0,0.5,0,0.8-0.1
			c0.2-0.1,0.4-0.2,0.6-0.4l0.3,0.4c-0.2,0.2-0.4,0.4-0.7,0.5c-0.3,0.1-0.6,0.2-1,0.2c-0.5,0-0.9-0.1-1.2-0.3
			c-0.3-0.2-0.6-0.5-0.8-0.8c-0.2-0.3-0.3-0.7-0.3-1.2c0-0.4,0.1-0.8,0.3-1.2c0.2-0.3,0.4-0.6,0.8-0.8c0.3-0.2,0.7-0.3,1.1-0.3
			s0.8,0.1,1.1,0.3c0.3,0.2,0.6,0.5,0.8,0.8c0.2,0.3,0.3,0.7,0.3,1.2L714,125.5z M710.8,124c-0.3,0.3-0.4,0.6-0.5,1.1h3.1
			c0-0.4-0.2-0.8-0.5-1.1c-0.3-0.3-0.6-0.4-1.1-0.4C711.4,123.6,711.1,123.7,710.8,124z"/>
		<path class="st11" d="M715.3,127.4c-0.3-0.1-0.6-0.2-0.8-0.4l0.3-0.5c0.2,0.1,0.4,0.3,0.7,0.4s0.6,0.1,0.9,0.1
			c0.4,0,0.7-0.1,0.9-0.2c0.2-0.1,0.3-0.3,0.3-0.5c0-0.2-0.1-0.3-0.2-0.4s-0.2-0.2-0.4-0.2c-0.2,0-0.4-0.1-0.6-0.1
			c-0.4-0.1-0.6-0.1-0.9-0.2c-0.2-0.1-0.4-0.2-0.6-0.4c-0.2-0.2-0.2-0.4-0.2-0.7c0-0.4,0.2-0.7,0.5-0.9c0.3-0.2,0.7-0.4,1.3-0.4
			c0.3,0,0.6,0,0.9,0.1c0.3,0.1,0.5,0.2,0.7,0.3l-0.3,0.5c-0.4-0.3-0.8-0.4-1.3-0.4c-0.4,0-0.7,0.1-0.9,0.2
			c-0.2,0.1-0.3,0.3-0.3,0.5c0,0.2,0.1,0.3,0.2,0.4s0.2,0.2,0.4,0.2c0.2,0,0.4,0.1,0.7,0.1c0.4,0.1,0.6,0.1,0.8,0.2
			c0.2,0.1,0.4,0.2,0.5,0.3c0.1,0.2,0.2,0.4,0.2,0.7c0,0.4-0.2,0.7-0.5,0.9c-0.3,0.2-0.8,0.3-1.3,0.3
			C716,127.6,715.7,127.5,715.3,127.4z"/>
		<path class="st11" d="M719.3,122c-0.1-0.1-0.1-0.2-0.1-0.3c0-0.1,0-0.2,0.1-0.3c0.1-0.1,0.2-0.1,0.3-0.1c0.1,0,0.2,0,0.3,0.1
			c0.1,0.1,0.1,0.2,0.1,0.3c0,0.1,0,0.2-0.1,0.3c-0.1,0.1-0.2,0.1-0.3,0.1C719.4,122.2,719.3,122.1,719.3,122z M719.3,123.1h0.6v4.4
			h-0.6V123.1z"/>
		<path class="st11" d="M721.7,127.4c-0.3-0.1-0.6-0.2-0.8-0.4l0.3-0.5c0.2,0.1,0.4,0.3,0.7,0.4c0.3,0.1,0.6,0.1,0.9,0.1
			c0.4,0,0.7-0.1,0.9-0.2c0.2-0.1,0.3-0.3,0.3-0.5c0-0.2-0.1-0.3-0.2-0.4c-0.1-0.1-0.2-0.2-0.4-0.2c-0.2,0-0.4-0.1-0.6-0.1
			c-0.4-0.1-0.6-0.1-0.9-0.2c-0.2-0.1-0.4-0.2-0.6-0.4c-0.2-0.2-0.2-0.4-0.2-0.7c0-0.4,0.2-0.7,0.5-0.9c0.3-0.2,0.7-0.4,1.3-0.4
			c0.3,0,0.6,0,0.9,0.1c0.3,0.1,0.5,0.2,0.7,0.3l-0.3,0.5c-0.4-0.3-0.8-0.4-1.3-0.4c-0.4,0-0.7,0.1-0.9,0.2
			c-0.2,0.1-0.3,0.3-0.3,0.5c0,0.2,0.1,0.3,0.2,0.4s0.2,0.2,0.4,0.2s0.4,0.1,0.7,0.1c0.4,0.1,0.6,0.1,0.8,0.2
			c0.2,0.1,0.4,0.2,0.5,0.3c0.2,0.2,0.2,0.4,0.2,0.7c0,0.4-0.2,0.7-0.5,0.9c-0.3,0.2-0.8,0.3-1.3,0.3
			C722.3,127.6,722,127.5,721.7,127.4z"/>
	</g>
	<g>
		<path class="st11" d="M702.4,472.2h-3.7c0,0.5,0.2,0.8,0.5,1.1c0.3,0.3,0.7,0.4,1.2,0.4c0.3,0,0.5,0,0.8-0.1
			c0.2-0.1,0.4-0.2,0.6-0.4l0.3,0.4c-0.2,0.2-0.4,0.4-0.7,0.5s-0.6,0.2-1,0.2c-0.5,0-0.9-0.1-1.2-0.3c-0.3-0.2-0.6-0.5-0.8-0.8
			c-0.2-0.3-0.3-0.7-0.3-1.2s0.1-0.8,0.3-1.2c0.2-0.3,0.4-0.6,0.8-0.8c0.3-0.2,0.7-0.3,1.1-0.3s0.8,0.1,1.1,0.3
			c0.3,0.2,0.6,0.5,0.8,0.8c0.2,0.3,0.3,0.7,0.3,1.2L702.4,472.2z M699.2,470.7c-0.3,0.3-0.4,0.6-0.5,1.1h3.1c0-0.4-0.2-0.8-0.5-1.1
			c-0.3-0.3-0.6-0.4-1.1-0.4C699.8,470.3,699.5,470.5,699.2,470.7z"/>
		<path class="st11" d="M707.6,469.8v4.4H707v-0.8c-0.2,0.3-0.4,0.5-0.6,0.6c-0.3,0.1-0.6,0.2-0.9,0.2c-0.6,0-1-0.2-1.4-0.5
			c-0.3-0.3-0.5-0.8-0.5-1.4v-2.5h0.6v2.5c0,0.5,0.1,0.8,0.3,1.1c0.2,0.2,0.6,0.4,1,0.4c0.5,0,0.8-0.1,1.1-0.4
			c0.3-0.3,0.4-0.7,0.4-1.2v-2.3H707.6z"/>
		<path class="st11" d="M710.4,470c0.3-0.2,0.6-0.2,1-0.2v0.6l-0.1,0c-0.5,0-0.8,0.1-1.1,0.4c-0.3,0.3-0.4,0.7-0.4,1.2v2.2h-0.6
			v-4.4h0.6v0.9C709.9,470.4,710.1,470.2,710.4,470z"/>
		<path class="st11" d="M713.1,474c-0.3-0.2-0.6-0.5-0.8-0.8c-0.2-0.3-0.3-0.7-0.3-1.2s0.1-0.8,0.3-1.2c0.2-0.3,0.5-0.6,0.8-0.8
			c0.3-0.2,0.7-0.3,1.1-0.3s0.8,0.1,1.1,0.3s0.6,0.5,0.8,0.8c0.2,0.3,0.3,0.7,0.3,1.2s-0.1,0.8-0.3,1.2c-0.2,0.3-0.5,0.6-0.8,0.8
			c-0.3,0.2-0.7,0.3-1.1,0.3S713.4,474.2,713.1,474z M715.1,473.5c0.2-0.1,0.4-0.3,0.6-0.6c0.1-0.3,0.2-0.6,0.2-0.9
			s-0.1-0.6-0.2-0.9c-0.1-0.3-0.3-0.5-0.6-0.6c-0.2-0.1-0.5-0.2-0.8-0.2s-0.6,0.1-0.8,0.2c-0.2,0.1-0.4,0.3-0.6,0.6
			c-0.1,0.3-0.2,0.6-0.2,0.9s0.1,0.6,0.2,0.9c0.1,0.3,0.3,0.5,0.6,0.6c0.2,0.1,0.5,0.2,0.8,0.2S714.8,473.7,715.1,473.5z"/>
		<path class="st11" d="M721.1,470.1c0.3,0.2,0.6,0.4,0.8,0.8c0.2,0.3,0.3,0.7,0.3,1.2c0,0.4-0.1,0.8-0.3,1.2
			c-0.2,0.3-0.4,0.6-0.8,0.8s-0.7,0.3-1.1,0.3c-0.4,0-0.7-0.1-1-0.2c-0.3-0.1-0.5-0.4-0.7-0.6v2.4h-0.6v-6h0.6v0.9
			c0.2-0.3,0.4-0.5,0.7-0.7c0.3-0.2,0.6-0.2,1-0.2C720.4,469.8,720.7,469.9,721.1,470.1z M720.7,473.5c0.3-0.1,0.4-0.3,0.6-0.6
			c0.1-0.3,0.2-0.6,0.2-0.9s-0.1-0.6-0.2-0.9s-0.3-0.5-0.6-0.6c-0.3-0.1-0.5-0.2-0.8-0.2c-0.3,0-0.6,0.1-0.8,0.2
			c-0.2,0.1-0.4,0.3-0.6,0.6c-0.1,0.3-0.2,0.6-0.2,0.9s0.1,0.6,0.2,0.9c0.1,0.3,0.3,0.5,0.6,0.6c0.2,0.1,0.5,0.2,0.8,0.2
			C720.2,473.7,720.5,473.7,720.7,473.5z"/>
		<path class="st11" d="M723.3,468.8c-0.1-0.1-0.1-0.2-0.1-0.3c0-0.1,0-0.2,0.1-0.3c0.1-0.1,0.2-0.1,0.3-0.1c0.1,0,0.2,0,0.3,0.1
			c0.1,0.1,0.1,0.2,0.1,0.3c0,0.1,0,0.2-0.1,0.3c-0.1,0.1-0.2,0.1-0.3,0.1C723.5,468.9,723.4,468.8,723.3,468.8z M723.3,469.8h0.6
			v4.4h-0.6V469.8z"/>
	</g>
	<g>
		<path d="M707.6,216.5c0,1.6-1.3,2.8-2.8,2.8H641c-1.6,0-2.8-1.3-2.8-2.8v-13.6c0-1.6,1.3-2.8,2.8-2.8h63.8c1.6,0,2.8,1.3,2.8,2.8
			V216.5z"/>
	</g>
</g>
<g>
</g>
<g>
</g>
<g>
</g>
<g>
</g>
<g>
</g>
<g>
</g>
<g>
</g>
</svg>
