<?xml version="1.0" encoding="utf-8"?>
<!-- Generator: Adobe Illustrator 19.0.0, SVG Export Plug-In . SVG Version: 6.00 Build 0)  -->
<svg version="1.1" id="Layer_1" xmlns="http://www.w3.org/2000/svg" xmlns:xlink="http://www.w3.org/1999/xlink" x="0px" y="0px"
	 viewBox="986 -986.5 2255 2255" style="enable-background:new 986 -986.5 2255 2255;" xml:space="preserve">
<style type="text/css">
	.st0{fill:none;}
	.st1{fill:none;enable-background:new    ;}
</style>
<g transform="translate(110,110)">
	<g transform="translate(440,0) scale(0.55,0.55)">
		<g transform="">
			<rect x="1792.7" y="-1793.7" width="100" height="100"/>
		</g>
	</g>
	<g transform="translate(495,0) scale(0.55,0.55)">
		<g transform="">
			<rect x="1792.7" y="-1793.7" width="100" height="100"/>
		</g>
	</g>
	<g transform="translate(550,0) scale(0.55,0.55)">
		<g transform="">
			<rect x="1792.7" y="-1793.7" width="100" height="100"/>
		</g>
	</g>
	<g transform="translate(605,0) scale(0.55,0.55)">
		<g transform="">
			<rect x="1792.7" y="-1793.7" width="100" height="100"/>
		</g>
	</g>
	<g transform="translate(660,0) scale(0.55,0.55)">
		<g transform="">
			<rect x="1792.7" y="-1793.7" width="100" height="100"/>
		</g>
	</g>
	<g transform="translate(770,0) scale(0.55,0.55)">
		<g transform="">
			<rect x="1792.7" y="-1793.7" width="100" height="100"/>
		</g>
	</g>
	<g transform="translate(825,0) scale(0.55,0.55)">
		<g transform="">
			<rect x="1792.7" y="-1793.7" width="100" height="100"/>
		</g>
	</g>
	<g transform="translate(880,0) scale(0.55,0.55)">
		<g transform="">
			<rect x="1792.7" y="-1793.7" width="100" height="100"/>
		</g>
	</g>
	<g transform="translate(935,0) scale(0.55,0.55)">
		<g transform="">
			<rect x="1792.7" y="-1793.7" width="100" height="100"/>
		</g>
	</g>
	<g transform="translate(990,0) scale(0.55,0.55)">
		<g transform="">
			<rect x="1792.7" y="-1793.7" width="100" height="100"/>
		</g>
	</g>
	<g transform="translate(1155,0) scale(0.55,0.55)">
		<g transform="">
			<rect x="1792.7" y="-1793.7" width="100" height="100"/>
		</g>
	</g>
	<g transform="translate(1375,0) scale(0.55,0.55)">
		<g transform="">
			<rect x="1792.7" y="-1793.7" width="100" height="100"/>
		</g>
	</g>
	<g transform="translate(1485,0) scale(0.55,0.55)">
		<g transform="">
			<rect x="1792.7" y="-1793.7" width="100" height="100"/>
		</g>
	</g>
	<g transform="translate(605,55) scale(0.55,0.55)">
		<g transform="">
			<rect x="1792.7" y="-1793.7" width="100" height="100"/>
		</g>
	</g>
	<g transform="translate(825,55) scale(0.55,0.55)">
		<g transform="">
			<rect x="1792.7" y="-1793.7" width="100" height="100"/>
		</g>
	</g>
	<g transform="translate(880,55) scale(0.55,0.55)">
		<g transform="">
			<rect x="1792.7" y="-1793.7" width="100" height="100"/>
		</g>
	</g>
	<g transform="translate(1100,55) scale(0.55,0.55)">
		<g transform="">
			<rect x="1792.7" y="-1793.7" width="100" height="100"/>
		</g>
	</g>
	<g transform="translate(1210,55) scale(0.55,0.55)">
		<g transform="">
			<rect x="1792.7" y="-1793.7" width="100" height="100"/>
		</g>
	</g>
	<g transform="translate(1430,55) scale(0.55,0.55)">
		<g transform="">
			<rect x="1792.7" y="-1793.7" width="100" height="100"/>
		</g>
	</g>
	<g transform="translate(1485,55) scale(0.55,0.55)">
		<g transform="">
			<rect x="1792.7" y="-1793.7" width="100" height="100"/>
		</g>
	</g>
	<g transform="translate(1540,55) scale(0.55,0.55)">
		<g transform="">
			<rect x="1792.7" y="-1793.7" width="100" height="100"/>
		</g>
	</g>
	<g transform="translate(495,110) scale(0.55,0.55)">
		<g transform="">
			<rect x="1792.7" y="-1793.7" width="100" height="100"/>
		</g>
	</g>
	<g transform="translate(550,110) scale(0.55,0.55)">
		<g transform="">
			<rect x="1792.7" y="-1793.7" width="100" height="100"/>
		</g>
	</g>
	<g transform="translate(605,110) scale(0.55,0.55)">
		<g transform="">
			<rect x="1792.7" y="-1793.7" width="100" height="100"/>
		</g>
	</g>
	<g transform="translate(660,110) scale(0.55,0.55)">
		<g transform="">
			<rect x="1792.7" y="-1793.7" width="100" height="100"/>
		</g>
	</g>
	<g transform="translate(715,110) scale(0.55,0.55)">
		<g transform="">
			<rect x="1792.7" y="-1793.7" width="100" height="100"/>
		</g>
	</g>
	<g transform="translate(770,110) scale(0.55,0.55)">
		<g transform="">
			<rect x="1792.7" y="-1793.7" width="100" height="100"/>
		</g>
	</g>
	<g transform="translate(825,110) scale(0.55,0.55)">
		<g transform="">
			<rect x="1792.7" y="-1793.7" width="100" height="100"/>
		</g>
	</g>
	<g transform="translate(880,110) scale(0.55,0.55)">
		<g transform="">
			<rect x="1792.7" y="-1793.7" width="100" height="100"/>
		</g>
	</g>
	<g transform="translate(990,110) scale(0.55,0.55)">
		<g transform="">
			<rect x="1792.7" y="-1793.7" width="100" height="100"/>
		</g>
	</g>
	<g transform="translate(1100,110) scale(0.55,0.55)">
		<g transform="">
			<rect x="1792.7" y="-1793.7" width="100" height="100"/>
		</g>
	</g>
	<g transform="translate(1155,110) scale(0.55,0.55)">
		<g transform="">
			<rect x="1792.7" y="-1793.7" width="100" height="100"/>
		</g>
	</g>
	<g transform="translate(1265,110) scale(0.55,0.55)">
		<g transform="">
			<rect x="1792.7" y="-1793.7" width="100" height="100"/>
		</g>
	</g>
	<g transform="translate(1485,110) scale(0.55,0.55)">
		<g transform="">
			<rect x="1792.7" y="-1793.7" width="100" height="100"/>
		</g>
	</g>
	<g transform="translate(1540,110) scale(0.55,0.55)">
		<g transform="">
			<rect x="1792.7" y="-1793.7" width="100" height="100"/>
		</g>
	</g>
	<g transform="translate(440,165) scale(0.55,0.55)">
		<g transform="">
			<rect x="1792.7" y="-1793.7" width="100" height="100"/>
		</g>
	</g>
	<g transform="translate(495,165) scale(0.55,0.55)">
		<g transform="">
			<rect x="1792.7" y="-1793.7" width="100" height="100"/>
		</g>
	</g>
	<g transform="translate(550,165) scale(0.55,0.55)">
		<g transform="">
			<rect x="1792.7" y="-1793.7" width="100" height="100"/>
		</g>
	</g>
	<g transform="translate(605,165) scale(0.55,0.55)">
		<g transform="">
			<rect x="1792.7" y="-1793.7" width="100" height="100"/>
		</g>
	</g>
	<g transform="translate(660,165) scale(0.55,0.55)">
		<g transform="">
			<rect x="1792.7" y="-1793.7" width="100" height="100"/>
		</g>
	</g>
	<g transform="translate(715,165) scale(0.55,0.55)">
		<g transform="">
			<rect x="1792.7" y="-1793.7" width="100" height="100"/>
		</g>
	</g>
	<g transform="translate(770,165) scale(0.55,0.55)">
		<g transform="">
			<rect x="1792.7" y="-1793.7" width="100" height="100"/>
		</g>
	</g>
	<g transform="translate(990,165) scale(0.55,0.55)">
		<g transform="">
			<rect x="1792.7" y="-1793.7" width="100" height="100"/>
		</g>
	</g>
	<g transform="translate(1155,165) scale(0.55,0.55)">
		<g transform="">
			<rect x="1792.7" y="-1793.7" width="100" height="100"/>
		</g>
	</g>
	<g transform="translate(1265,165) scale(0.55,0.55)">
		<g transform="">
			<rect x="1792.7" y="-1793.7" width="100" height="100"/>
		</g>
	</g>
	<g transform="translate(1485,165) scale(0.55,0.55)">
		<g transform="">
			<rect x="1792.7" y="-1793.7" width="100" height="100"/>
		</g>
	</g>
	<g transform="translate(495,220) scale(0.55,0.55)">
		<g transform="">
			<rect x="1792.7" y="-1793.7" width="100" height="100"/>
		</g>
	</g>
	<g transform="translate(605,220) scale(0.55,0.55)">
		<g transform="">
			<rect x="1792.7" y="-1793.7" width="100" height="100"/>
		</g>
	</g>
	<g transform="translate(770,220) scale(0.55,0.55)">
		<g transform="">
			<rect x="1792.7" y="-1793.7" width="100" height="100"/>
		</g>
	</g>
	<g transform="translate(880,220) scale(0.55,0.55)">
		<g transform="">
			<rect x="1792.7" y="-1793.7" width="100" height="100"/>
		</g>
	</g>
	<g transform="translate(935,220) scale(0.55,0.55)">
		<g transform="">
			<rect x="1792.7" y="-1793.7" width="100" height="100"/>
		</g>
	</g>
	<g transform="translate(1045,220) scale(0.55,0.55)">
		<g transform="">
			<rect x="1792.7" y="-1793.7" width="100" height="100"/>
		</g>
	</g>
	<g transform="translate(1210,220) scale(0.55,0.55)">
		<g transform="">
			<rect x="1792.7" y="-1793.7" width="100" height="100"/>
		</g>
	</g>
	<g transform="translate(1265,220) scale(0.55,0.55)">
		<g transform="">
			<rect x="1792.7" y="-1793.7" width="100" height="100"/>
		</g>
	</g>
	<g transform="translate(1320,220) scale(0.55,0.55)">
		<g transform="">
			<rect x="1792.7" y="-1793.7" width="100" height="100"/>
		</g>
	</g>
	<g transform="translate(1375,220) scale(0.55,0.55)">
		<g transform="">
			<rect x="1792.7" y="-1793.7" width="100" height="100"/>
		</g>
	</g>
	<g transform="translate(1430,220) scale(0.55,0.55)">
		<g transform="">
			<rect x="1792.7" y="-1793.7" width="100" height="100"/>
		</g>
	</g>
	<g transform="translate(1485,220) scale(0.55,0.55)">
		<g transform="">
			<rect x="1792.7" y="-1793.7" width="100" height="100"/>
		</g>
	</g>
	<g transform="translate(1540,220) scale(0.55,0.55)">
		<g transform="">
			<rect x="1792.7" y="-1793.7" width="100" height="100"/>
		</g>
	</g>
	<g transform="translate(495,275) scale(0.55,0.55)">
		<g transform="">
			<rect x="1792.7" y="-1793.7" width="100" height="100"/>
		</g>
	</g>
	<g transform="translate(550,275) scale(0.55,0.55)">
		<g transform="">
			<rect x="1792.7" y="-1793.7" width="100" height="100"/>
		</g>
	</g>
	<g transform="translate(825,275) scale(0.55,0.55)">
		<g transform="">
			<rect x="1792.7" y="-1793.7" width="100" height="100"/>
		</g>
	</g>
	<g transform="translate(935,275) scale(0.55,0.55)">
		<g transform="">
			<rect x="1792.7" y="-1793.7" width="100" height="100"/>
		</g>
	</g>
	<g transform="translate(990,275) scale(0.55,0.55)">
		<g transform="">
			<rect x="1792.7" y="-1793.7" width="100" height="100"/>
		</g>
	</g>
	<g transform="translate(1100,275) scale(0.55,0.55)">
		<g transform="">
			<rect x="1792.7" y="-1793.7" width="100" height="100"/>
		</g>
	</g>
	<g transform="translate(1210,275) scale(0.55,0.55)">
		<g transform="">
			<rect x="1792.7" y="-1793.7" width="100" height="100"/>
		</g>
	</g>
	<g transform="translate(1265,275) scale(0.55,0.55)">
		<g transform="">
			<rect x="1792.7" y="-1793.7" width="100" height="100"/>
		</g>
	</g>
	<g transform="translate(1375,275) scale(0.55,0.55)">
		<g transform="">
			<rect x="1792.7" y="-1793.7" width="100" height="100"/>
		</g>
	</g>
	<g transform="translate(1485,275) scale(0.55,0.55)">
		<g transform="">
			<rect x="1792.7" y="-1793.7" width="100" height="100"/>
		</g>
	</g>
	<g transform="translate(1540,275) scale(0.55,0.55)">
		<g transform="">
			<rect x="1792.7" y="-1793.7" width="100" height="100"/>
		</g>
	</g>
	<g transform="translate(440,330) scale(0.55,0.55)">
		<g transform="">
			<rect x="1792.7" y="-1793.7" width="100" height="100"/>
		</g>
	</g>
	<g transform="translate(550,330) scale(0.55,0.55)">
		<g transform="">
			<rect x="1792.7" y="-1793.7" width="100" height="100"/>
		</g>
	</g>
	<g transform="translate(660,330) scale(0.55,0.55)">
		<g transform="">
			<rect x="1792.7" y="-1793.7" width="100" height="100"/>
		</g>
	</g>
	<g transform="translate(770,330) scale(0.55,0.55)">
		<g transform="">
			<rect x="1792.7" y="-1793.7" width="100" height="100"/>
		</g>
	</g>
	<g transform="translate(880,330) scale(0.55,0.55)">
		<g transform="">
			<rect x="1792.7" y="-1793.7" width="100" height="100"/>
		</g>
	</g>
	<g transform="translate(990,330) scale(0.55,0.55)">
		<g transform="">
			<rect x="1792.7" y="-1793.7" width="100" height="100"/>
		</g>
	</g>
	<g transform="translate(1100,330) scale(0.55,0.55)">
		<g transform="">
			<rect x="1792.7" y="-1793.7" width="100" height="100"/>
		</g>
	</g>
	<g transform="translate(1210,330) scale(0.55,0.55)">
		<g transform="">
			<rect x="1792.7" y="-1793.7" width="100" height="100"/>
		</g>
	</g>
	<g transform="translate(1320,330) scale(0.55,0.55)">
		<g transform="">
			<rect x="1792.7" y="-1793.7" width="100" height="100"/>
		</g>
	</g>
	<g transform="translate(1430,330) scale(0.55,0.55)">
		<g transform="">
			<rect x="1792.7" y="-1793.7" width="100" height="100"/>
		</g>
	</g>
	<g transform="translate(1540,330) scale(0.55,0.55)">
		<g transform="">
			<rect x="1792.7" y="-1793.7" width="100" height="100"/>
		</g>
	</g>
	<g transform="translate(495,385) scale(0.55,0.55)">
		<g transform="">
			<rect x="1792.7" y="-1793.7" width="100" height="100"/>
		</g>
	</g>
	<g transform="translate(550,385) scale(0.55,0.55)">
		<g transform="">
			<rect x="1792.7" y="-1793.7" width="100" height="100"/>
		</g>
	</g>
	<g transform="translate(605,385) scale(0.55,0.55)">
		<g transform="">
			<rect x="1792.7" y="-1793.7" width="100" height="100"/>
		</g>
	</g>
	<g transform="translate(825,385) scale(0.55,0.55)">
		<g transform="">
			<rect x="1792.7" y="-1793.7" width="100" height="100"/>
		</g>
	</g>
	<g transform="translate(880,385) scale(0.55,0.55)">
		<g transform="">
			<rect x="1792.7" y="-1793.7" width="100" height="100"/>
		</g>
	</g>
	<g transform="translate(935,385) scale(0.55,0.55)">
		<g transform="">
			<rect x="1792.7" y="-1793.7" width="100" height="100"/>
		</g>
	</g>
	<g transform="translate(1045,385) scale(0.55,0.55)">
		<g transform="">
			<rect x="1792.7" y="-1793.7" width="100" height="100"/>
		</g>
	</g>
	<g transform="translate(1100,385) scale(0.55,0.55)">
		<g transform="">
			<rect x="1792.7" y="-1793.7" width="100" height="100"/>
		</g>
	</g>
	<g transform="translate(1210,385) scale(0.55,0.55)">
		<g transform="">
			<rect x="1792.7" y="-1793.7" width="100" height="100"/>
		</g>
	</g>
	<g transform="translate(1375,385) scale(0.55,0.55)">
		<g transform="">
			<rect x="1792.7" y="-1793.7" width="100" height="100"/>
		</g>
	</g>
	<g transform="translate(1540,385) scale(0.55,0.55)">
		<g transform="">
			<rect x="1792.7" y="-1793.7" width="100" height="100"/>
		</g>
	</g>
	<g transform="translate(110,440) scale(0.55,0.55)">
		<g transform="">
			<rect x="1792.7" y="-1793.7" width="100" height="100"/>
		</g>
	</g>
	<g transform="translate(220,440) scale(0.55,0.55)">
		<g transform="">
			<rect x="1792.7" y="-1793.7" width="100" height="100"/>
		</g>
	</g>
	<g transform="translate(275,440) scale(0.55,0.55)">
		<g transform="">
			<rect x="1792.7" y="-1793.7" width="100" height="100"/>
		</g>
	</g>
	<g transform="translate(330,440) scale(0.55,0.55)">
		<g transform="">
			<rect x="1792.7" y="-1793.7" width="100" height="100"/>
		</g>
	</g>
	<g transform="translate(440,440) scale(0.55,0.55)">
		<g transform="">
			<rect x="1792.7" y="-1793.7" width="100" height="100"/>
		</g>
	</g>
	<g transform="translate(605,440) scale(0.55,0.55)">
		<g transform="">
			<rect x="1792.7" y="-1793.7" width="100" height="100"/>
		</g>
	</g>
	<g transform="translate(770,440) scale(0.55,0.55)">
		<g transform="">
			<rect x="1792.7" y="-1793.7" width="100" height="100"/>
		</g>
	</g>
	<g transform="translate(825,440) scale(0.55,0.55)">
		<g transform="">
			<rect x="1792.7" y="-1793.7" width="100" height="100"/>
		</g>
	</g>
	<g transform="translate(935,440) scale(0.55,0.55)">
		<g transform="">
			<rect x="1792.7" y="-1793.7" width="100" height="100"/>
		</g>
	</g>
	<g transform="translate(990,440) scale(0.55,0.55)">
		<g transform="">
			<rect x="1792.7" y="-1793.7" width="100" height="100"/>
		</g>
	</g>
	<g transform="translate(1155,440) scale(0.55,0.55)">
		<g transform="">
			<rect x="1792.7" y="-1793.7" width="100" height="100"/>
		</g>
	</g>
	<g transform="translate(1265,440) scale(0.55,0.55)">
		<g transform="">
			<rect x="1792.7" y="-1793.7" width="100" height="100"/>
		</g>
	</g>
	<g transform="translate(1320,440) scale(0.55,0.55)">
		<g transform="">
			<rect x="1792.7" y="-1793.7" width="100" height="100"/>
		</g>
	</g>
	<g transform="translate(1375,440) scale(0.55,0.55)">
		<g transform="">
			<rect x="1792.7" y="-1793.7" width="100" height="100"/>
		</g>
	</g>
	<g transform="translate(1430,440) scale(0.55,0.55)">
		<g transform="">
			<rect x="1792.7" y="-1793.7" width="100" height="100"/>
		</g>
	</g>
	<g transform="translate(1485,440) scale(0.55,0.55)">
		<g transform="">
			<rect x="1792.7" y="-1793.7" width="100" height="100"/>
		</g>
	</g>
	<g transform="translate(1595,440) scale(0.55,0.55)">
		<g transform="">
			<rect x="1792.7" y="-1793.7" width="100" height="100"/>
		</g>
	</g>
	<g transform="translate(1815,440) scale(0.55,0.55)">
		<g transform="">
			<rect x="1792.7" y="-1793.7" width="100" height="100"/>
		</g>
	</g>
	<g transform="translate(1980,440) scale(0.55,0.55)">
		<g transform="">
			<rect x="1792.7" y="-1793.7" width="100" height="100"/>
		</g>
	</g>
	<g transform="translate(0,495) scale(0.55,0.55)">
		<g transform="">
			<rect x="1792.7" y="-1793.7" width="100" height="100"/>
		</g>
	</g>
	<g transform="translate(55,495) scale(0.55,0.55)">
		<g transform="">
			<rect x="1792.7" y="-1793.7" width="100" height="100"/>
		</g>
	</g>
	<g transform="translate(165,495) scale(0.55,0.55)">
		<g transform="">
			<rect x="1792.7" y="-1793.7" width="100" height="100"/>
		</g>
	</g>
	<g transform="translate(275,495) scale(0.55,0.55)">
		<g transform="">
			<rect x="1792.7" y="-1793.7" width="100" height="100"/>
		</g>
	</g>
	<g transform="translate(385,495) scale(0.55,0.55)">
		<g transform="">
			<rect x="1792.7" y="-1793.7" width="100" height="100"/>
		</g>
	</g>
	<g transform="translate(440,495) scale(0.55,0.55)">
		<g transform="">
			<rect x="1792.7" y="-1793.7" width="100" height="100"/>
		</g>
	</g>
	<g transform="translate(495,495) scale(0.55,0.55)">
		<g transform="">
			<rect x="1792.7" y="-1793.7" width="100" height="100"/>
		</g>
	</g>
	<g transform="translate(550,495) scale(0.55,0.55)">
		<g transform="">
			<rect x="1792.7" y="-1793.7" width="100" height="100"/>
		</g>
	</g>
	<g transform="translate(660,495) scale(0.55,0.55)">
		<g transform="">
			<rect x="1792.7" y="-1793.7" width="100" height="100"/>
		</g>
	</g>
	<g transform="translate(715,495) scale(0.55,0.55)">
		<g transform="">
			<rect x="1792.7" y="-1793.7" width="100" height="100"/>
		</g>
	</g>
	<g transform="translate(825,495) scale(0.55,0.55)">
		<g transform="">
			<rect x="1792.7" y="-1793.7" width="100" height="100"/>
		</g>
	</g>
	<g transform="translate(990,495) scale(0.55,0.55)">
		<g transform="">
			<rect x="1792.7" y="-1793.7" width="100" height="100"/>
		</g>
	</g>
	<g transform="translate(1045,495) scale(0.55,0.55)">
		<g transform="">
			<rect x="1792.7" y="-1793.7" width="100" height="100"/>
		</g>
	</g>
	<g transform="translate(1100,495) scale(0.55,0.55)">
		<g transform="">
			<rect x="1792.7" y="-1793.7" width="100" height="100"/>
		</g>
	</g>
	<g transform="translate(1210,495) scale(0.55,0.55)">
		<g transform="">
			<rect x="1792.7" y="-1793.7" width="100" height="100"/>
		</g>
	</g>
	<g transform="translate(1265,495) scale(0.55,0.55)">
		<g transform="">
			<rect x="1792.7" y="-1793.7" width="100" height="100"/>
		</g>
	</g>
	<g transform="translate(1320,495) scale(0.55,0.55)">
		<g transform="">
			<rect x="1792.7" y="-1793.7" width="100" height="100"/>
		</g>
	</g>
	<g transform="translate(1540,495) scale(0.55,0.55)">
		<g transform="">
			<rect x="1792.7" y="-1793.7" width="100" height="100"/>
		</g>
	</g>
	<g transform="translate(1650,495) scale(0.55,0.55)">
		<g transform="">
			<rect x="1792.7" y="-1793.7" width="100" height="100"/>
		</g>
	</g>
	<g transform="translate(1925,495) scale(0.55,0.55)">
		<g transform="">
			<rect x="1792.7" y="-1793.7" width="100" height="100"/>
		</g>
	</g>
	<g transform="translate(1980,495) scale(0.55,0.55)">
		<g transform="">
			<rect x="1792.7" y="-1793.7" width="100" height="100"/>
		</g>
	</g>
	<g transform="translate(55,550) scale(0.55,0.55)">
		<g transform="">
			<rect x="1792.7" y="-1793.7" width="100" height="100"/>
		</g>
	</g>
	<g transform="translate(165,550) scale(0.55,0.55)">
		<g transform="">
			<rect x="1792.7" y="-1793.7" width="100" height="100"/>
		</g>
	</g>
	<g transform="translate(330,550) scale(0.55,0.55)">
		<g transform="">
			<rect x="1792.7" y="-1793.7" width="100" height="100"/>
		</g>
	</g>
	<g transform="translate(440,550) scale(0.55,0.55)">
		<g transform="">
			<rect x="1792.7" y="-1793.7" width="100" height="100"/>
		</g>
	</g>
	<g transform="translate(495,550) scale(0.55,0.55)">
		<g transform="">
			<rect x="1792.7" y="-1793.7" width="100" height="100"/>
		</g>
	</g>
	<g transform="translate(550,550) scale(0.55,0.55)">
		<g transform="">
			<rect x="1792.7" y="-1793.7" width="100" height="100"/>
		</g>
	</g>
	<g transform="translate(605,550) scale(0.55,0.55)">
		<g transform="">
			<rect x="1792.7" y="-1793.7" width="100" height="100"/>
		</g>
	</g>
	<g transform="translate(660,550) scale(0.55,0.55)">
		<g transform="">
			<rect x="1792.7" y="-1793.7" width="100" height="100"/>
		</g>
	</g>
	<g transform="translate(770,550) scale(0.55,0.55)">
		<g transform="">
			<rect x="1792.7" y="-1793.7" width="100" height="100"/>
		</g>
	</g>
	<g transform="translate(825,550) scale(0.55,0.55)">
		<g transform="">
			<rect x="1792.7" y="-1793.7" width="100" height="100"/>
		</g>
	</g>
	<g transform="translate(1045,550) scale(0.55,0.55)">
		<g transform="">
			<rect x="1792.7" y="-1793.7" width="100" height="100"/>
		</g>
	</g>
	<g transform="translate(1155,550) scale(0.55,0.55)">
		<g transform="">
			<rect x="1792.7" y="-1793.7" width="100" height="100"/>
		</g>
	</g>
	<g transform="translate(1265,550) scale(0.55,0.55)">
		<g transform="">
			<rect x="1792.7" y="-1793.7" width="100" height="100"/>
		</g>
	</g>
	<g transform="translate(1375,550) scale(0.55,0.55)">
		<g transform="">
			<rect x="1792.7" y="-1793.7" width="100" height="100"/>
		</g>
	</g>
	<g transform="translate(1650,550) scale(0.55,0.55)">
		<g transform="">
			<rect x="1792.7" y="-1793.7" width="100" height="100"/>
		</g>
	</g>
	<g transform="translate(1705,550) scale(0.55,0.55)">
		<g transform="">
			<rect x="1792.7" y="-1793.7" width="100" height="100"/>
		</g>
	</g>
	<g transform="translate(1815,550) scale(0.55,0.55)">
		<g transform="">
			<rect x="1792.7" y="-1793.7" width="100" height="100"/>
		</g>
	</g>
	<g transform="translate(1870,550) scale(0.55,0.55)">
		<g transform="">
			<rect x="1792.7" y="-1793.7" width="100" height="100"/>
		</g>
	</g>
	<g transform="translate(1925,550) scale(0.55,0.55)">
		<g transform="">
			<rect x="1792.7" y="-1793.7" width="100" height="100"/>
		</g>
	</g>
	<g transform="translate(1980,550) scale(0.55,0.55)">
		<g transform="">
			<rect x="1792.7" y="-1793.7" width="100" height="100"/>
		</g>
	</g>
	<g transform="translate(0,605) scale(0.55,0.55)">
		<g transform="">
			<rect x="1792.7" y="-1793.7" width="100" height="100"/>
		</g>
	</g>
	<g transform="translate(220,605) scale(0.55,0.55)">
		<g transform="">
			<rect x="1792.7" y="-1793.7" width="100" height="100"/>
		</g>
	</g>
	<g transform="translate(275,605) scale(0.55,0.55)">
		<g transform="">
			<rect x="1792.7" y="-1793.7" width="100" height="100"/>
		</g>
	</g>
	<g transform="translate(495,605) scale(0.55,0.55)">
		<g transform="">
			<rect x="1792.7" y="-1793.7" width="100" height="100"/>
		</g>
	</g>
	<g transform="translate(550,605) scale(0.55,0.55)">
		<g transform="">
			<rect x="1792.7" y="-1793.7" width="100" height="100"/>
		</g>
	</g>
	<g transform="translate(605,605) scale(0.55,0.55)">
		<g transform="">
			<rect x="1792.7" y="-1793.7" width="100" height="100"/>
		</g>
	</g>
	<g transform="translate(715,605) scale(0.55,0.55)">
		<g transform="">
			<rect x="1792.7" y="-1793.7" width="100" height="100"/>
		</g>
	</g>
	<g transform="translate(880,605) scale(0.55,0.55)">
		<g transform="">
			<rect x="1792.7" y="-1793.7" width="100" height="100"/>
		</g>
	</g>
	<g transform="translate(1375,605) scale(0.55,0.55)">
		<g transform="">
			<rect x="1792.7" y="-1793.7" width="100" height="100"/>
		</g>
	</g>
	<g transform="translate(1430,605) scale(0.55,0.55)">
		<g transform="">
			<rect x="1792.7" y="-1793.7" width="100" height="100"/>
		</g>
	</g>
	<g transform="translate(1485,605) scale(0.55,0.55)">
		<g transform="">
			<rect x="1792.7" y="-1793.7" width="100" height="100"/>
		</g>
	</g>
	<g transform="translate(1540,605) scale(0.55,0.55)">
		<g transform="">
			<rect x="1792.7" y="-1793.7" width="100" height="100"/>
		</g>
	</g>
	<g transform="translate(1595,605) scale(0.55,0.55)">
		<g transform="">
			<rect x="1792.7" y="-1793.7" width="100" height="100"/>
		</g>
	</g>
	<g transform="translate(1760,605) scale(0.55,0.55)">
		<g transform="">
			<rect x="1792.7" y="-1793.7" width="100" height="100"/>
		</g>
	</g>
	<g transform="translate(1925,605) scale(0.55,0.55)">
		<g transform="">
			<rect x="1792.7" y="-1793.7" width="100" height="100"/>
		</g>
	</g>
	<g transform="translate(0,660) scale(0.55,0.55)">
		<g transform="">
			<rect x="1792.7" y="-1793.7" width="100" height="100"/>
		</g>
	</g>
	<g transform="translate(330,660) scale(0.55,0.55)">
		<g transform="">
			<rect x="1792.7" y="-1793.7" width="100" height="100"/>
		</g>
	</g>
	<g transform="translate(385,660) scale(0.55,0.55)">
		<g transform="">
			<rect x="1792.7" y="-1793.7" width="100" height="100"/>
		</g>
	</g>
	<g transform="translate(550,660) scale(0.55,0.55)">
		<g transform="">
			<rect x="1792.7" y="-1793.7" width="100" height="100"/>
		</g>
	</g>
	<g transform="translate(825,660) scale(0.55,0.55)">
		<g transform="">
			<rect x="1792.7" y="-1793.7" width="100" height="100"/>
		</g>
	</g>
	<g transform="translate(1155,660) scale(0.55,0.55)">
		<g transform="">
			<rect x="1792.7" y="-1793.7" width="100" height="100"/>
		</g>
	</g>
	<g transform="translate(1210,660) scale(0.55,0.55)">
		<g transform="">
			<rect x="1792.7" y="-1793.7" width="100" height="100"/>
		</g>
	</g>
	<g transform="translate(1375,660) scale(0.55,0.55)">
		<g transform="">
			<rect x="1792.7" y="-1793.7" width="100" height="100"/>
		</g>
	</g>
	<g transform="translate(1485,660) scale(0.55,0.55)">
		<g transform="">
			<rect x="1792.7" y="-1793.7" width="100" height="100"/>
		</g>
	</g>
	<g transform="translate(1540,660) scale(0.55,0.55)">
		<g transform="">
			<rect x="1792.7" y="-1793.7" width="100" height="100"/>
		</g>
	</g>
	<g transform="translate(1595,660) scale(0.55,0.55)">
		<g transform="">
			<rect x="1792.7" y="-1793.7" width="100" height="100"/>
		</g>
	</g>
	<g transform="translate(1650,660) scale(0.55,0.55)">
		<g transform="">
			<rect x="1792.7" y="-1793.7" width="100" height="100"/>
		</g>
	</g>
	<g transform="translate(1705,660) scale(0.55,0.55)">
		<g transform="">
			<rect x="1792.7" y="-1793.7" width="100" height="100"/>
		</g>
	</g>
	<g transform="translate(1815,660) scale(0.55,0.55)">
		<g transform="">
			<rect x="1792.7" y="-1793.7" width="100" height="100"/>
		</g>
	</g>
	<g transform="translate(0,715) scale(0.55,0.55)">
		<g transform="">
			<rect x="1792.7" y="-1793.7" width="100" height="100"/>
		</g>
	</g>
	<g transform="translate(220,715) scale(0.55,0.55)">
		<g transform="">
			<rect x="1792.7" y="-1793.7" width="100" height="100"/>
		</g>
	</g>
	<g transform="translate(385,715) scale(0.55,0.55)">
		<g transform="">
			<rect x="1792.7" y="-1793.7" width="100" height="100"/>
		</g>
	</g>
	<g transform="translate(440,715) scale(0.55,0.55)">
		<g transform="">
			<rect x="1792.7" y="-1793.7" width="100" height="100"/>
		</g>
	</g>
	<g transform="translate(495,715) scale(0.55,0.55)">
		<g transform="">
			<rect x="1792.7" y="-1793.7" width="100" height="100"/>
		</g>
	</g>
	<g transform="translate(550,715) scale(0.55,0.55)">
		<g transform="">
			<rect x="1792.7" y="-1793.7" width="100" height="100"/>
		</g>
	</g>
	<g transform="translate(1320,715) scale(0.55,0.55)">
		<g transform="">
			<rect x="1792.7" y="-1793.7" width="100" height="100"/>
		</g>
	</g>
	<g transform="translate(1430,715) scale(0.55,0.55)">
		<g transform="">
			<rect x="1792.7" y="-1793.7" width="100" height="100"/>
		</g>
	</g>
	<g transform="translate(1540,715) scale(0.55,0.55)">
		<g transform="">
			<rect x="1792.7" y="-1793.7" width="100" height="100"/>
		</g>
	</g>
	<g transform="translate(1650,715) scale(0.55,0.55)">
		<g transform="">
			<rect x="1792.7" y="-1793.7" width="100" height="100"/>
		</g>
	</g>
	<g transform="translate(1815,715) scale(0.55,0.55)">
		<g transform="">
			<rect x="1792.7" y="-1793.7" width="100" height="100"/>
		</g>
	</g>
	<g transform="translate(1870,715) scale(0.55,0.55)">
		<g transform="">
			<rect x="1792.7" y="-1793.7" width="100" height="100"/>
		</g>
	</g>
	<g transform="translate(1925,715) scale(0.55,0.55)">
		<g transform="">
			<rect x="1792.7" y="-1793.7" width="100" height="100"/>
		</g>
	</g>
	<g transform="translate(1980,715) scale(0.55,0.55)">
		<g transform="">
			<rect x="1792.7" y="-1793.7" width="100" height="100"/>
		</g>
	</g>
	<g transform="translate(55,770) scale(0.55,0.55)">
		<g transform="">
			<rect x="1792.7" y="-1793.7" width="100" height="100"/>
		</g>
	</g>
	<g transform="translate(110,770) scale(0.55,0.55)">
		<g transform="">
			<rect x="1792.7" y="-1793.7" width="100" height="100"/>
		</g>
	</g>
	<g transform="translate(275,770) scale(0.55,0.55)">
		<g transform="">
			<rect x="1792.7" y="-1793.7" width="100" height="100"/>
		</g>
	</g>
	<g transform="translate(330,770) scale(0.55,0.55)">
		<g transform="">
			<rect x="1792.7" y="-1793.7" width="100" height="100"/>
		</g>
	</g>
	<g transform="translate(495,770) scale(0.55,0.55)">
		<g transform="">
			<rect x="1792.7" y="-1793.7" width="100" height="100"/>
		</g>
	</g>
	<g transform="translate(550,770) scale(0.55,0.55)">
		<g transform="">
			<rect x="1792.7" y="-1793.7" width="100" height="100"/>
		</g>
	</g>
	<g transform="translate(660,770) scale(0.55,0.55)">
		<g transform="">
			<rect x="1792.7" y="-1793.7" width="100" height="100"/>
		</g>
	</g>
	<g transform="translate(1320,770) scale(0.55,0.55)">
		<g transform="">
			<rect x="1792.7" y="-1793.7" width="100" height="100"/>
		</g>
	</g>
	<g transform="translate(1430,770) scale(0.55,0.55)">
		<g transform="">
			<rect x="1792.7" y="-1793.7" width="100" height="100"/>
		</g>
	</g>
	<g transform="translate(1595,770) scale(0.55,0.55)">
		<g transform="">
			<rect x="1792.7" y="-1793.7" width="100" height="100"/>
		</g>
	</g>
	<g transform="translate(1705,770) scale(0.55,0.55)">
		<g transform="">
			<rect x="1792.7" y="-1793.7" width="100" height="100"/>
		</g>
	</g>
	<g transform="translate(1760,770) scale(0.55,0.55)">
		<g transform="">
			<rect x="1792.7" y="-1793.7" width="100" height="100"/>
		</g>
	</g>
	<g transform="translate(1870,770) scale(0.55,0.55)">
		<g transform="">
			<rect x="1792.7" y="-1793.7" width="100" height="100"/>
		</g>
	</g>
	<g transform="translate(1980,770) scale(0.55,0.55)">
		<g transform="">
			<rect x="1792.7" y="-1793.7" width="100" height="100"/>
		</g>
	</g>
	<g transform="translate(0,825) scale(0.55,0.55)">
		<g transform="">
			<rect x="1792.7" y="-1793.7" width="100" height="100"/>
		</g>
	</g>
	<g transform="translate(165,825) scale(0.55,0.55)">
		<g transform="">
			<rect x="1792.7" y="-1793.7" width="100" height="100"/>
		</g>
	</g>
	<g transform="translate(385,825) scale(0.55,0.55)">
		<g transform="">
			<rect x="1792.7" y="-1793.7" width="100" height="100"/>
		</g>
	</g>
	<g transform="translate(440,825) scale(0.55,0.55)">
		<g transform="">
			<rect x="1792.7" y="-1793.7" width="100" height="100"/>
		</g>
	</g>
	<g transform="translate(495,825) scale(0.55,0.55)">
		<g transform="">
			<rect x="1792.7" y="-1793.7" width="100" height="100"/>
		</g>
	</g>
	<g transform="translate(550,825) scale(0.55,0.55)">
		<g transform="">
			<rect x="1792.7" y="-1793.7" width="100" height="100"/>
		</g>
	</g>
	<g transform="translate(605,825) scale(0.55,0.55)">
		<g transform="">
			<rect x="1792.7" y="-1793.7" width="100" height="100"/>
		</g>
	</g>
	<g transform="translate(1320,825) scale(0.55,0.55)">
		<g transform="">
			<rect x="1792.7" y="-1793.7" width="100" height="100"/>
		</g>
	</g>
	<g transform="translate(1375,825) scale(0.55,0.55)">
		<g transform="">
			<rect x="1792.7" y="-1793.7" width="100" height="100"/>
		</g>
	</g>
	<g transform="translate(1430,825) scale(0.55,0.55)">
		<g transform="">
			<rect x="1792.7" y="-1793.7" width="100" height="100"/>
		</g>
	</g>
	<g transform="translate(1595,825) scale(0.55,0.55)">
		<g transform="">
			<rect x="1792.7" y="-1793.7" width="100" height="100"/>
		</g>
	</g>
	<g transform="translate(1705,825) scale(0.55,0.55)">
		<g transform="">
			<rect x="1792.7" y="-1793.7" width="100" height="100"/>
		</g>
	</g>
	<g transform="translate(1760,825) scale(0.55,0.55)">
		<g transform="">
			<rect x="1792.7" y="-1793.7" width="100" height="100"/>
		</g>
	</g>
	<g transform="translate(1980,825) scale(0.55,0.55)">
		<g transform="">
			<rect x="1792.7" y="-1793.7" width="100" height="100"/>
		</g>
	</g>
	<g transform="translate(55,880) scale(0.55,0.55)">
		<g transform="">
			<rect x="1792.7" y="-1793.7" width="100" height="100"/>
		</g>
	</g>
	<g transform="translate(110,880) scale(0.55,0.55)">
		<g transform="">
			<rect x="1792.7" y="-1793.7" width="100" height="100"/>
		</g>
	</g>
	<g transform="translate(330,880) scale(0.55,0.55)">
		<g transform="">
			<rect x="1792.7" y="-1793.7" width="100" height="100"/>
		</g>
	</g>
	<g transform="translate(385,880) scale(0.55,0.55)">
		<g transform="">
			<rect x="1792.7" y="-1793.7" width="100" height="100"/>
		</g>
	</g>
	<g transform="translate(550,880) scale(0.55,0.55)">
		<g transform="">
			<rect x="1792.7" y="-1793.7" width="100" height="100"/>
		</g>
	</g>
	<g transform="translate(605,880) scale(0.55,0.55)">
		<g transform="">
			<rect x="1792.7" y="-1793.7" width="100" height="100"/>
		</g>
	</g>
	<g transform="translate(1320,880) scale(0.55,0.55)">
		<g transform="">
			<rect x="1792.7" y="-1793.7" width="100" height="100"/>
		</g>
	</g>
	<g transform="translate(1375,880) scale(0.55,0.55)">
		<g transform="">
			<rect x="1792.7" y="-1793.7" width="100" height="100"/>
		</g>
	</g>
	<g transform="translate(1595,880) scale(0.55,0.55)">
		<g transform="">
			<rect x="1792.7" y="-1793.7" width="100" height="100"/>
		</g>
	</g>
	<g transform="translate(1650,880) scale(0.55,0.55)">
		<g transform="">
			<rect x="1792.7" y="-1793.7" width="100" height="100"/>
		</g>
	</g>
	<g transform="translate(1815,880) scale(0.55,0.55)">
		<g transform="">
			<rect x="1792.7" y="-1793.7" width="100" height="100"/>
		</g>
	</g>
	<g transform="translate(1925,880) scale(0.55,0.55)">
		<g transform="">
			<rect x="1792.7" y="-1793.7" width="100" height="100"/>
		</g>
	</g>
	<g transform="translate(1980,880) scale(0.55,0.55)">
		<g transform="">
			<rect x="1792.7" y="-1793.7" width="100" height="100"/>
		</g>
	</g>
	<g transform="translate(0,935) scale(0.55,0.55)">
		<g transform="">
			<rect x="1792.7" y="-1793.7" width="100" height="100"/>
		</g>
	</g>
	<g transform="translate(55,935) scale(0.55,0.55)">
		<g transform="">
			<rect x="1792.7" y="-1793.7" width="100" height="100"/>
		</g>
	</g>
	<g transform="translate(220,935) scale(0.55,0.55)">
		<g transform="">
			<rect x="1792.7" y="-1793.7" width="100" height="100"/>
		</g>
	</g>
	<g transform="translate(275,935) scale(0.55,0.55)">
		<g transform="">
			<rect x="1792.7" y="-1793.7" width="100" height="100"/>
		</g>
	</g>
	<g transform="translate(440,935) scale(0.55,0.55)">
		<g transform="">
			<rect x="1792.7" y="-1793.7" width="100" height="100"/>
		</g>
	</g>
	<g transform="translate(550,935) scale(0.55,0.55)">
		<g transform="">
			<rect x="1792.7" y="-1793.7" width="100" height="100"/>
		</g>
	</g>
	<g transform="translate(605,935) scale(0.55,0.55)">
		<g transform="">
			<rect x="1792.7" y="-1793.7" width="100" height="100"/>
		</g>
	</g>
	<g transform="translate(1320,935) scale(0.55,0.55)">
		<g transform="">
			<rect x="1792.7" y="-1793.7" width="100" height="100"/>
		</g>
	</g>
	<g transform="translate(1540,935) scale(0.55,0.55)">
		<g transform="">
			<rect x="1792.7" y="-1793.7" width="100" height="100"/>
		</g>
	</g>
	<g transform="translate(1595,935) scale(0.55,0.55)">
		<g transform="">
			<rect x="1792.7" y="-1793.7" width="100" height="100"/>
		</g>
	</g>
	<g transform="translate(1650,935) scale(0.55,0.55)">
		<g transform="">
			<rect x="1792.7" y="-1793.7" width="100" height="100"/>
		</g>
	</g>
	<g transform="translate(1870,935) scale(0.55,0.55)">
		<g transform="">
			<rect x="1792.7" y="-1793.7" width="100" height="100"/>
		</g>
	</g>
	<g transform="translate(1925,935) scale(0.55,0.55)">
		<g transform="">
			<rect x="1792.7" y="-1793.7" width="100" height="100"/>
		</g>
	</g>
	<g transform="translate(1980,935) scale(0.55,0.55)">
		<g transform="">
			<rect x="1792.7" y="-1793.7" width="100" height="100"/>
		</g>
	</g>
	<g transform="translate(110,990) scale(0.55,0.55)">
		<g transform="">
			<rect x="1792.7" y="-1793.7" width="100" height="100"/>
		</g>
	</g>
	<g transform="translate(330,990) scale(0.55,0.55)">
		<g transform="">
			<rect x="1792.7" y="-1793.7" width="100" height="100"/>
		</g>
	</g>
	<g transform="translate(495,990) scale(0.55,0.55)">
		<g transform="">
			<rect x="1792.7" y="-1793.7" width="100" height="100"/>
		</g>
	</g>
	<g transform="translate(660,990) scale(0.55,0.55)">
		<g transform="">
			<rect x="1792.7" y="-1793.7" width="100" height="100"/>
		</g>
	</g>
	<g transform="translate(1320,990) scale(0.55,0.55)">
		<g transform="">
			<rect x="1792.7" y="-1793.7" width="100" height="100"/>
		</g>
	</g>
	<g transform="translate(1375,990) scale(0.55,0.55)">
		<g transform="">
			<rect x="1792.7" y="-1793.7" width="100" height="100"/>
		</g>
	</g>
	<g transform="translate(1540,990) scale(0.55,0.55)">
		<g transform="">
			<rect x="1792.7" y="-1793.7" width="100" height="100"/>
		</g>
	</g>
	<g transform="translate(1650,990) scale(0.55,0.55)">
		<g transform="">
			<rect x="1792.7" y="-1793.7" width="100" height="100"/>
		</g>
	</g>
	<g transform="translate(1760,990) scale(0.55,0.55)">
		<g transform="">
			<rect x="1792.7" y="-1793.7" width="100" height="100"/>
		</g>
	</g>
	<g transform="translate(1925,990) scale(0.55,0.55)">
		<g transform="">
			<rect x="1792.7" y="-1793.7" width="100" height="100"/>
		</g>
	</g>
	<g transform="translate(1980,990) scale(0.55,0.55)">
		<g transform="">
			<rect x="1792.7" y="-1793.7" width="100" height="100"/>
		</g>
	</g>
	<g transform="translate(0,1045) scale(0.55,0.55)">
		<g transform="">
			<rect x="1792.7" y="-1793.7" width="100" height="100"/>
		</g>
	</g>
	<g transform="translate(275,1045) scale(0.55,0.55)">
		<g transform="">
			<rect x="1792.7" y="-1793.7" width="100" height="100"/>
		</g>
	</g>
	<g transform="translate(495,1045) scale(0.55,0.55)">
		<g transform="">
			<rect x="1792.7" y="-1793.7" width="100" height="100"/>
		</g>
	</g>
	<g transform="translate(660,1045) scale(0.55,0.55)">
		<g transform="">
			<rect x="1792.7" y="-1793.7" width="100" height="100"/>
		</g>
	</g>
	<g transform="translate(1320,1045) scale(0.55,0.55)">
		<g transform="">
			<rect x="1792.7" y="-1793.7" width="100" height="100"/>
		</g>
	</g>
	<g transform="translate(1375,1045) scale(0.55,0.55)">
		<g transform="">
			<rect x="1792.7" y="-1793.7" width="100" height="100"/>
		</g>
	</g>
	<g transform="translate(1540,1045) scale(0.55,0.55)">
		<g transform="">
			<rect x="1792.7" y="-1793.7" width="100" height="100"/>
		</g>
	</g>
	<g transform="translate(1650,1045) scale(0.55,0.55)">
		<g transform="">
			<rect x="1792.7" y="-1793.7" width="100" height="100"/>
		</g>
	</g>
	<g transform="translate(1760,1045) scale(0.55,0.55)">
		<g transform="">
			<rect x="1792.7" y="-1793.7" width="100" height="100"/>
		</g>
	</g>
	<g transform="translate(1925,1045) scale(0.55,0.55)">
		<g transform="">
			<rect x="1792.7" y="-1793.7" width="100" height="100"/>
		</g>
	</g>
	<g transform="translate(110,1100) scale(0.55,0.55)">
		<g transform="">
			<rect x="1792.7" y="-1793.7" width="100" height="100"/>
		</g>
	</g>
	<g transform="translate(165,1100) scale(0.55,0.55)">
		<g transform="">
			<rect x="1792.7" y="-1793.7" width="100" height="100"/>
		</g>
	</g>
	<g transform="translate(220,1100) scale(0.55,0.55)">
		<g transform="">
			<rect x="1792.7" y="-1793.7" width="100" height="100"/>
		</g>
	</g>
	<g transform="translate(330,1100) scale(0.55,0.55)">
		<g transform="">
			<rect x="1792.7" y="-1793.7" width="100" height="100"/>
		</g>
	</g>
	<g transform="translate(550,1100) scale(0.55,0.55)">
		<g transform="">
			<rect x="1792.7" y="-1793.7" width="100" height="100"/>
		</g>
	</g>
	<g transform="translate(605,1100) scale(0.55,0.55)">
		<g transform="">
			<rect x="1792.7" y="-1793.7" width="100" height="100"/>
		</g>
	</g>
	<g transform="translate(660,1100) scale(0.55,0.55)">
		<g transform="">
			<rect x="1792.7" y="-1793.7" width="100" height="100"/>
		</g>
	</g>
	<g transform="translate(1375,1100) scale(0.55,0.55)">
		<g transform="">
			<rect x="1792.7" y="-1793.7" width="100" height="100"/>
		</g>
	</g>
	<g transform="translate(1485,1100) scale(0.55,0.55)">
		<g transform="">
			<rect x="1792.7" y="-1793.7" width="100" height="100"/>
		</g>
	</g>
	<g transform="translate(1540,1100) scale(0.55,0.55)">
		<g transform="">
			<rect x="1792.7" y="-1793.7" width="100" height="100"/>
		</g>
	</g>
	<g transform="translate(1650,1100) scale(0.55,0.55)">
		<g transform="">
			<rect x="1792.7" y="-1793.7" width="100" height="100"/>
		</g>
	</g>
	<g transform="translate(1705,1100) scale(0.55,0.55)">
		<g transform="">
			<rect x="1792.7" y="-1793.7" width="100" height="100"/>
		</g>
	</g>
	<g transform="translate(1925,1100) scale(0.55,0.55)">
		<g transform="">
			<rect x="1792.7" y="-1793.7" width="100" height="100"/>
		</g>
	</g>
	<g transform="translate(55,1155) scale(0.55,0.55)">
		<g transform="">
			<rect x="1792.7" y="-1793.7" width="100" height="100"/>
		</g>
	</g>
	<g transform="translate(110,1155) scale(0.55,0.55)">
		<g transform="">
			<rect x="1792.7" y="-1793.7" width="100" height="100"/>
		</g>
	</g>
	<g transform="translate(220,1155) scale(0.55,0.55)">
		<g transform="">
			<rect x="1792.7" y="-1793.7" width="100" height="100"/>
		</g>
	</g>
	<g transform="translate(275,1155) scale(0.55,0.55)">
		<g transform="">
			<rect x="1792.7" y="-1793.7" width="100" height="100"/>
		</g>
	</g>
	<g transform="translate(495,1155) scale(0.55,0.55)">
		<g transform="">
			<rect x="1792.7" y="-1793.7" width="100" height="100"/>
		</g>
	</g>
	<g transform="translate(550,1155) scale(0.55,0.55)">
		<g transform="">
			<rect x="1792.7" y="-1793.7" width="100" height="100"/>
		</g>
	</g>
	<g transform="translate(1320,1155) scale(0.55,0.55)">
		<g transform="">
			<rect x="1792.7" y="-1793.7" width="100" height="100"/>
		</g>
	</g>
	<g transform="translate(1430,1155) scale(0.55,0.55)">
		<g transform="">
			<rect x="1792.7" y="-1793.7" width="100" height="100"/>
		</g>
	</g>
	<g transform="translate(1595,1155) scale(0.55,0.55)">
		<g transform="">
			<rect x="1792.7" y="-1793.7" width="100" height="100"/>
		</g>
	</g>
	<g transform="translate(1650,1155) scale(0.55,0.55)">
		<g transform="">
			<rect x="1792.7" y="-1793.7" width="100" height="100"/>
		</g>
	</g>
	<g transform="translate(1925,1155) scale(0.55,0.55)">
		<g transform="">
			<rect x="1792.7" y="-1793.7" width="100" height="100"/>
		</g>
	</g>
	<g transform="translate(1980,1155) scale(0.55,0.55)">
		<g transform="">
			<rect x="1792.7" y="-1793.7" width="100" height="100"/>
		</g>
	</g>
	<g transform="translate(0,1210) scale(0.55,0.55)">
		<g transform="">
			<rect x="1792.7" y="-1793.7" width="100" height="100"/>
		</g>
	</g>
	<g transform="translate(275,1210) scale(0.55,0.55)">
		<g transform="">
			<rect x="1792.7" y="-1793.7" width="100" height="100"/>
		</g>
	</g>
	<g transform="translate(330,1210) scale(0.55,0.55)">
		<g transform="">
			<rect x="1792.7" y="-1793.7" width="100" height="100"/>
		</g>
	</g>
	<g transform="translate(550,1210) scale(0.55,0.55)">
		<g transform="">
			<rect x="1792.7" y="-1793.7" width="100" height="100"/>
		</g>
	</g>
	<g transform="translate(1320,1210) scale(0.55,0.55)">
		<g transform="">
			<rect x="1792.7" y="-1793.7" width="100" height="100"/>
		</g>
	</g>
	<g transform="translate(1540,1210) scale(0.55,0.55)">
		<g transform="">
			<rect x="1792.7" y="-1793.7" width="100" height="100"/>
		</g>
	</g>
	<g transform="translate(1650,1210) scale(0.55,0.55)">
		<g transform="">
			<rect x="1792.7" y="-1793.7" width="100" height="100"/>
		</g>
	</g>
	<g transform="translate(1760,1210) scale(0.55,0.55)">
		<g transform="">
			<rect x="1792.7" y="-1793.7" width="100" height="100"/>
		</g>
	</g>
	<g transform="translate(1815,1210) scale(0.55,0.55)">
		<g transform="">
			<rect x="1792.7" y="-1793.7" width="100" height="100"/>
		</g>
	</g>
	<g transform="translate(1870,1210) scale(0.55,0.55)">
		<g transform="">
			<rect x="1792.7" y="-1793.7" width="100" height="100"/>
		</g>
	</g>
	<g transform="translate(1925,1210) scale(0.55,0.55)">
		<g transform="">
			<rect x="1792.7" y="-1793.7" width="100" height="100"/>
		</g>
	</g>
	<g transform="translate(1980,1210) scale(0.55,0.55)">
		<g transform="">
			<rect x="1792.7" y="-1793.7" width="100" height="100"/>
		</g>
	</g>
	<g transform="translate(0,1265) scale(0.55,0.55)">
		<g transform="">
			<rect x="1792.7" y="-1793.7" width="100" height="100"/>
		</g>
	</g>
	<g transform="translate(55,1265) scale(0.55,0.55)">
		<g transform="">
			<rect x="1792.7" y="-1793.7" width="100" height="100"/>
		</g>
	</g>
	<g transform="translate(220,1265) scale(0.55,0.55)">
		<g transform="">
			<rect x="1792.7" y="-1793.7" width="100" height="100"/>
		</g>
	</g>
	<g transform="translate(385,1265) scale(0.55,0.55)">
		<g transform="">
			<rect x="1792.7" y="-1793.7" width="100" height="100"/>
		</g>
	</g>
	<g transform="translate(440,1265) scale(0.55,0.55)">
		<g transform="">
			<rect x="1792.7" y="-1793.7" width="100" height="100"/>
		</g>
	</g>
	<g transform="translate(495,1265) scale(0.55,0.55)">
		<g transform="">
			<rect x="1792.7" y="-1793.7" width="100" height="100"/>
		</g>
	</g>
	<g transform="translate(1320,1265) scale(0.55,0.55)">
		<g transform="">
			<rect x="1792.7" y="-1793.7" width="100" height="100"/>
		</g>
	</g>
	<g transform="translate(1375,1265) scale(0.55,0.55)">
		<g transform="">
			<rect x="1792.7" y="-1793.7" width="100" height="100"/>
		</g>
	</g>
	<g transform="translate(1430,1265) scale(0.55,0.55)">
		<g transform="">
			<rect x="1792.7" y="-1793.7" width="100" height="100"/>
		</g>
	</g>
	<g transform="translate(1595,1265) scale(0.55,0.55)">
		<g transform="">
			<rect x="1792.7" y="-1793.7" width="100" height="100"/>
		</g>
	</g>
	<g transform="translate(1980,1265) scale(0.55,0.55)">
		<g transform="">
			<rect x="1792.7" y="-1793.7" width="100" height="100"/>
		</g>
	</g>
	<g transform="translate(0,1320) scale(0.55,0.55)">
		<g transform="">
			<rect x="1792.7" y="-1793.7" width="100" height="100"/>
		</g>
	</g>
	<g transform="translate(110,1320) scale(0.55,0.55)">
		<g transform="">
			<rect x="1792.7" y="-1793.7" width="100" height="100"/>
		</g>
	</g>
	<g transform="translate(220,1320) scale(0.55,0.55)">
		<g transform="">
			<rect x="1792.7" y="-1793.7" width="100" height="100"/>
		</g>
	</g>
	<g transform="translate(275,1320) scale(0.55,0.55)">
		<g transform="">
			<rect x="1792.7" y="-1793.7" width="100" height="100"/>
		</g>
	</g>
	<g transform="translate(330,1320) scale(0.55,0.55)">
		<g transform="">
			<rect x="1792.7" y="-1793.7" width="100" height="100"/>
		</g>
	</g>
	<g transform="translate(605,1320) scale(0.55,0.55)">
		<g transform="">
			<rect x="1792.7" y="-1793.7" width="100" height="100"/>
		</g>
	</g>
	<g transform="translate(660,1320) scale(0.55,0.55)">
		<g transform="">
			<rect x="1792.7" y="-1793.7" width="100" height="100"/>
		</g>
	</g>
	<g transform="translate(880,1320) scale(0.55,0.55)">
		<g transform="">
			<rect x="1792.7" y="-1793.7" width="100" height="100"/>
		</g>
	</g>
	<g transform="translate(935,1320) scale(0.55,0.55)">
		<g transform="">
			<rect x="1792.7" y="-1793.7" width="100" height="100"/>
		</g>
	</g>
	<g transform="translate(990,1320) scale(0.55,0.55)">
		<g transform="">
			<rect x="1792.7" y="-1793.7" width="100" height="100"/>
		</g>
	</g>
	<g transform="translate(1045,1320) scale(0.55,0.55)">
		<g transform="">
			<rect x="1792.7" y="-1793.7" width="100" height="100"/>
		</g>
	</g>
	<g transform="translate(1155,1320) scale(0.55,0.55)">
		<g transform="">
			<rect x="1792.7" y="-1793.7" width="100" height="100"/>
		</g>
	</g>
	<g transform="translate(1210,1320) scale(0.55,0.55)">
		<g transform="">
			<rect x="1792.7" y="-1793.7" width="100" height="100"/>
		</g>
	</g>
	<g transform="translate(1265,1320) scale(0.55,0.55)">
		<g transform="">
			<rect x="1792.7" y="-1793.7" width="100" height="100"/>
		</g>
	</g>
	<g transform="translate(1320,1320) scale(0.55,0.55)">
		<g transform="">
			<rect x="1792.7" y="-1793.7" width="100" height="100"/>
		</g>
	</g>
	<g transform="translate(1375,1320) scale(0.55,0.55)">
		<g transform="">
			<rect x="1792.7" y="-1793.7" width="100" height="100"/>
		</g>
	</g>
	<g transform="translate(1485,1320) scale(0.55,0.55)">
		<g transform="">
			<rect x="1792.7" y="-1793.7" width="100" height="100"/>
		</g>
	</g>
	<g transform="translate(1540,1320) scale(0.55,0.55)">
		<g transform="">
			<rect x="1792.7" y="-1793.7" width="100" height="100"/>
		</g>
	</g>
	<g transform="translate(1595,1320) scale(0.55,0.55)">
		<g transform="">
			<rect x="1792.7" y="-1793.7" width="100" height="100"/>
		</g>
	</g>
	<g transform="translate(1650,1320) scale(0.55,0.55)">
		<g transform="">
			<rect x="1792.7" y="-1793.7" width="100" height="100"/>
		</g>
	</g>
	<g transform="translate(1815,1320) scale(0.55,0.55)">
		<g transform="">
			<rect x="1792.7" y="-1793.7" width="100" height="100"/>
		</g>
	</g>
	<g transform="translate(1925,1320) scale(0.55,0.55)">
		<g transform="">
			<rect x="1792.7" y="-1793.7" width="100" height="100"/>
		</g>
	</g>
	<g transform="translate(55,1375) scale(0.55,0.55)">
		<g transform="">
			<rect x="1792.7" y="-1793.7" width="100" height="100"/>
		</g>
	</g>
	<g transform="translate(110,1375) scale(0.55,0.55)">
		<g transform="">
			<rect x="1792.7" y="-1793.7" width="100" height="100"/>
		</g>
	</g>
	<g transform="translate(220,1375) scale(0.55,0.55)">
		<g transform="">
			<rect x="1792.7" y="-1793.7" width="100" height="100"/>
		</g>
	</g>
	<g transform="translate(275,1375) scale(0.55,0.55)">
		<g transform="">
			<rect x="1792.7" y="-1793.7" width="100" height="100"/>
		</g>
	</g>
	<g transform="translate(495,1375) scale(0.55,0.55)">
		<g transform="">
			<rect x="1792.7" y="-1793.7" width="100" height="100"/>
		</g>
	</g>
	<g transform="translate(715,1375) scale(0.55,0.55)">
		<g transform="">
			<rect x="1792.7" y="-1793.7" width="100" height="100"/>
		</g>
	</g>
	<g transform="translate(770,1375) scale(0.55,0.55)">
		<g transform="">
			<rect x="1792.7" y="-1793.7" width="100" height="100"/>
		</g>
	</g>
	<g transform="translate(825,1375) scale(0.55,0.55)">
		<g transform="">
			<rect x="1792.7" y="-1793.7" width="100" height="100"/>
		</g>
	</g>
	<g transform="translate(880,1375) scale(0.55,0.55)">
		<g transform="">
			<rect x="1792.7" y="-1793.7" width="100" height="100"/>
		</g>
	</g>
	<g transform="translate(990,1375) scale(0.55,0.55)">
		<g transform="">
			<rect x="1792.7" y="-1793.7" width="100" height="100"/>
		</g>
	</g>
	<g transform="translate(1045,1375) scale(0.55,0.55)">
		<g transform="">
			<rect x="1792.7" y="-1793.7" width="100" height="100"/>
		</g>
	</g>
	<g transform="translate(1100,1375) scale(0.55,0.55)">
		<g transform="">
			<rect x="1792.7" y="-1793.7" width="100" height="100"/>
		</g>
	</g>
	<g transform="translate(1265,1375) scale(0.55,0.55)">
		<g transform="">
			<rect x="1792.7" y="-1793.7" width="100" height="100"/>
		</g>
	</g>
	<g transform="translate(1375,1375) scale(0.55,0.55)">
		<g transform="">
			<rect x="1792.7" y="-1793.7" width="100" height="100"/>
		</g>
	</g>
	<g transform="translate(1430,1375) scale(0.55,0.55)">
		<g transform="">
			<rect x="1792.7" y="-1793.7" width="100" height="100"/>
		</g>
	</g>
	<g transform="translate(1595,1375) scale(0.55,0.55)">
		<g transform="">
			<rect x="1792.7" y="-1793.7" width="100" height="100"/>
		</g>
	</g>
	<g transform="translate(1650,1375) scale(0.55,0.55)">
		<g transform="">
			<rect x="1792.7" y="-1793.7" width="100" height="100"/>
		</g>
	</g>
	<g transform="translate(1925,1375) scale(0.55,0.55)">
		<g transform="">
			<rect x="1792.7" y="-1793.7" width="100" height="100"/>
		</g>
	</g>
	<g transform="translate(1980,1375) scale(0.55,0.55)">
		<g transform="">
			<rect x="1792.7" y="-1793.7" width="100" height="100"/>
		</g>
	</g>
	<g transform="translate(0,1430) scale(0.55,0.55)">
		<g transform="">
			<rect x="1792.7" y="-1793.7" width="100" height="100"/>
		</g>
	</g>
	<g transform="translate(110,1430) scale(0.55,0.55)">
		<g transform="">
			<rect x="1792.7" y="-1793.7" width="100" height="100"/>
		</g>
	</g>
	<g transform="translate(275,1430) scale(0.55,0.55)">
		<g transform="">
			<rect x="1792.7" y="-1793.7" width="100" height="100"/>
		</g>
	</g>
	<g transform="translate(330,1430) scale(0.55,0.55)">
		<g transform="">
			<rect x="1792.7" y="-1793.7" width="100" height="100"/>
		</g>
	</g>
	<g transform="translate(440,1430) scale(0.55,0.55)">
		<g transform="">
			<rect x="1792.7" y="-1793.7" width="100" height="100"/>
		</g>
	</g>
	<g transform="translate(550,1430) scale(0.55,0.55)">
		<g transform="">
			<rect x="1792.7" y="-1793.7" width="100" height="100"/>
		</g>
	</g>
	<g transform="translate(605,1430) scale(0.55,0.55)">
		<g transform="">
			<rect x="1792.7" y="-1793.7" width="100" height="100"/>
		</g>
	</g>
	<g transform="translate(715,1430) scale(0.55,0.55)">
		<g transform="">
			<rect x="1792.7" y="-1793.7" width="100" height="100"/>
		</g>
	</g>
	<g transform="translate(935,1430) scale(0.55,0.55)">
		<g transform="">
			<rect x="1792.7" y="-1793.7" width="100" height="100"/>
		</g>
	</g>
	<g transform="translate(1155,1430) scale(0.55,0.55)">
		<g transform="">
			<rect x="1792.7" y="-1793.7" width="100" height="100"/>
		</g>
	</g>
	<g transform="translate(1320,1430) scale(0.55,0.55)">
		<g transform="">
			<rect x="1792.7" y="-1793.7" width="100" height="100"/>
		</g>
	</g>
	<g transform="translate(1375,1430) scale(0.55,0.55)">
		<g transform="">
			<rect x="1792.7" y="-1793.7" width="100" height="100"/>
		</g>
	</g>
	<g transform="translate(1650,1430) scale(0.55,0.55)">
		<g transform="">
			<rect x="1792.7" y="-1793.7" width="100" height="100"/>
		</g>
	</g>
	<g transform="translate(1815,1430) scale(0.55,0.55)">
		<g transform="">
			<rect x="1792.7" y="-1793.7" width="100" height="100"/>
		</g>
	</g>
	<g transform="translate(1870,1430) scale(0.55,0.55)">
		<g transform="">
			<rect x="1792.7" y="-1793.7" width="100" height="100"/>
		</g>
	</g>
	<g transform="translate(1925,1430) scale(0.55,0.55)">
		<g transform="">
			<rect x="1792.7" y="-1793.7" width="100" height="100"/>
		</g>
	</g>
	<g transform="translate(1980,1430) scale(0.55,0.55)">
		<g transform="">
			<rect x="1792.7" y="-1793.7" width="100" height="100"/>
		</g>
	</g>
	<g transform="translate(55,1485) scale(0.55,0.55)">
		<g transform="">
			<rect x="1792.7" y="-1793.7" width="100" height="100"/>
		</g>
	</g>
	<g transform="translate(110,1485) scale(0.55,0.55)">
		<g transform="">
			<rect x="1792.7" y="-1793.7" width="100" height="100"/>
		</g>
	</g>
	<g transform="translate(550,1485) scale(0.55,0.55)">
		<g transform="">
			<rect x="1792.7" y="-1793.7" width="100" height="100"/>
		</g>
	</g>
	<g transform="translate(660,1485) scale(0.55,0.55)">
		<g transform="">
			<rect x="1792.7" y="-1793.7" width="100" height="100"/>
		</g>
	</g>
	<g transform="translate(770,1485) scale(0.55,0.55)">
		<g transform="">
			<rect x="1792.7" y="-1793.7" width="100" height="100"/>
		</g>
	</g>
	<g transform="translate(825,1485) scale(0.55,0.55)">
		<g transform="">
			<rect x="1792.7" y="-1793.7" width="100" height="100"/>
		</g>
	</g>
	<g transform="translate(880,1485) scale(0.55,0.55)">
		<g transform="">
			<rect x="1792.7" y="-1793.7" width="100" height="100"/>
		</g>
	</g>
	<g transform="translate(935,1485) scale(0.55,0.55)">
		<g transform="">
			<rect x="1792.7" y="-1793.7" width="100" height="100"/>
		</g>
	</g>
	<g transform="translate(990,1485) scale(0.55,0.55)">
		<g transform="">
			<rect x="1792.7" y="-1793.7" width="100" height="100"/>
		</g>
	</g>
	<g transform="translate(1045,1485) scale(0.55,0.55)">
		<g transform="">
			<rect x="1792.7" y="-1793.7" width="100" height="100"/>
		</g>
	</g>
	<g transform="translate(1100,1485) scale(0.55,0.55)">
		<g transform="">
			<rect x="1792.7" y="-1793.7" width="100" height="100"/>
		</g>
	</g>
	<g transform="translate(1155,1485) scale(0.55,0.55)">
		<g transform="">
			<rect x="1792.7" y="-1793.7" width="100" height="100"/>
		</g>
	</g>
	<g transform="translate(1210,1485) scale(0.55,0.55)">
		<g transform="">
			<rect x="1792.7" y="-1793.7" width="100" height="100"/>
		</g>
	</g>
	<g transform="translate(1375,1485) scale(0.55,0.55)">
		<g transform="">
			<rect x="1792.7" y="-1793.7" width="100" height="100"/>
		</g>
	</g>
	<g transform="translate(1430,1485) scale(0.55,0.55)">
		<g transform="">
			<rect x="1792.7" y="-1793.7" width="100" height="100"/>
		</g>
	</g>
	<g transform="translate(1485,1485) scale(0.55,0.55)">
		<g transform="">
			<rect x="1792.7" y="-1793.7" width="100" height="100"/>
		</g>
	</g>
	<g transform="translate(1650,1485) scale(0.55,0.55)">
		<g transform="">
			<rect x="1792.7" y="-1793.7" width="100" height="100"/>
		</g>
	</g>
	<g transform="translate(1705,1485) scale(0.55,0.55)">
		<g transform="">
			<rect x="1792.7" y="-1793.7" width="100" height="100"/>
		</g>
	</g>
	<g transform="translate(1925,1485) scale(0.55,0.55)">
		<g transform="">
			<rect x="1792.7" y="-1793.7" width="100" height="100"/>
		</g>
	</g>
	<g transform="translate(0,1540) scale(0.55,0.55)">
		<g transform="">
			<rect x="1792.7" y="-1793.7" width="100" height="100"/>
		</g>
	</g>
	<g transform="translate(165,1540) scale(0.55,0.55)">
		<g transform="">
			<rect x="1792.7" y="-1793.7" width="100" height="100"/>
		</g>
	</g>
	<g transform="translate(220,1540) scale(0.55,0.55)">
		<g transform="">
			<rect x="1792.7" y="-1793.7" width="100" height="100"/>
		</g>
	</g>
	<g transform="translate(330,1540) scale(0.55,0.55)">
		<g transform="">
			<rect x="1792.7" y="-1793.7" width="100" height="100"/>
		</g>
	</g>
	<g transform="translate(385,1540) scale(0.55,0.55)">
		<g transform="">
			<rect x="1792.7" y="-1793.7" width="100" height="100"/>
		</g>
	</g>
	<g transform="translate(440,1540) scale(0.55,0.55)">
		<g transform="">
			<rect x="1792.7" y="-1793.7" width="100" height="100"/>
		</g>
	</g>
	<g transform="translate(495,1540) scale(0.55,0.55)">
		<g transform="">
			<rect x="1792.7" y="-1793.7" width="100" height="100"/>
		</g>
	</g>
	<g transform="translate(550,1540) scale(0.55,0.55)">
		<g transform="">
			<rect x="1792.7" y="-1793.7" width="100" height="100"/>
		</g>
	</g>
	<g transform="translate(605,1540) scale(0.55,0.55)">
		<g transform="">
			<rect x="1792.7" y="-1793.7" width="100" height="100"/>
		</g>
	</g>
	<g transform="translate(660,1540) scale(0.55,0.55)">
		<g transform="">
			<rect x="1792.7" y="-1793.7" width="100" height="100"/>
		</g>
	</g>
	<g transform="translate(715,1540) scale(0.55,0.55)">
		<g transform="">
			<rect x="1792.7" y="-1793.7" width="100" height="100"/>
		</g>
	</g>
	<g transform="translate(770,1540) scale(0.55,0.55)">
		<g transform="">
			<rect x="1792.7" y="-1793.7" width="100" height="100"/>
		</g>
	</g>
	<g transform="translate(825,1540) scale(0.55,0.55)">
		<g transform="">
			<rect x="1792.7" y="-1793.7" width="100" height="100"/>
		</g>
	</g>
	<g transform="translate(880,1540) scale(0.55,0.55)">
		<g transform="">
			<rect x="1792.7" y="-1793.7" width="100" height="100"/>
		</g>
	</g>
	<g transform="translate(1045,1540) scale(0.55,0.55)">
		<g transform="">
			<rect x="1792.7" y="-1793.7" width="100" height="100"/>
		</g>
	</g>
	<g transform="translate(1210,1540) scale(0.55,0.55)">
		<g transform="">
			<rect x="1792.7" y="-1793.7" width="100" height="100"/>
		</g>
	</g>
	<g transform="translate(1320,1540) scale(0.55,0.55)">
		<g transform="">
			<rect x="1792.7" y="-1793.7" width="100" height="100"/>
		</g>
	</g>
	<g transform="translate(1375,1540) scale(0.55,0.55)">
		<g transform="">
			<rect x="1792.7" y="-1793.7" width="100" height="100"/>
		</g>
	</g>
	<g transform="translate(1485,1540) scale(0.55,0.55)">
		<g transform="">
			<rect x="1792.7" y="-1793.7" width="100" height="100"/>
		</g>
	</g>
	<g transform="translate(1540,1540) scale(0.55,0.55)">
		<g transform="">
			<rect x="1792.7" y="-1793.7" width="100" height="100"/>
		</g>
	</g>
	<g transform="translate(1595,1540) scale(0.55,0.55)">
		<g transform="">
			<rect x="1792.7" y="-1793.7" width="100" height="100"/>
		</g>
	</g>
	<g transform="translate(1650,1540) scale(0.55,0.55)">
		<g transform="">
			<rect x="1792.7" y="-1793.7" width="100" height="100"/>
		</g>
	</g>
	<g transform="translate(1705,1540) scale(0.55,0.55)">
		<g transform="">
			<rect x="1792.7" y="-1793.7" width="100" height="100"/>
		</g>
	</g>
	<g transform="translate(1760,1540) scale(0.55,0.55)">
		<g transform="">
			<rect x="1792.7" y="-1793.7" width="100" height="100"/>
		</g>
	</g>
	<g transform="translate(1815,1540) scale(0.55,0.55)">
		<g transform="">
			<rect x="1792.7" y="-1793.7" width="100" height="100"/>
		</g>
	</g>
	<g transform="translate(1925,1540) scale(0.55,0.55)">
		<g transform="">
			<rect x="1792.7" y="-1793.7" width="100" height="100"/>
		</g>
	</g>
	<g transform="translate(1980,1540) scale(0.55,0.55)">
		<g transform="">
			<rect x="1792.7" y="-1793.7" width="100" height="100"/>
		</g>
	</g>
	<g transform="translate(440,1595) scale(0.55,0.55)">
		<g transform="">
			<rect x="1792.7" y="-1793.7" width="100" height="100"/>
		</g>
	</g>
	<g transform="translate(495,1595) scale(0.55,0.55)">
		<g transform="">
			<rect x="1792.7" y="-1793.7" width="100" height="100"/>
		</g>
	</g>
	<g transform="translate(660,1595) scale(0.55,0.55)">
		<g transform="">
			<rect x="1792.7" y="-1793.7" width="100" height="100"/>
		</g>
	</g>
	<g transform="translate(935,1595) scale(0.55,0.55)">
		<g transform="">
			<rect x="1792.7" y="-1793.7" width="100" height="100"/>
		</g>
	</g>
	<g transform="translate(990,1595) scale(0.55,0.55)">
		<g transform="">
			<rect x="1792.7" y="-1793.7" width="100" height="100"/>
		</g>
	</g>
	<g transform="translate(1045,1595) scale(0.55,0.55)">
		<g transform="">
			<rect x="1792.7" y="-1793.7" width="100" height="100"/>
		</g>
	</g>
	<g transform="translate(1155,1595) scale(0.55,0.55)">
		<g transform="">
			<rect x="1792.7" y="-1793.7" width="100" height="100"/>
		</g>
	</g>
	<g transform="translate(1210,1595) scale(0.55,0.55)">
		<g transform="">
			<rect x="1792.7" y="-1793.7" width="100" height="100"/>
		</g>
	</g>
	<g transform="translate(1430,1595) scale(0.55,0.55)">
		<g transform="">
			<rect x="1792.7" y="-1793.7" width="100" height="100"/>
		</g>
	</g>
	<g transform="translate(1485,1595) scale(0.55,0.55)">
		<g transform="">
			<rect x="1792.7" y="-1793.7" width="100" height="100"/>
		</g>
	</g>
	<g transform="translate(1540,1595) scale(0.55,0.55)">
		<g transform="">
			<rect x="1792.7" y="-1793.7" width="100" height="100"/>
		</g>
	</g>
	<g transform="translate(1760,1595) scale(0.55,0.55)">
		<g transform="">
			<rect x="1792.7" y="-1793.7" width="100" height="100"/>
		</g>
	</g>
	<g transform="translate(1980,1595) scale(0.55,0.55)">
		<g transform="">
			<rect x="1792.7" y="-1793.7" width="100" height="100"/>
		</g>
	</g>
	<g transform="translate(495,1650) scale(0.55,0.55)">
		<g transform="">
			<rect x="1792.7" y="-1793.7" width="100" height="100"/>
		</g>
	</g>
	<g transform="translate(550,1650) scale(0.55,0.55)">
		<g transform="">
			<rect x="1792.7" y="-1793.7" width="100" height="100"/>
		</g>
	</g>
	<g transform="translate(715,1650) scale(0.55,0.55)">
		<g transform="">
			<rect x="1792.7" y="-1793.7" width="100" height="100"/>
		</g>
	</g>
	<g transform="translate(770,1650) scale(0.55,0.55)">
		<g transform="">
			<rect x="1792.7" y="-1793.7" width="100" height="100"/>
		</g>
	</g>
	<g transform="translate(825,1650) scale(0.55,0.55)">
		<g transform="">
			<rect x="1792.7" y="-1793.7" width="100" height="100"/>
		</g>
	</g>
	<g transform="translate(880,1650) scale(0.55,0.55)">
		<g transform="">
			<rect x="1792.7" y="-1793.7" width="100" height="100"/>
		</g>
	</g>
	<g transform="translate(935,1650) scale(0.55,0.55)">
		<g transform="">
			<rect x="1792.7" y="-1793.7" width="100" height="100"/>
		</g>
	</g>
	<g transform="translate(990,1650) scale(0.55,0.55)">
		<g transform="">
			<rect x="1792.7" y="-1793.7" width="100" height="100"/>
		</g>
	</g>
	<g transform="translate(1045,1650) scale(0.55,0.55)">
		<g transform="">
			<rect x="1792.7" y="-1793.7" width="100" height="100"/>
		</g>
	</g>
	<g transform="translate(1155,1650) scale(0.55,0.55)">
		<g transform="">
			<rect x="1792.7" y="-1793.7" width="100" height="100"/>
		</g>
	</g>
	<g transform="translate(1375,1650) scale(0.55,0.55)">
		<g transform="">
			<rect x="1792.7" y="-1793.7" width="100" height="100"/>
		</g>
	</g>
	<g transform="translate(1485,1650) scale(0.55,0.55)">
		<g transform="">
			<rect x="1792.7" y="-1793.7" width="100" height="100"/>
		</g>
	</g>
	<g transform="translate(1540,1650) scale(0.55,0.55)">
		<g transform="">
			<rect x="1792.7" y="-1793.7" width="100" height="100"/>
		</g>
	</g>
	<g transform="translate(1650,1650) scale(0.55,0.55)">
		<g transform="">
			<rect x="1792.7" y="-1793.7" width="100" height="100"/>
		</g>
	</g>
	<g transform="translate(1760,1650) scale(0.55,0.55)">
		<g transform="">
			<rect x="1792.7" y="-1793.7" width="100" height="100"/>
		</g>
	</g>
	<g transform="translate(1870,1650) scale(0.55,0.55)">
		<g transform="">
			<rect x="1792.7" y="-1793.7" width="100" height="100"/>
		</g>
	</g>
	<g transform="translate(1925,1650) scale(0.55,0.55)">
		<g transform="">
			<rect x="1792.7" y="-1793.7" width="100" height="100"/>
		</g>
	</g>
	<g transform="translate(1980,1650) scale(0.55,0.55)">
		<g transform="">
			<rect x="1792.7" y="-1793.7" width="100" height="100"/>
		</g>
	</g>
	<g transform="translate(440,1705) scale(0.55,0.55)">
		<g transform="">
			<rect x="1792.7" y="-1793.7" width="100" height="100"/>
		</g>
	</g>
	<g transform="translate(495,1705) scale(0.55,0.55)">
		<g transform="">
			<rect x="1792.7" y="-1793.7" width="100" height="100"/>
		</g>
	</g>
	<g transform="translate(605,1705) scale(0.55,0.55)">
		<g transform="">
			<rect x="1792.7" y="-1793.7" width="100" height="100"/>
		</g>
	</g>
	<g transform="translate(715,1705) scale(0.55,0.55)">
		<g transform="">
			<rect x="1792.7" y="-1793.7" width="100" height="100"/>
		</g>
	</g>
	<g transform="translate(825,1705) scale(0.55,0.55)">
		<g transform="">
			<rect x="1792.7" y="-1793.7" width="100" height="100"/>
		</g>
	</g>
	<g transform="translate(1100,1705) scale(0.55,0.55)">
		<g transform="">
			<rect x="1792.7" y="-1793.7" width="100" height="100"/>
		</g>
	</g>
	<g transform="translate(1155,1705) scale(0.55,0.55)">
		<g transform="">
			<rect x="1792.7" y="-1793.7" width="100" height="100"/>
		</g>
	</g>
	<g transform="translate(1375,1705) scale(0.55,0.55)">
		<g transform="">
			<rect x="1792.7" y="-1793.7" width="100" height="100"/>
		</g>
	</g>
	<g transform="translate(1540,1705) scale(0.55,0.55)">
		<g transform="">
			<rect x="1792.7" y="-1793.7" width="100" height="100"/>
		</g>
	</g>
	<g transform="translate(1760,1705) scale(0.55,0.55)">
		<g transform="">
			<rect x="1792.7" y="-1793.7" width="100" height="100"/>
		</g>
	</g>
	<g transform="translate(1980,1705) scale(0.55,0.55)">
		<g transform="">
			<rect x="1792.7" y="-1793.7" width="100" height="100"/>
		</g>
	</g>
	<g transform="translate(440,1760) scale(0.55,0.55)">
		<g transform="">
			<rect x="1792.7" y="-1793.7" width="100" height="100"/>
		</g>
	</g>
	<g transform="translate(605,1760) scale(0.55,0.55)">
		<g transform="">
			<rect x="1792.7" y="-1793.7" width="100" height="100"/>
		</g>
	</g>
	<g transform="translate(660,1760) scale(0.55,0.55)">
		<g transform="">
			<rect x="1792.7" y="-1793.7" width="100" height="100"/>
		</g>
	</g>
	<g transform="translate(880,1760) scale(0.55,0.55)">
		<g transform="">
			<rect x="1792.7" y="-1793.7" width="100" height="100"/>
		</g>
	</g>
	<g transform="translate(935,1760) scale(0.55,0.55)">
		<g transform="">
			<rect x="1792.7" y="-1793.7" width="100" height="100"/>
		</g>
	</g>
	<g transform="translate(990,1760) scale(0.55,0.55)">
		<g transform="">
			<rect x="1792.7" y="-1793.7" width="100" height="100"/>
		</g>
	</g>
	<g transform="translate(1045,1760) scale(0.55,0.55)">
		<g transform="">
			<rect x="1792.7" y="-1793.7" width="100" height="100"/>
		</g>
	</g>
	<g transform="translate(1100,1760) scale(0.55,0.55)">
		<g transform="">
			<rect x="1792.7" y="-1793.7" width="100" height="100"/>
		</g>
	</g>
	<g transform="translate(1155,1760) scale(0.55,0.55)">
		<g transform="">
			<rect x="1792.7" y="-1793.7" width="100" height="100"/>
		</g>
	</g>
	<g transform="translate(1210,1760) scale(0.55,0.55)">
		<g transform="">
			<rect x="1792.7" y="-1793.7" width="100" height="100"/>
		</g>
	</g>
	<g transform="translate(1265,1760) scale(0.55,0.55)">
		<g transform="">
			<rect x="1792.7" y="-1793.7" width="100" height="100"/>
		</g>
	</g>
	<g transform="translate(1375,1760) scale(0.55,0.55)">
		<g transform="">
			<rect x="1792.7" y="-1793.7" width="100" height="100"/>
		</g>
	</g>
	<g transform="translate(1540,1760) scale(0.55,0.55)">
		<g transform="">
			<rect x="1792.7" y="-1793.7" width="100" height="100"/>
		</g>
	</g>
	<g transform="translate(1595,1760) scale(0.55,0.55)">
		<g transform="">
			<rect x="1792.7" y="-1793.7" width="100" height="100"/>
		</g>
	</g>
	<g transform="translate(1650,1760) scale(0.55,0.55)">
		<g transform="">
			<rect x="1792.7" y="-1793.7" width="100" height="100"/>
		</g>
	</g>
	<g transform="translate(1705,1760) scale(0.55,0.55)">
		<g transform="">
			<rect x="1792.7" y="-1793.7" width="100" height="100"/>
		</g>
	</g>
	<g transform="translate(1760,1760) scale(0.55,0.55)">
		<g transform="">
			<rect x="1792.7" y="-1793.7" width="100" height="100"/>
		</g>
	</g>
	<g transform="translate(1815,1760) scale(0.55,0.55)">
		<g transform="">
			<rect x="1792.7" y="-1793.7" width="100" height="100"/>
		</g>
	</g>
	<g transform="translate(1925,1760) scale(0.55,0.55)">
		<g transform="">
			<rect x="1792.7" y="-1793.7" width="100" height="100"/>
		</g>
	</g>
	<g transform="translate(1980,1760) scale(0.55,0.55)">
		<g transform="">
			<rect x="1792.7" y="-1793.7" width="100" height="100"/>
		</g>
	</g>
	<g transform="translate(495,1815) scale(0.55,0.55)">
		<g transform="">
			<rect x="1792.7" y="-1793.7" width="100" height="100"/>
		</g>
	</g>
	<g transform="translate(605,1815) scale(0.55,0.55)">
		<g transform="">
			<rect x="1792.7" y="-1793.7" width="100" height="100"/>
		</g>
	</g>
	<g transform="translate(660,1815) scale(0.55,0.55)">
		<g transform="">
			<rect x="1792.7" y="-1793.7" width="100" height="100"/>
		</g>
	</g>
	<g transform="translate(715,1815) scale(0.55,0.55)">
		<g transform="">
			<rect x="1792.7" y="-1793.7" width="100" height="100"/>
		</g>
	</g>
	<g transform="translate(825,1815) scale(0.55,0.55)">
		<g transform="">
			<rect x="1792.7" y="-1793.7" width="100" height="100"/>
		</g>
	</g>
	<g transform="translate(935,1815) scale(0.55,0.55)">
		<g transform="">
			<rect x="1792.7" y="-1793.7" width="100" height="100"/>
		</g>
	</g>
	<g transform="translate(1045,1815) scale(0.55,0.55)">
		<g transform="">
			<rect x="1792.7" y="-1793.7" width="100" height="100"/>
		</g>
	</g>
	<g transform="translate(1100,1815) scale(0.55,0.55)">
		<g transform="">
			<rect x="1792.7" y="-1793.7" width="100" height="100"/>
		</g>
	</g>
	<g transform="translate(1155,1815) scale(0.55,0.55)">
		<g transform="">
			<rect x="1792.7" y="-1793.7" width="100" height="100"/>
		</g>
	</g>
	<g transform="translate(1320,1815) scale(0.55,0.55)">
		<g transform="">
			<rect x="1792.7" y="-1793.7" width="100" height="100"/>
		</g>
	</g>
	<g transform="translate(1375,1815) scale(0.55,0.55)">
		<g transform="">
			<rect x="1792.7" y="-1793.7" width="100" height="100"/>
		</g>
	</g>
	<g transform="translate(1430,1815) scale(0.55,0.55)">
		<g transform="">
			<rect x="1792.7" y="-1793.7" width="100" height="100"/>
		</g>
	</g>
	<g transform="translate(1485,1815) scale(0.55,0.55)">
		<g transform="">
			<rect x="1792.7" y="-1793.7" width="100" height="100"/>
		</g>
	</g>
	<g transform="translate(1540,1815) scale(0.55,0.55)">
		<g transform="">
			<rect x="1792.7" y="-1793.7" width="100" height="100"/>
		</g>
	</g>
	<g transform="translate(1595,1815) scale(0.55,0.55)">
		<g transform="">
			<rect x="1792.7" y="-1793.7" width="100" height="100"/>
		</g>
	</g>
	<g transform="translate(1705,1815) scale(0.55,0.55)">
		<g transform="">
			<rect x="1792.7" y="-1793.7" width="100" height="100"/>
		</g>
	</g>
	<g transform="translate(1760,1815) scale(0.55,0.55)">
		<g transform="">
			<rect x="1792.7" y="-1793.7" width="100" height="100"/>
		</g>
	</g>
	<g transform="translate(1815,1815) scale(0.55,0.55)">
		<g transform="">
			<rect x="1792.7" y="-1793.7" width="100" height="100"/>
		</g>
	</g>
	<g transform="translate(1925,1815) scale(0.55,0.55)">
		<g transform="">
			<rect x="1792.7" y="-1793.7" width="100" height="100"/>
		</g>
	</g>
	<g transform="translate(1980,1815) scale(0.55,0.55)">
		<g transform="">
			<rect x="1792.7" y="-1793.7" width="100" height="100"/>
		</g>
	</g>
	<g transform="translate(440,1870) scale(0.55,0.55)">
		<g transform="">
			<rect x="1792.7" y="-1793.7" width="100" height="100"/>
		</g>
	</g>
	<g transform="translate(495,1870) scale(0.55,0.55)">
		<g transform="">
			<rect x="1792.7" y="-1793.7" width="100" height="100"/>
		</g>
	</g>
	<g transform="translate(550,1870) scale(0.55,0.55)">
		<g transform="">
			<rect x="1792.7" y="-1793.7" width="100" height="100"/>
		</g>
	</g>
	<g transform="translate(770,1870) scale(0.55,0.55)">
		<g transform="">
			<rect x="1792.7" y="-1793.7" width="100" height="100"/>
		</g>
	</g>
	<g transform="translate(1045,1870) scale(0.55,0.55)">
		<g transform="">
			<rect x="1792.7" y="-1793.7" width="100" height="100"/>
		</g>
	</g>
	<g transform="translate(1100,1870) scale(0.55,0.55)">
		<g transform="">
			<rect x="1792.7" y="-1793.7" width="100" height="100"/>
		</g>
	</g>
	<g transform="translate(1155,1870) scale(0.55,0.55)">
		<g transform="">
			<rect x="1792.7" y="-1793.7" width="100" height="100"/>
		</g>
	</g>
	<g transform="translate(1485,1870) scale(0.55,0.55)">
		<g transform="">
			<rect x="1792.7" y="-1793.7" width="100" height="100"/>
		</g>
	</g>
	<g transform="translate(1595,1870) scale(0.55,0.55)">
		<g transform="">
			<rect x="1792.7" y="-1793.7" width="100" height="100"/>
		</g>
	</g>
	<g transform="translate(1705,1870) scale(0.55,0.55)">
		<g transform="">
			<rect x="1792.7" y="-1793.7" width="100" height="100"/>
		</g>
	</g>
	<g transform="translate(1760,1870) scale(0.55,0.55)">
		<g transform="">
			<rect x="1792.7" y="-1793.7" width="100" height="100"/>
		</g>
	</g>
	<g transform="translate(1815,1870) scale(0.55,0.55)">
		<g transform="">
			<rect x="1792.7" y="-1793.7" width="100" height="100"/>
		</g>
	</g>
	<g transform="translate(1870,1870) scale(0.55,0.55)">
		<g transform="">
			<rect x="1792.7" y="-1793.7" width="100" height="100"/>
		</g>
	</g>
	<g transform="translate(1980,1870) scale(0.55,0.55)">
		<g transform="">
			<rect x="1792.7" y="-1793.7" width="100" height="100"/>
		</g>
	</g>
	<g transform="translate(550,1925) scale(0.55,0.55)">
		<g transform="">
			<rect x="1792.7" y="-1793.7" width="100" height="100"/>
		</g>
	</g>
	<g transform="translate(825,1925) scale(0.55,0.55)">
		<g transform="">
			<rect x="1792.7" y="-1793.7" width="100" height="100"/>
		</g>
	</g>
	<g transform="translate(880,1925) scale(0.55,0.55)">
		<g transform="">
			<rect x="1792.7" y="-1793.7" width="100" height="100"/>
		</g>
	</g>
	<g transform="translate(1265,1925) scale(0.55,0.55)">
		<g transform="">
			<rect x="1792.7" y="-1793.7" width="100" height="100"/>
		</g>
	</g>
	<g transform="translate(1375,1925) scale(0.55,0.55)">
		<g transform="">
			<rect x="1792.7" y="-1793.7" width="100" height="100"/>
		</g>
	</g>
	<g transform="translate(1430,1925) scale(0.55,0.55)">
		<g transform="">
			<rect x="1792.7" y="-1793.7" width="100" height="100"/>
		</g>
	</g>
	<g transform="translate(1485,1925) scale(0.55,0.55)">
		<g transform="">
			<rect x="1792.7" y="-1793.7" width="100" height="100"/>
		</g>
	</g>
	<g transform="translate(1540,1925) scale(0.55,0.55)">
		<g transform="">
			<rect x="1792.7" y="-1793.7" width="100" height="100"/>
		</g>
	</g>
	<g transform="translate(1760,1925) scale(0.55,0.55)">
		<g transform="">
			<rect x="1792.7" y="-1793.7" width="100" height="100"/>
		</g>
	</g>
	<g transform="translate(1925,1925) scale(0.55,0.55)">
		<g transform="">
			<rect x="1792.7" y="-1793.7" width="100" height="100"/>
		</g>
	</g>
	<g transform="translate(550,1980) scale(0.55,0.55)">
		<g transform="">
			<rect x="1792.7" y="-1793.7" width="100" height="100"/>
		</g>
	</g>
	<g transform="translate(660,1980) scale(0.55,0.55)">
		<g transform="">
			<rect x="1792.7" y="-1793.7" width="100" height="100"/>
		</g>
	</g>
	<g transform="translate(880,1980) scale(0.55,0.55)">
		<g transform="">
			<rect x="1792.7" y="-1793.7" width="100" height="100"/>
		</g>
	</g>
	<g transform="translate(935,1980) scale(0.55,0.55)">
		<g transform="">
			<rect x="1792.7" y="-1793.7" width="100" height="100"/>
		</g>
	</g>
	<g transform="translate(990,1980) scale(0.55,0.55)">
		<g transform="">
			<rect x="1792.7" y="-1793.7" width="100" height="100"/>
		</g>
	</g>
	<g transform="translate(1210,1980) scale(0.55,0.55)">
		<g transform="">
			<rect x="1792.7" y="-1793.7" width="100" height="100"/>
		</g>
	</g>
	<g transform="translate(1320,1980) scale(0.55,0.55)">
		<g transform="">
			<rect x="1792.7" y="-1793.7" width="100" height="100"/>
		</g>
	</g>
	<g transform="translate(1375,1980) scale(0.55,0.55)">
		<g transform="">
			<rect x="1792.7" y="-1793.7" width="100" height="100"/>
		</g>
	</g>
	<g transform="translate(1485,1980) scale(0.55,0.55)">
		<g transform="">
			<rect x="1792.7" y="-1793.7" width="100" height="100"/>
		</g>
	</g>
	<g transform="translate(1540,1980) scale(0.55,0.55)">
		<g transform="">
			<rect x="1792.7" y="-1793.7" width="100" height="100"/>
		</g>
	</g>
	<g transform="translate(1595,1980) scale(0.55,0.55)">
		<g transform="">
			<rect x="1792.7" y="-1793.7" width="100" height="100"/>
		</g>
	</g>
	<g transform="translate(1650,1980) scale(0.55,0.55)">
		<g transform="">
			<rect x="1792.7" y="-1793.7" width="100" height="100"/>
		</g>
	</g>
	<g transform="translate(1760,1980) scale(0.55,0.55)">
		<g transform="">
			<rect x="1792.7" y="-1793.7" width="100" height="100"/>
		</g>
	</g>
	<g transform="translate(1925,1980) scale(0.55,0.55)">
		<g transform="">
			<rect x="1792.7" y="-1793.7" width="100" height="100"/>
		</g>
	</g>
	<g transform="translate(1980,1980) scale(0.55,0.55)">
		<g transform="">
			<rect x="1792.7" y="-1793.7" width="100" height="100"/>
		</g>
	</g>
	<g transform="translate(0,0) scale(3.85, 3.85)">
		<g transform="">
			<g>
				<rect x="271.1" y="-241.2" class="st0" width="70" height="70"/>
				<path d="M341.1-256.2h-70h-15v15v70v15h15h70h15v-15v-70v-15H341.1z M341.1-171.2h-70v-70h70V-171.2z"/>
			</g>
		</g>
	</g>
	<g transform="translate(1650,0) scale(3.85, 3.85)">
		<g transform="">
			<g>
				<rect x="271.1" y="-241.2" class="st0" width="70" height="70"/>
				<path d="M341.1-256.2h-70h-15v15v70v15h15h70h15v-15v-70v-15H341.1z M341.1-171.2h-70v-70h70V-171.2z"/>
			</g>
		</g>
	</g>
	<g transform="translate(0,1650) scale(3.85, 3.85)">
		<g transform="">
			<g>
				<rect x="271.1" y="-241.2" class="st0" width="70" height="70"/>
				<path d="M341.1-256.2h-70h-15v15v70v15h15h70h15v-15v-70v-15H341.1z M341.1-171.2h-70v-70h70V-171.2z"/>
			</g>
		</g>
	</g>
	<g transform="translate(110,110) scale(1.65, 1.65)">
		<g transform="">
			<rect x="597.6" y="-597.9" width="100" height="100"/>
		</g>
	</g>
	<g transform="translate(1760,110) scale(1.65, 1.65)">
		<g transform="">
			<rect x="597.6" y="-597.9" width="100" height="100"/>
		</g>
	</g>
	<g transform="translate(110,1760) scale(1.65, 1.65)">
		<g transform="">
			<rect x="597.6" y="-597.9" width="100" height="100"/>
		</g>
	</g>
	<image style="overflow:visible;" width="605" height="605" xlink:href="C4486F1A.png"  transform="matrix(1 0 0 1 1701 -271.54)">
	</image>
	<path class="st1" d="z"/>
</g>
<g>
	<rect id="XMLID_1_" x="1896.8" y="89.2" width="17.3" height="17.3"/>
	<rect id="XMLID_47_" x="1914" y="71.9" width="17.3" height="17.3"/>
	<rect id="XMLID_48_" x="1931.3" y="54.6" width="17.3" height="17.3"/>
	<rect id="XMLID_49_" x="1948.6" y="37.4" width="17.3" height="17.3"/>
	<rect id="XMLID_50_" x="1965.8" y="20.1" width="17.3" height="17.3"/>
	<rect id="XMLID_51_" x="1983.1" y="20.1" width="17.3" height="17.3"/>
	<rect id="XMLID_53_" x="2000.4" y="2.8" width="17.3" height="17.3"/>
	<rect id="XMLID_52_" x="2017.6" y="2.8" width="17.3" height="17.3"/>
	<rect id="XMLID_54_" x="2034.9" y="20.1" width="17.3" height="17.3"/>
	<rect id="XMLID_55_" x="2017.6" y="37.4" width="17.3" height="17.3"/>
	<rect id="XMLID_56_" x="2000.4" y="54.6" width="17.3" height="17.3"/>
	<rect id="XMLID_57_" x="1983.1" y="54.6" width="17.3" height="17.3"/>
	<rect id="XMLID_60_" x="1948.6" y="89.2" width="17.3" height="17.3"/>
	<rect id="XMLID_59_" x="1931.3" y="89.2" width="17.3" height="17.3"/>
	<rect id="XMLID_61_" x="1914" y="106.4" width="17.3" height="17.3"/>
	<rect id="XMLID_62_" x="1896.8" y="123.7" width="17.3" height="17.3"/>
	<rect id="XMLID_63_" x="1879.5" y="141" width="17.3" height="17.3"/>
	<rect id="XMLID_64_" x="1879.5" y="158.1" width="17.3" height="17.3"/>
	<rect id="XMLID_65_" x="1879.5" y="175.4" width="17.3" height="17.3"/>
	<rect id="XMLID_191_" x="2069.4" y="244.5" width="17.3" height="17.3"/>
	<rect id="XMLID_190_" x="2069.4" y="261.7" width="17.3" height="17.3"/>
	<rect id="XMLID_189_" x="2069.4" y="279" width="17.3" height="17.3"/>
	<rect id="XMLID_194_" x="2034.9" y="330.8" width="17.3" height="17.3"/>
	<rect id="XMLID_66_" x="1896.8" y="175.4" width="17.3" height="17.3"/>
	<rect id="XMLID_67_" x="1914" y="158.1" width="17.3" height="17.3"/>
	<rect id="XMLID_68_" x="1931.3" y="141" width="17.3" height="17.3"/>
	<rect id="XMLID_69_" x="1948.6" y="123.7" width="17.3" height="17.3"/>
	<rect id="XMLID_70_" x="1965.8" y="123.7" width="17.3" height="17.3"/>
	<rect id="XMLID_71_" x="1983.1" y="106.4" width="17.3" height="17.3"/>
	<rect id="XMLID_72_" x="2000.4" y="106.4" width="17.3" height="17.3"/>
	<rect id="XMLID_73_" x="2017.6" y="106.4" width="17.3" height="17.3"/>
	<rect id="XMLID_74_" x="2017.6" y="106.4" width="17.3" height="17.3"/>
	<rect id="XMLID_75_" x="2000.4" y="141" width="17.3" height="17.3"/>
	<rect id="XMLID_76_" x="1983.1" y="158.1" width="17.3" height="17.3"/>
	<rect id="XMLID_77_" x="1965.8" y="158.1" width="17.3" height="17.3"/>
	<rect id="XMLID_78_" x="1948.6" y="175.4" width="17.3" height="17.3"/>
	<rect id="XMLID_79_" x="1931.3" y="192.7" width="17.3" height="17.3"/>
	<rect id="XMLID_80_" x="1914" y="209.9" width="17.3" height="17.3"/>
	<rect id="XMLID_81_" x="1896.8" y="227.2" width="17.3" height="17.3"/>
	<rect id="XMLID_82_" x="1896.8" y="244.5" width="17.3" height="17.3"/>
	<rect id="XMLID_83_" x="1914" y="261.7" width="17.3" height="17.3"/>
	<rect id="XMLID_84_" x="1931.3" y="279" width="17.3" height="17.3"/>
	<rect id="XMLID_85_" x="1931.3" y="296.3" width="17.3" height="17.3"/>
	<rect id="XMLID_86_" x="1948.6" y="313.5" width="17.3" height="17.3"/>
	<rect id="XMLID_87_" x="1965.8" y="330.8" width="17.3" height="17.3"/>
	<rect id="XMLID_88_" x="1983.1" y="348.1" width="17.3" height="17.3"/>
	<rect id="XMLID_89_" x="2000.4" y="365.3" width="17.3" height="17.3"/>
	<rect id="XMLID_90_" x="2017.6" y="382.6" width="17.3" height="17.3"/>
	<rect id="XMLID_91_" x="2034.9" y="382.6" width="17.3" height="17.3"/>
	<rect id="XMLID_93_" x="2069.4" y="399.9" width="17.3" height="17.3"/>
	<rect id="XMLID_185_" x="2052.2" y="399.9" width="17.3" height="17.3"/>
	<rect id="XMLID_92_" x="2086.7" y="399.9" width="17.3" height="17.3"/>
	<rect id="XMLID_95_" x="2104" y="382.6" width="17.3" height="17.3"/>
	<rect id="XMLID_94_" x="2121.1" y="382.6" width="17.3" height="17.3"/>
	<rect id="XMLID_119_" x="2293.8" y="227.2" width="17.3" height="17.3"/>
	<rect id="XMLID_118_" x="2293.8" y="209.9" width="17.3" height="17.3"/>
	<rect id="XMLID_115_" x="2242" y="261.7" width="17.3" height="17.3"/>
	<rect id="XMLID_108_" x="2224.7" y="244.5" width="17.3" height="17.3"/>
	<rect id="XMLID_109_" x="2207.5" y="227.2" width="17.3" height="17.3"/>
	<rect id="XMLID_110_" x="2190.2" y="209.9" width="17.3" height="17.3"/>
	<rect id="XMLID_111_" x="2172.9" y="192.7" width="17.3" height="17.3"/>
	<rect id="XMLID_112_" x="2155.7" y="175.4" width="17.3" height="17.3"/>
	<rect id="XMLID_113_" x="2138.4" y="158.1" width="17.3" height="17.3"/>
	<rect id="XMLID_96_" x="2121.1" y="175.4" width="17.3" height="17.3"/>
	<rect id="XMLID_97_" x="2121.1" y="192.7" width="17.3" height="17.3"/>
	<rect id="XMLID_98_" x="2138.4" y="209.9" width="17.3" height="17.3"/>
	<rect id="XMLID_100_" x="2155.7" y="227.2" width="17.3" height="17.3"/>
	<rect id="XMLID_101_" x="2155.7" y="244.5" width="17.3" height="17.3"/>
	<rect id="XMLID_188_" x="2121.1" y="244.5" width="17.3" height="17.3"/>
	<rect id="XMLID_187_" x="2121.1" y="261.7" width="17.3" height="17.3"/>
	<rect id="XMLID_193_" x="2052.2" y="296.3" width="17.3" height="17.3"/>
	<rect id="XMLID_192_" x="2052.2" y="313.5" width="17.3" height="17.3"/>
	<rect id="XMLID_103_" x="2172.9" y="261.7" width="17.3" height="17.3"/>
	<rect id="XMLID_102_" x="2172.9" y="279" width="17.3" height="17.3"/>
	<rect id="XMLID_105_" x="2190.2" y="296.3" width="17.3" height="17.3"/>
	<rect id="XMLID_104_" x="2190.2" y="313.5" width="17.3" height="17.3"/>
	<rect id="XMLID_106_" x="2172.9" y="330.8" width="17.3" height="17.3"/>
	<rect id="XMLID_107_" x="2155.7" y="348.1" width="17.3" height="17.3"/>
	<rect id="XMLID_114_" x="2138.4" y="365.3" width="17.3" height="17.3"/>
	<rect id="XMLID_117_" x="2293.8" y="244.5" width="17.3" height="17.3"/>
	<rect id="XMLID_134_" x="2293.8" y="261.7" width="17.3" height="17.3"/>
	<rect id="XMLID_184_" x="2276.5" y="279" width="17.3" height="17.3"/>
	<rect id="XMLID_116_" x="2259.3" y="261.7" width="17.3" height="17.3"/>
	<rect id="XMLID_58_" x="1965.8" y="71.9" width="17.3" height="17.3"/>
	<rect id="XMLID_6_" x="1896.8" y="71.9" width="17.3" height="17.3"/>
	<rect id="XMLID_7_" x="1896.8" y="37.4" width="17.3" height="17.3"/>
	<rect id="XMLID_186_" x="1896.8" y="54.6" width="17.3" height="17.3"/>
	<rect id="XMLID_8_" x="1896.8" y="20.1" width="17.3" height="17.3"/>
	<rect id="XMLID_9_" x="1896.8" y="2.8" width="17.3" height="17.3"/>
	<rect id="XMLID_10_" x="1914" y="-14.4" width="17.3" height="17.3"/>
	<rect id="XMLID_11_" x="1931.3" y="-31.7" width="17.3" height="17.3"/>
	<rect id="XMLID_12_" x="1931.3" y="-49" width="17.3" height="17.3"/>
	<rect id="XMLID_13_" x="1948.6" y="-66.2" width="17.3" height="17.3"/>
	<rect id="XMLID_14_" x="1965.8" y="-66.2" width="17.3" height="17.3"/>
	<rect id="XMLID_15_" x="1983.1" y="-83.5" width="17.3" height="17.3"/>
	<rect id="XMLID_16_" x="2000.4" y="-83.5" width="17.3" height="17.3"/>
	<rect id="XMLID_17_" x="2017.6" y="-83.5" width="17.3" height="17.3"/>
	<rect id="XMLID_18_" x="2034.9" y="-83.5" width="17.3" height="17.3"/>
	<rect id="XMLID_19_" x="2052.2" y="-66.2" width="17.3" height="17.3"/>
	<rect id="XMLID_20_" x="2069.4" y="-49" width="17.3" height="17.3"/>
	<rect id="XMLID_21_" x="2086.7" y="-31.7" width="17.3" height="17.3"/>
	<rect id="XMLID_22_" x="2104" y="-14.4" width="17.3" height="17.3"/>
	<rect id="XMLID_162_" x="2086.7" y="2.8" width="17.3" height="17.3"/>
	<rect id="XMLID_163_" x="2086.7" y="20.1" width="17.3" height="17.3"/>
	<rect id="XMLID_164_" x="2086.7" y="37.4" width="17.3" height="17.3"/>
	<rect id="XMLID_165_" x="2086.7" y="54.6" width="17.3" height="17.3"/>
	<rect id="XMLID_166_" x="2086.7" y="71.9" width="17.3" height="17.3"/>
	<rect id="XMLID_167_" x="2086.7" y="89.2" width="17.3" height="17.3"/>
	<rect id="XMLID_168_" x="2086.7" y="123.7" width="17.3" height="17.3"/>
	<rect id="XMLID_169_" x="2069.4" y="123.7" width="17.3" height="17.3"/>
	<rect id="XMLID_177_" x="2069.4" y="141" width="17.3" height="17.3"/>
	<rect id="XMLID_178_" x="2069.4" y="158.1" width="17.3" height="17.3"/>
	<rect id="XMLID_179_" x="2069.4" y="175.4" width="17.3" height="17.3"/>
	<rect id="XMLID_180_" x="2069.4" y="192.7" width="17.3" height="17.3"/>
	<rect id="XMLID_181_" x="2069.4" y="209.9" width="17.3" height="17.3"/>
	<rect id="XMLID_182_" x="2086.7" y="227.2" width="17.3" height="17.3"/>
	<rect id="XMLID_183_" x="2104" y="227.2" width="17.3" height="17.3"/>
	<rect id="XMLID_170_" x="2052.2" y="123.7" width="17.3" height="17.3"/>
	<rect id="XMLID_171_" x="2034.9" y="141" width="17.3" height="17.3"/>
	<rect id="XMLID_172_" x="2017.6" y="158.1" width="17.3" height="17.3"/>
	<rect id="XMLID_173_" x="2000.4" y="175.4" width="17.3" height="17.3"/>
	<rect id="XMLID_174_" x="1983.1" y="192.7" width="17.3" height="17.3"/>
	<rect id="XMLID_175_" x="1965.8" y="209.9" width="17.3" height="17.3"/>
	<rect id="XMLID_176_" x="1948.6" y="227.2" width="17.3" height="17.3"/>
	<rect id="XMLID_27_" x="2104" y="-49" width="17.3" height="17.3"/>
	<rect id="XMLID_28_" x="2104" y="-66.2" width="17.3" height="17.3"/>
	<rect id="XMLID_29_" x="2104" y="-83.5" width="17.3" height="17.3"/>
	<rect id="XMLID_30_" x="2104" y="-100.8" width="17.3" height="17.3"/>
	<rect id="XMLID_31_" x="2121.1" y="-118" width="17.3" height="17.3"/>
	<rect id="XMLID_23_" x="2121.1" y="2.8" width="17.3" height="17.3"/>
	<rect id="XMLID_32_" x="2121.1" y="-31.7" width="17.3" height="17.3"/>
	<rect id="XMLID_33_" x="2138.4" y="-31.7" width="17.3" height="17.3"/>
	<rect id="XMLID_34_" x="2155.7" y="-31.7" width="17.3" height="17.3"/>
	<rect id="XMLID_35_" x="2172.9" y="-31.7" width="17.3" height="17.3"/>
	<rect id="XMLID_36_" x="2172.9" y="2.8" width="17.3" height="17.3"/>
	<rect id="XMLID_37_" x="2172.9" y="20.1" width="17.3" height="17.3"/>
	<rect id="XMLID_38_" x="2190.2" y="37.4" width="17.3" height="17.3"/>
	<rect id="XMLID_39_" x="2207.5" y="37.4" width="17.3" height="17.3"/>
	<rect id="XMLID_40_" x="2224.7" y="37.4" width="17.3" height="17.3"/>
	<rect id="XMLID_143_" x="2190.2" y="2.8" width="17.3" height="17.3"/>
	<rect id="XMLID_142_" x="2207.5" y="2.8" width="17.3" height="17.3"/>
	<rect id="XMLID_141_" x="2224.7" y="2.8" width="17.3" height="17.3"/>
	<rect id="XMLID_144_" x="2242" y="2.8" width="17.3" height="17.3"/>
	<rect id="XMLID_145_" x="2259.3" y="20.1" width="17.3" height="17.3"/>
	<rect id="XMLID_146_" x="2276.5" y="20.1" width="17.3" height="17.3"/>
	<rect id="XMLID_147_" x="2293.8" y="20.1" width="17.3" height="17.3"/>
	<rect id="XMLID_149_" x="2293.8" y="2.8" width="17.3" height="17.3"/>
	<rect id="XMLID_150_" x="2293.8" y="-14.4" width="17.3" height="17.3"/>
	<rect id="XMLID_151_" x="2293.8" y="-31.7" width="17.3" height="17.3"/>
	<rect id="XMLID_152_" x="2276.5" y="-49" width="17.3" height="17.3"/>
	<rect id="XMLID_153_" x="2259.3" y="-66.2" width="17.3" height="17.3"/>
	<rect id="XMLID_154_" x="2242" y="-83.5" width="17.3" height="17.3"/>
	<rect id="XMLID_155_" x="2242" y="-100.8" width="17.3" height="17.3"/>
	<rect id="XMLID_156_" x="2224.7" y="-118" width="17.3" height="17.3"/>
	<rect id="XMLID_157_" x="2207.5" y="-135.3" width="17.3" height="17.3"/>
	<rect id="XMLID_158_" x="2190.2" y="-135.3" width="17.3" height="17.3"/>
	<rect id="XMLID_159_" x="2172.9" y="-135.3" width="17.3" height="17.3"/>
	<rect id="XMLID_160_" x="2155.7" y="-135.3" width="17.3" height="17.3"/>
	<rect id="XMLID_161_" x="2138.4" y="-135.3" width="17.3" height="17.3"/>
	<rect id="XMLID_148_" x="2311.1" y="20.1" width="17.3" height="17.3"/>
	<rect id="XMLID_43_" x="2242" y="54.6" width="17.3" height="17.3"/>
	<rect id="XMLID_42_" x="2259.3" y="54.6" width="17.3" height="17.3"/>
	<rect id="XMLID_41_" x="2276.5" y="54.6" width="17.3" height="17.3"/>
	<rect id="XMLID_45_" x="2293.8" y="71.9" width="17.3" height="17.3"/>
	<rect id="XMLID_44_" x="2311.1" y="71.9" width="17.3" height="17.3"/>
	<rect id="XMLID_121_" x="2259.3" y="192.7" width="17.3" height="17.3"/>
	<rect id="XMLID_122_" x="2242" y="175.4" width="17.3" height="17.3"/>
	<rect id="XMLID_123_" x="2224.7" y="158.1" width="17.3" height="17.3"/>
	<rect id="XMLID_124_" x="2207.5" y="141" width="17.3" height="17.3"/>
	<rect id="XMLID_125_" x="2190.2" y="123.7" width="17.3" height="17.3"/>
	<rect id="XMLID_126_" x="2172.9" y="106.4" width="17.3" height="17.3"/>
	<rect id="XMLID_127_" x="2172.9" y="89.2" width="17.3" height="17.3"/>
	<rect id="XMLID_128_" x="2190.2" y="89.2" width="17.3" height="17.3"/>
	<rect id="XMLID_129_" x="2207.5" y="89.2" width="17.3" height="17.3"/>
	<rect id="XMLID_130_" x="2224.7" y="106.4" width="17.3" height="17.3"/>
	<rect id="XMLID_120_" x="2276.5" y="192.7" width="17.3" height="17.3"/>
	<rect id="XMLID_132_" x="2242" y="123.7" width="17.3" height="17.3"/>
	<rect id="XMLID_131_" x="2259.3" y="123.7" width="17.3" height="17.3"/>
	<rect id="XMLID_133_" x="2276.5" y="141" width="17.3" height="17.3"/>
	<rect id="XMLID_135_" x="2311.1" y="175.4" width="17.3" height="17.3"/>
	<rect id="XMLID_99_" x="2293.8" y="158.1" width="17.3" height="17.3"/>
	<rect id="XMLID_136_" x="2328.3" y="175.4" width="17.3" height="17.3"/>
	<rect id="XMLID_137_" x="2328.3" y="158.1" width="17.3" height="17.3"/>
	<rect id="XMLID_138_" x="2328.3" y="141" width="17.3" height="17.3"/>
	<rect id="XMLID_139_" x="2328.3" y="123.7" width="17.3" height="17.3"/>
	<rect id="XMLID_140_" x="2328.3" y="106.4" width="17.3" height="17.3"/>
	<rect id="XMLID_46_" x="2328.3" y="89.2" width="17.3" height="17.3"/>
	<rect id="XMLID_24_" x="2121.1" y="20.1" width="17.3" height="17.3"/>
	<rect id="XMLID_25_" x="2138.4" y="37.4" width="17.3" height="17.3"/>
	<rect id="XMLID_26_" x="2155.7" y="54.6" width="17.3" height="17.3"/>
</g>
</svg>
